<?xml version="1.0" encoding="UTF-8" standalone="no"?>
<svg viewBox="0 0 654.74255 1018.9951" xmlns="http://www.w3.org/2000/svg" xmlns:xlink="http://www.w3.org/1999/xlink">
<defs>
<filter height="1.27096" id="filter4112" width="1.23432" x="-.11716" y="-.13548">
<feGaussianBlur stdDeviation="9.73195"/>
</filter>
<linearGradient id="linearGradient3973">
<stop offset="0" stop-color="#fff"/>
<stop offset="1" stop-color="#fff" stop-opacity="0"/>
</linearGradient>
<linearGradient gradientUnits="userSpaceOnUse" id="linearGradient5059" x1="605.93744" x2="566.49774" y1="1043.3986" y2="976.17181">
<stop offset="0" stop-color="#000080"/>
<stop offset="1" stop-color="#fff" stop-opacity=".33"/>
</linearGradient>
<linearGradient gradientUnits="userSpaceOnUse" id="linearGradient7489" x1="154.83818" x2="157.63713" y1="141.2388" y2="96.98663">
<stop offset="0" stop-color="#e6e6e6"/>
<stop offset="1" stop-color="#e6e6e6" stop-opacity="0"/>
</linearGradient>
<linearGradient gradientTransform="matrix(1.05879,0,0,.82193,443.98287,887.47677)" gradientUnits="userSpaceOnUse" id="linearGradient4913" x1="240.8517" x2="178.73732" xlink:href="#linearGradient3973" y1="-35.27337" y2="205.57832"/>
<linearGradient gradientTransform="matrix(-.54257,.14635,-.2991,-.26547,718.04314,141.22157)" gradientUnits="userSpaceOnUse" id="linearGradient5057" x1="157.18742" x2="151.48305" xlink:href="#linearGradient3973" y1="100.99799" y2="128.88608"/>
<linearGradient gradientUnits="userSpaceOnUse" id="linearGradient5063" x1="605.29834" x2="582.48083" xlink:href="#linearGradient3973" y1="988.34631" y2="1033.9814"/>
<linearGradient gradientUnits="userSpaceOnUse" id="linearGradient5414" x1="447.77297" x2="385.65859" xlink:href="#linearGradient3973" y1="859.22929" y2="1100.08098"/>
<linearGradient gradientTransform="matrix(-.54257,.14635,-.2991,-.26547,765.61377,139.50575)" gradientUnits="userSpaceOnUse" id="linearGradient5418" x1="157.18742" x2="151.48305" xlink:href="#linearGradient3973" y1="100.99799" y2="128.88608"/>
<linearGradient gradientUnits="userSpaceOnUse" id="linearGradient5382" x1="203.11836" x2="141.00398" xlink:href="#linearGradient3973" y1="764.15625" y2="1005.00794"/>
<linearGradient gradientUnits="userSpaceOnUse" id="linearGradient5355" x1="703.63057" x2="641.51619" xlink:href="#linearGradient3973" y1="636.31754" y2="877.16923"/>
<linearGradient gradientUnits="userSpaceOnUse" id="linearGradient5285" x1="696.45971" x2="634.34533" xlink:href="#linearGradient3973" y1="410.43553" y2="651.28722"/>
<linearGradient gradientUnits="userSpaceOnUse" id="linearGradient5215" x1="696.45971" x2="634.34533" xlink:href="#linearGradient3973" y1="187.3308" y2="428.18249"/>
<linearGradient gradientUnits="userSpaceOnUse" id="linearGradient5139" x1="694.667" x2="632.55262" xlink:href="#linearGradient3973" y1="-40.34393" y2="200.50776"/>
<linearGradient gradientTransform="matrix(-.462,.19324,-.25469,-.35053,537.96695,593.2057)" gradientUnits="userSpaceOnUse" id="linearGradient5332" x1="157.18742" x2="151.48305" xlink:href="#linearGradient3973" y1="100.99799" y2="128.88608"/>
<linearGradient gradientTransform="matrix(-.53106,.20844,-.29276,-.3781,494.55944,593.87328)" gradientUnits="userSpaceOnUse" id="linearGradient5334" x1="157.18742" x2="151.48305" xlink:href="#linearGradient3973" y1="100.99799" y2="128.88608"/>
<linearGradient gradientUnits="userSpaceOnUse" id="linearGradient5310" x1="215.56337" x2="153.44899" xlink:href="#linearGradient3973" y1="657.07584" y2="897.92753"/>
<linearGradient gradientUnits="userSpaceOnUse" id="linearGradient4474" x1="490.64136" x2="428.52698" xlink:href="#linearGradient3973" y1="416.22414" y2="657.07583"/>
<linearGradient gradientUnits="userSpaceOnUse" id="linearGradient5239" x1="223.52692" x2="161.41253" xlink:href="#linearGradient3973" y1="419.80957" y2="660.66126"/>
<linearGradient gradientTransform="matrix(-.53106,.20844,-.29276,-.3781,227.445,597.45871)" gradientUnits="userSpaceOnUse" id="linearGradient5241" x1="157.18742" x2="151.48305" xlink:href="#linearGradient3973" y1="100.99799" y2="128.88608"/>
<linearGradient gradientTransform="matrix(-.462,.19324,-.25469,-.35053,270.85251,596.79113)" gradientUnits="userSpaceOnUse" id="linearGradient5243" x1="157.18742" x2="151.48305" xlink:href="#linearGradient3973" y1="100.99799" y2="128.88608"/>
<linearGradient gradientUnits="userSpaceOnUse" id="linearGradient5190" x1="487.19614" x2="425.08176" xlink:href="#linearGradient3973" y1="186.56372" y2="427.41541"/>
<linearGradient gradientTransform="matrix(-.53106,.20844,-.29276,-.3781,501.42234,370.03918)" gradientUnits="userSpaceOnUse" id="linearGradient5192" x1="157.18742" x2="151.48305" xlink:href="#linearGradient3973" y1="100.99799" y2="128.88608"/>
<linearGradient gradientTransform="matrix(-.462,.19324,-.25469,-.35053,542.14078,367.57889)" gradientUnits="userSpaceOnUse" id="linearGradient5194" x1="157.18742" x2="151.48305" xlink:href="#linearGradient3973" y1="100.99799" y2="128.88608"/>
<linearGradient gradientUnits="userSpaceOnUse" id="linearGradient5165" x1="243.38698" x2="181.2726" xlink:href="#linearGradient3973" y1="186.56372" y2="427.41541"/>
<linearGradient gradientTransform="matrix(-.54257,.14635,-.2991,-.26547,261.00784,378.53873)" gradientUnits="userSpaceOnUse" id="linearGradient5167" x1="157.18742" x2="151.48305" xlink:href="#linearGradient3973" y1="100.99799" y2="128.88608"/>
<linearGradient gradientTransform="matrix(-.54257,.14635,-.2991,-.26547,314.12906,374.55017)" gradientUnits="userSpaceOnUse" id="linearGradient5169" x1="157.18742" x2="151.48305" xlink:href="#linearGradient3973" y1="100.99799" y2="128.88608"/>
<linearGradient gradientUnits="userSpaceOnUse" id="linearGradient5112" x1="491.84452" x2="429.73014" xlink:href="#linearGradient3973" y1="-40.34393" y2="200.50776"/>
<linearGradient gradientTransform="matrix(-.54257,.14635,-.2991,-.26547,505.71336,137.41865)" gradientUnits="userSpaceOnUse" id="linearGradient5116" x1="157.18742" x2="151.48305" xlink:href="#linearGradient3973" y1="100.99799" y2="128.88608"/>
<linearGradient gradientTransform="matrix(-.54257,.14635,-.2991,-.26547,561.52365,132.53373)" gradientUnits="userSpaceOnUse" id="linearGradient5118" x1="157.18742" x2="151.48305" xlink:href="#linearGradient3973" y1="100.99799" y2="128.88608"/>
<linearGradient gradientUnits="userSpaceOnUse" id="linearGradient5088" x1="243.38698" x2="181.2726" xlink:href="#linearGradient3973" y1="-39.07629" y2="201.7754"/>
<linearGradient gradientTransform="matrix(-.54257,.14635,-.2991,-.26547,268.66458,149.46123)" gradientUnits="userSpaceOnUse" id="linearGradient5090" x1="157.18742" x2="151.48305" xlink:href="#linearGradient3973" y1="100.99799" y2="128.88608"/>
<linearGradient gradientTransform="matrix(-.54257,.14635,-.2991,-.26547,309.89701,149.01305)" gradientUnits="userSpaceOnUse" id="linearGradient6230" x1="157.18742" x2="151.48305" xlink:href="#linearGradient3973" y1="100.99799" y2="128.88608"/>
<linearGradient gradientUnits="userSpaceOnUse" id="linearGradient7483" x1="158.27913" x2="157.56511" xlink:href="#linearGradient3973" y1="158.67564" y2="102.89947"/>
<radialGradient cx="200.99496" cy="183.04042" gradientTransform="matrix(-.01248,-.77362,.90511,-.0146,14.30603,334.58889)" gradientUnits="userSpaceOnUse" id="radialGradient4911" r="86.83337">
<stop offset="0" stop-color="#0ff"/>
<stop offset="1" stop-color="#0ff" stop-opacity="0"/>
</radialGradient>
</defs>
<g transform="translate(-86.19955,-55.99675)">
<path d="m259.8663,144.73158c0,47.6067-38.87662,86.19956-86.83337,86.19956s-86.83338-38.59286-86.83338-86.19956 38.87663-86.19955 86.83338-86.19955 86.83337,38.59286 86.83337,86.19955z" filter="url(#filter4112)" opacity=".77" transform="matrix(.82542,0,-.16994,.18042,61.6133,193.32098)"/>
<path d="m259.8663,144.73158c0,47.6067-38.87662,86.19956-86.83337,86.19956s-86.83338-38.59286-86.83338-86.19956 38.87663-86.19955 86.83338-86.19955 86.83337,38.59286 86.83337,86.19955z" fill="#00f"/>
<path d="m259.8663,144.73158c0,47.6067-38.87662,86.19956-86.83337,86.19956s-86.83338-38.59286-86.83338-86.19956 38.87663-86.19955 86.83338-86.19955 86.83337,38.59286 86.83337,86.19955z" fill="url(#radialGradient4911)"/>
<path d="m175.53528,67.50958c-16.97304.16674-35.78645,5.21305-47.21875,18.1875 11.41222,42.17165 65.8215,66.53703 104.4375,44.96875 4.8731-2.76624 11.39862-5.548 14.15625-10.03125-8.59889-30.8005-39.23863-54.03831-71.375-53.125z" fill="url(#linearGradient5088)"/>
<path d="m171.13147,119.37877c0,8.40118-6.52673,15.21169-14.57787,15.21169s-14.57786-6.81051-14.57786-15.21169 6.52673-15.21169 14.57786-15.21169 14.57787,6.81051 14.57787,15.21169z" fill="#f9f9f9" transform="matrix(1.44928,0,0,1.33333,-78.59475,-30.62505)"/>
<path d="m171.13147,119.37877c0,8.40118-6.52673,15.21169-14.57787,15.21169s-14.57786-6.81051-14.57786-15.21169 6.52673-15.21169 14.57786-15.21169 14.57787,6.81051 14.57787,15.21169z" transform="matrix(.84258,0,0,.84258,20.49396,31.99455)"/>
<path d="m136.5618,189.95054c2.53393.55431 6.85946,5.14754 9.43158,5.32034 2.43783.13927 6.63274,1.81765 9.073,1.82442 2.33945.00085 4.38665-.67113 6.72611-.67429 2.68228-.001 5.94903.33081 8.63129.33081 2.97584-.00016 5.65943-1.33603 8.63526-1.336 2.84416-.39395 5.61114-1.44731 8.26978-2.64361 2.50807-1.13666 4.68056-2.97227 6.82461-4.80429 1.59861-1.51565 3.09578-3.20987 4.46251-5.00101 1.10368-1.89345 1.87684-3.99452 2.87207-5.95826 .69799-1.18022-.92773-3.99701-.14728-5.10685 2.09078-2.9272 8.05113,2.12175 5.96035,5.04894l.29225-.33398c-.64644.8843-1.4812,2.17275-2.07566,3.10259-1.17686,2.23186-1.96597,4.72981-3.40022,6.78911-1.59933,2.04363-3.29333,4.02456-5.16596,5.74082-2.48194,2.11628-5.01642,4.19932-7.92175,5.50052-3.20258,1.41935-6.52987,2.688-9.97072,3.0097l-8.92713,8e-005-8.04286.004c-2.34469.001-4.68937.007-7.03406.006-2.52849-.007-7.39616-2.35505-9.92206-2.50169-2.78724-.18933-8.20423-5.47722-10.94937-6.08274-3.24217-.74105-.86392-2.97513 2.37826-2.23411z"/>
<path d="m156.28458,142.84392c2.58606-.78514 3.89522-2.41527 3.26391-3.8335-5.04318-.3142-10.23043.56622-14.88229,1.11525 .76566,2.46016 7.25062,4.17951 11.61838,2.71825z" fill="url(#linearGradient5090)"/>
<path d="m127.67747,107.35573c2.30945-.90611 4.68033-1.7017 6.9308-2.74783 2.0445-1.29499 4.60048-1.26717 6.70384-2.35152 1.95783-.81837 3.72509-1.98168 5.57343-3.00948 .86701-.68102 1.82748-1.20284 2.79686-1.71801 3.18001-1.65615 5.52216,2.84106 2.34215,4.49722-.9444.4763-1.82628,1.03908-2.68597,1.65849-1.95673,1.07358-3.82482,2.30656-5.89166,3.17103-2.20047.96791-4.58742,1.26219-6.73752,2.36701-2.61743,1.17374-5.31785,2.19376-8.03751,3.10518-3.5158.70316-4.51022-4.26893-.99442-4.97209z"/>
<path d="m214.10672,109.43192c-2.7298-.88602-5.50795-1.51822-8.11483-2.74627-2.14225-.98073-4.21478-2.05734-6.05569-3.53634-.86253-.62746-1.5838-1.41299-2.37927-2.11883-2.67296-2.38969.70657-6.16982 3.37953-3.78014 .74923.67374 1.43218,1.40783 2.2471,2.00471 1.44797,1.30128 3.31852,1.98575 5.02515,2.87029 2.4559,1.25643 5.22395,1.6016 7.78117,2.59867 3.32899,1.3316 1.44583,6.03949-1.88316,4.7079z"/>
<path d="m171.13147,119.37877c0,8.40118-6.52673,15.21169-14.57787,15.21169s-14.57786-6.81051-14.57786-15.21169 6.52673-15.21169 14.57786-15.21169 14.57787,6.81051 14.57787,15.21169z" fill="#f9f9f9" transform="matrix(1.44928,0,0,1.33333,-27.05421,-29.72869)"/>
<path d="m171.13147,119.37877c0,8.40118-6.52673,15.21169-14.57787,15.21169s-14.57786-6.81051-14.57786-15.21169 6.52673-15.21169 14.57786-15.21169 14.57787,6.81051 14.57787,15.21169z" transform="matrix(.84258,0,0,.84258,61.72639,31.54638)"/>
<path d="m197.51701,142.39574c2.58606-.78514 3.89522-2.41527 3.26391-3.8335-5.04318-.3142-10.23043.56622-14.88229,1.11525 .76566,2.46016 7.25062,4.17951 11.61838,2.71825z" fill="url(#linearGradient6230)"/>
</g>
<g transform="translate(-102.04506,-54.72911)">
<path d="m259.8663,144.73158c0,47.6067-38.87662,86.19956-86.83337,86.19956s-86.83338-38.59286-86.83338-86.19956 38.87663-86.19955 86.83338-86.19955 86.83337,38.59286 86.83337,86.19955z" filter="url(#filter4112)" opacity=".77" transform="matrix(.82542,0,-.16994,.18042,310.07083,192.05334)"/>
<path d="m259.8663,144.73158c0,47.6067-38.87662,86.19956-86.83337,86.19956s-86.83338-38.59286-86.83338-86.19956 38.87663-86.19955 86.83338-86.19955 86.83337,38.59286 86.83337,86.19955z" fill="#00f" transform="translate(248.45754,-1.26764)"/>
<path d="m259.8663,144.73158c0,47.6067-38.87662,86.19956-86.83337,86.19956s-86.83338-38.59286-86.83338-86.19956 38.87663-86.19955 86.83338-86.19955 86.83337,38.59286 86.83337,86.19955z" fill="url(#radialGradient4911)" transform="translate(248.45754,-1.26764)"/>
<path d="m423.99282,66.24194c-16.97304.16673-35.78645,5.21304-47.21875,18.1875 11.41222,42.17165 65.8215,66.53703 104.4375,44.96875 4.8731-2.76624 11.39862-5.548 14.15625-10.03125-8.59889-30.8005-39.23863-54.03831-71.375-53.125z" fill="url(#linearGradient5112)"/>
<path d="m373.80907,94.18125c2.44857.36141 4.89703.78884 7.36217,1.07264 2.40658.11342 4.61688.9453 6.97257,1.16588 2.10012.28533 4.20166.36497 6.30805.52742 1.08448-.0072 2.1731.08239 3.26625.17758 3.5696.3265 3.42716,2.96263-.14246,2.63617-1.05252-.10391-2.09267-.15062-3.14091-.16694-2.22289-.17801-4.44593-.26083-6.66324-.56183-2.38372-.30056-4.60312-.9432-7.0094-1.17021-2.84626-.34809-5.69022-.78721-8.49827-1.27803-3.39976-.83357-1.85452-3.23623 1.54524-2.40268z"/>
<path d="m454.76578,84.57796c-2.16334,1.20254-4.30325,2.46681-6.50949,3.60259-2.21159.9557-3.98591,2.51431-6.11205,3.55229-1.86418,1.00835-3.8023,1.82475-5.71572,2.72034-1.01718.37614-2.0041.84424-2.99326,1.31921-3.22451,1.56563-2.16063,3.98174 1.06391,2.41614 .94807-.46878 1.90476-.87967 2.87974-1.265 2.01694-.95128 4.06761-1.81356 6.0359-2.87793 2.12414-1.12271 3.97377-2.50748 6.14498-3.56934 2.54013-1.33047 5.04595-2.74531 7.49994-4.19582 2.8866-1.98009.59265-3.68255-2.29395-1.70248z"/>
<path d="m171.13147,119.37877c0,8.40118-6.52673,15.21169-14.57787,15.21169s-14.57786-6.81051-14.57786-15.21169 6.52673-15.21169 14.57786-15.21169 14.57787,6.81051 14.57787,15.21169z" transform="matrix(2.60145,0,0,1.25,17.49895,48.11519)"/>
<path d="m171.13147,119.37877c0,8.40118-6.52673,15.21169-14.57787,15.21169s-14.57786-6.81051-14.57786-15.21169 6.52673-15.21169 14.57786-15.21169 14.57787,6.81051 14.57787,15.21169z" fill="url(#linearGradient7483)" transform="matrix(1.77536,0,0,.5,147.45967,147.79039)"/>
<path d="m171.13147,119.37877c0,8.40118-6.52673,15.21169-14.57787,15.21169s-14.57786-6.81051-14.57786-15.21169 6.52673-15.21169 14.57786-15.21169 14.57787,6.81051 14.57787,15.21169z" fill="#f9f9f9" transform="matrix(1.44928,0,0,1.33333,167.32751,-35.06179)"/>
<path d="m171.13147,119.37877c0,8.40118-6.52673,15.21169-14.57787,15.21169s-14.57786-6.81051-14.57786-15.21169 6.52673-15.21169 14.57786-15.21169 14.57787,6.81051 14.57787,15.21169z" transform="matrix(.84258,0,0,.84258,257.54274,19.95197)"/>
<path d="m393.33336,130.80134c2.58606-.78514 3.89522-2.41527 3.26391-3.8335-5.04318-.3142-10.23043.56622-14.88229,1.11525 .76566,2.46016 7.25062,4.17951 11.61838,2.71825z" fill="url(#linearGradient5116)"/>
<path d="m171.13147,119.37877c0,8.40118-6.52673,15.21169-14.57787,15.21169s-14.57786-6.81051-14.57786-15.21169 6.52673-15.21169 14.57786-15.21169 14.57787,6.81051 14.57787,15.21169z" fill="#f9f9f9" transform="matrix(1.44928,0,0,1.33333,224.57243,-39.86982)"/>
<path d="m171.13147,119.37877c0,8.40118-6.52673,15.21169-14.57787,15.21169s-14.57786-6.81051-14.57786-15.21169 6.52673-15.21169 14.57786-15.21169 14.57787,6.81051 14.57787,15.21169z" transform="matrix(.84258,0,0,.84258,313.35303,15.06705)"/>
<path d="m449.14365,125.91642c2.58606-.78514 3.89522-2.41527 3.26391-3.8335-5.04318-.3142-10.23043.56622-14.88229,1.11525 .76566,2.46016 7.25062,4.17951 11.61838,2.71825z" fill="url(#linearGradient5118)"/>
</g>
<g transform="translate(-81.12899,-75.01135)">
<path d="m259.8663,144.73158c0,47.6067-38.87662,86.19956-86.83337,86.19956s-86.83338-38.59286-86.83338-86.19956 38.87663-86.19955 86.83338-86.19955 86.83337,38.59286 86.83337,86.19955z" filter="url(#filter4112)" opacity=".77" transform="matrix(.82542,0,-.16994,.18042,61.6133,418.96099)"/>
<path d="m259.8663,144.73158c0,47.6067-38.87662,86.19956-86.83337,86.19956s-86.83338-38.59286-86.83338-86.19956 38.87663-86.19955 86.83338-86.19955 86.83337,38.59286 86.83337,86.19955z" fill="#00f" transform="translate(0,225.64001)"/>
<path d="m259.8663,144.73158c0,47.6067-38.87662,86.19956-86.83337,86.19956s-86.83338-38.59286-86.83338-86.19956 38.87663-86.19955 86.83338-86.19955 86.83337,38.59286 86.83337,86.19955z" fill="url(#radialGradient4911)" transform="translate(0,225.64001)"/>
<path d="m175.53528,293.14959c-16.97304.16673-35.78645,5.21304-47.21875,18.1875 11.41222,42.17165 65.8215,66.53703 104.4375,44.96875 4.8731-2.76624 11.39862-5.548 14.15625-10.03125-8.59889-30.8005-39.23863-54.03831-71.375-53.125z" fill="url(#linearGradient5165)"/>
<g transform="matrix(.78506,0,0,.78506,189.23085,107.32362)">
<path d="m-57.25,375.90625c-2.36661,1.97893-2.06625,5.95412.125,7.9375 5.26812,7.32582 10.07023,15.25334 17.30749,20.85224 6.29488,4.84655 14.52954,6.5161 22.33887,6.09729 9.02911-.45473 18.02795-3.87633 24.62032-10.1525 7.00548-6.33456 12.69316-13.92654 18.92082-20.98453 .64461-1.20773-.29893-3.12292-1.80706-2.7022-1.96838.27478-2.63616,2.46231-3.88097,3.72285-6.28864,7.68843-12.13745,15.98008-20.23001,21.91885-4.97855,3.48986-11.08661,5.13018-17.12963,5.15182-6.35189.36896-13.08036.10403-18.77408-3.04769-5.55768-3.09884-9.15883-8.61013-12.10557-14.07297-2.74991-4.96781-5.19289-10.17641-8.85394-14.56441-.14101-.11701-.34088-.24848-.53125-.15625z"/>
<path d="m-54.20285,373.76693c-1.96316,2.52612-4.11486,4.93377-6.63481,6.91213l-1.40593.83057c-3.11315,1.77865-5.62855-2.624-2.5154-4.40266l.82879-.44621c2.19736-1.64034 3.95472-3.81671 5.6709-5.93617 2.15126-2.86834 6.20771.17399 4.05645,3.04234z"/>
<path d="m23.94913,374.25597c2.04253,1.60287 3.72525,3.64122 5.87411,5.1057l1.0008.77215c2.83409,2.19619-.27178,6.2042-3.10587,4.00802l-.81334-.63366c-2.35074-1.68871-4.32587-3.80977-6.54113-5.66679-2.53528-2.53528 1.05015-6.12071 3.58543-3.58542z"/>
</g>
<path d="m217.1943,333.29461c-2.33554-.81937-4.7017-1.58024-7.0158-2.47601-2.18299-1.01934-4.52653-1.3114-6.71432-2.21221-1.99171-.72458-3.88897-1.63189-5.82905-2.46816-.95661-.51093-1.96189-.93818-2.97379-1.36254-3.31159-1.37186-4.41205,1.02782-1.10046,2.39972 .98.39774 1.92243.84036 2.85789,1.31363 2.05045.8767 4.05674,1.83773 6.15947,2.60297 2.24982.84306 4.51336,1.30685 6.74893,2.22551 2.68137,1.0162 5.40305,1.95074 8.117,2.82282 3.39719.844 3.14731-2.00172-.24987-2.84573z"/>
<path d="m133.58534,329.92319c2.44857.3614 4.89703.78884 7.36217,1.07264 2.40658.11342 4.61688.94531 6.97257,1.16588 2.10012.28533 4.20166.36497 6.30805.52742 1.08448-.007 2.1731.0824 3.26625.17757 3.5696.3265 3.42716,2.96263-.14246,2.63617-1.05252-.10391-2.09267-.15062-3.14091-.16694-2.22289-.17801-4.44593-.26083-6.66324-.56183-2.38372-.30055-4.60312-.9432-7.0094-1.17021-2.84626-.34809-5.69022-.78721-8.49827-1.27803-3.39976-.83357-1.85452-3.23623 1.54524-2.40267z"/>
<path d="m171.13147,119.37877c0,8.40118-6.52673,15.21169-14.57787,15.21169s-14.57786-6.81051-14.57786-15.21169 6.52673-15.21169 14.57786-15.21169 14.57787,6.81051 14.57787,15.21169z" fill="#f9f9f9" transform="matrix(1.44928,0,0,1.33333,-83.65251,197.99108)"/>
<path d="m171.13147,119.37877c0,8.40118-6.52673,15.21169-14.57787,15.21169s-14.57786-6.81051-14.57786-15.21169 6.52673-15.21169 14.57786-15.21169 14.57787,6.81051 14.57787,15.21169z" transform="matrix(.84258,0,0,.84258,12.83723,261.07205)"/>
<path d="m148.62784,371.92142c2.58606-.78514 3.89522-2.41527 3.26391-3.8335-5.04318-.3142-10.23043.56622-14.88229,1.11525 .76566,2.46016 7.25062,4.17951 11.61838,2.71825z" fill="url(#linearGradient5167)"/>
<path d="m171.13147,119.37877c0,8.40118-6.52673,15.21169-14.57787,15.21169s-14.57786-6.81051-14.57786-15.21169 6.52673-15.21169 14.57786-15.21169 14.57787,6.81051 14.57787,15.21169z" fill="#f9f9f9" transform="matrix(1.44928,0,0,1.33333,-28.2003,195.87212)"/>
<path d="m171.13147,119.37877c0,8.40118-6.52673,15.21169-14.57787,15.21169s-14.57786-6.81051-14.57786-15.21169 6.52673-15.21169 14.57786-15.21169 14.57787,6.81051 14.57787,15.21169z" transform="matrix(.84258,0,0,.84258,65.95844,257.08349)"/>
<path d="m201.74906,367.93286c2.58606-.78514 3.89522-2.41527 3.26391-3.8335-5.04318-.3142-10.23043.56622-14.88229,1.11525 .76566,2.46016 7.25062,4.17951 11.61838,2.71825z" fill="url(#linearGradient5169)"/>
</g>
<g transform="translate(-89.79083,-75.01135)">
<path d="m259.8663,144.73158c0,47.6067-38.87662,86.19956-86.83337,86.19956s-86.83338-38.59286-86.83338-86.19956 38.87663-86.19955 86.83338-86.19955 86.83337,38.59286 86.83337,86.19955z" filter="url(#filter4112)" opacity=".77" transform="matrix(.82542,0,-.16994,.18042,305.42245,418.96099)"/>
<path d="m259.8663,144.73158c0,47.6067-38.87662,86.19956-86.83337,86.19956s-86.83338-38.59286-86.83338-86.19956 38.87663-86.19955 86.83338-86.19955 86.83337,38.59286 86.83337,86.19955z" fill="#00f" transform="translate(243.80916,225.64001)"/>
<path d="m259.8663,144.73158c0,47.6067-38.87662,86.19956-86.83337,86.19956s-86.83338-38.59286-86.83338-86.19956 38.87663-86.19955 86.83338-86.19955 86.83337,38.59286 86.83337,86.19955z" fill="url(#radialGradient4911)" transform="translate(243.80916,225.64001)"/>
<path d="m419.34444,293.14959c-16.97304.16673-35.78645,5.21304-47.21875,18.1875 11.41222,42.17165 65.8215,66.53703 104.4375,44.96875 4.8731-2.76624 11.39862-5.548 14.15625-10.03125-8.59889-30.8005-39.23863-54.03831-71.375-53.125z" fill="url(#linearGradient5190)"/>
<path d="m451.80219,300.32719c-2.33186.82977-4.6508,1.72429-7.01398,2.48115-2.33881.57835-4.34562,1.8234-6.6137,2.49699-2.00481.68751-4.05093,1.17352-6.08573,1.7417-1.06525.20345-2.1158.50259-3.16968.80813-3.43835,1.0131-2.78698,3.57146.65139,2.55839 1.01234-.30621 2.02365-.55391 3.04878-.77338 2.14608-.60606 4.31077-1.11876 6.4275-1.84439 2.28006-.75748 4.33252-1.81867 6.64898-2.50838 2.72459-.89389 5.42923-1.87664 8.08863-2.90313 3.17333-1.47757 1.19114-3.53463-1.98219-2.05708z"/>
<path d="m381.06517,297.31864c2.21246,1.10956 4.40415,2.28181 6.65663,3.32286 2.25019.86089 4.0891,2.34274 6.25742,3.28948 1.90532.92826 3.87637,1.6616 5.8261,2.47512 1.03219.33275 2.03815.75836 3.0466,1.19087 3.2881,1.42725 2.3278,3.88638-.96033,2.45916-.96713-.4281-1.94041-.79799-2.93088-1.14155-2.05551-.86476-4.14096-1.63915-6.15268-2.61897-2.16991-1.03147-4.07669-2.33643-6.29105-3.30511-2.59434-1.22139-5.158-2.52851-7.67138-3.87349-2.96809-1.8557-.74853-3.65406 2.21957-1.79837z"/>
<path d="m171.13147,119.37877c0,8.40118-6.52673,15.21169-14.57787,15.21169s-14.57786-6.81051-14.57786-15.21169 6.52673-15.21169 14.57786-15.21169 14.57787,6.81051 14.57787,15.21169z" fill="#f9f9f9" transform="matrix(1.41853,0,0,1.89902,164.07334,112.89165)"/>
<path d="m171.13147,119.37877c0,8.40118-6.52673,15.21169-14.57787,15.21169s-14.57786-6.81051-14.57786-15.21169 6.52673-15.21169 14.57786-15.21169 14.57787,6.81051 14.57787,15.21169z" transform="matrix(.8247,0,0,1.20005,258.51622,202.73561)"/>
<path d="m391.42628,360.61438c2.5312-1.11825 3.81259-3.43998 3.19468-5.45992-4.9362-.4475-10.01342.80645-14.56659,1.58842 .74941,3.50391 7.0968,5.95272 11.37191,3.8715z" fill="url(#linearGradient5192)"/>
<path d="m171.13147,119.37877c0,8.40118-6.52673,15.21169-14.57787,15.21169s-14.57786-6.81051-14.57786-15.21169 6.52673-15.21169 14.57786-15.21169 14.57787,6.81051 14.57787,15.21169z" fill="#f9f9f9" transform="matrix(1.23407,0,0,1.76054,250.64474,131.65101)"/>
<path d="m171.13147,119.37877c0,8.40118-6.52673,15.21169-14.57787,15.21169s-14.57786-6.81051-14.57786-15.21169 6.52673-15.21169 14.57786-15.21169 14.57787,6.81051 14.57787,15.21169z" transform="matrix(.71746,0,0,1.11254,330.82162,212.47497)"/>
<path d="m446.44836,358.84134c2.20205-1.03671 3.31681-3.18914 2.77925-5.06178-4.29431-.41488-8.71129.74764-12.67239,1.47258 .65197,3.24841 6.17396,5.51866 9.89314,3.5892z" fill="url(#linearGradient5194)"/>
<g transform="matrix(1,0,0,1.42152,-3.95671,-172.82124)">
<path d="m394.39717,414.60404 20.61621,10.75628 12.99718,1.79272 9.41175-1.34454 10.75629-7.17086 6.2745-8.06721-13.89354,4.92996h-18.37532-17.92714z" fill="#fff" stroke="#000"/>
<path d="m382.14499,406.8461c4.77317,2.72439 6.93012,4.26366 11.77168,6.83651 4.39106,2.69278 12.21673,4.9249 16.89953,7.00668 4.77236,1.36421 8.41065,2.58147 14.62559,2.93578 4.86037-.1045 7.72666-1.22374 12.76225-1.87292 10.07267-4.26813 13.04394-9.54787 18.68419-14.23794 1.91121-.84205 4.1449-5.07534 4.6938-4.8376-.81623,1.87022 4.27566,2.75179 1.00024,4.04708-5.74898,5.15037-13.05551,8.07941-20.14855,10.5307-5.5563.87298-8.69449,2.28955-13.20278,2.04333-5.10927.0457-10.24571.23982-15.33807-.17814-4.21069-1.04112-11.23749-1.22838-15.26512-2.82791-3.35274-1.62718-13.3567-2.18463-16.07971-4.77611-2.96208-.60681-9.95562-6.74077-5.93305-7.01309 3.57708,1.35874 20.17032,6.28728 23.88514,7.4749 6.02446,2.02786 7.3432,2.18889 12.92389,2.69263 5.36015.77893 10.7965.21374 16.18907.36146 3.8725-.0167 9.07061-.55459 12.50657-2.23038 6.50059-2.35553 12.14582-4.41593 17.45242-9.19731 7.23973-4.68176 9.99861-8.0243 8.87037-3.48413-1.21555,2.53902-6.58532,8.6546-8.64337,10.60164-5.8306,4.7811-11.01503,10.4-17.45204,14.40819-3.44728,2.16665-7.54679,3.25823-11.61297,2.8081-5.57005-.009-11.41067.43988-16.63812-1.87456-5.60666-1.13751-10.65559-3.94152-15.95857-5.96633-2.98598-1.50092-5.76814-3.33687-8.86248-4.63495-3.3264-1.73164-6.82842-3.29882-9.86112-5.48074-1.22568-1.68637.88433-4.15835 2.73121-3.13489z"/>
</g>
</g>
<g transform="translate(-58.73364,-100.36416)">
<path d="m259.8663,144.73158c0,47.6067-38.87662,86.19956-86.83337,86.19956s-86.83338-38.59286-86.83338-86.19956 38.87663-86.19955 86.83338-86.19955 86.83337,38.59286 86.83337,86.19955z" filter="url(#filter4112)" opacity=".77" transform="matrix(.82542,0,-.16994,.18042,41.75323,652.20684)"/>
<path d="m259.8663,144.73158c0,47.6067-38.87662,86.19956-86.83337,86.19956s-86.83338-38.59286-86.83338-86.19956 38.87663-86.19955 86.83338-86.19955 86.83337,38.59286 86.83337,86.19955z" fill="#00f" transform="translate(-19.86006,458.88586)"/>
<path d="m259.8663,144.73158c0,47.6067-38.87662,86.19956-86.83337,86.19956s-86.83338-38.59286-86.83338-86.19956 38.87663-86.19955 86.83338-86.19955 86.83337,38.59286 86.83337,86.19955z" fill="url(#radialGradient4911)" transform="translate(-19.86006,458.88586)"/>
<path d="m155.67521,526.39544c-16.97304.16673-35.78645,5.21304-47.21875,18.1875 11.41222,42.17165 65.8215,66.53703 104.4375,44.96875 4.8731-2.76624 11.39862-5.548 14.15625-10.03125-8.59889-30.8005-39.23863-54.03831-71.375-53.125z" fill="url(#linearGradient5239)"/>
<path d="m191.71839,537.15847c-2.33186.82977-4.6508,1.72429-7.01398,2.48115-2.33881.57835-4.34562,1.8234-6.6137,2.49699-2.00481.68751-4.05093,1.17352-6.08573,1.7417-1.06525.20345-2.1158.50259-3.16968.80813-3.43835,1.0131-2.78698,3.57146.65139,2.55839 1.01234-.30621 2.02365-.55391 3.04878-.77338 2.14608-.60606 4.31077-1.11876 6.4275-1.84439 2.28006-.75748 4.33252-1.81867 6.64898-2.50838 2.72459-.89389 5.42923-1.87664 8.08863-2.90313 3.17333-1.47757 1.19114-3.53463-1.98219-2.05708z"/>
<path d="m102.89,544.05579c2.37428-.69918 4.77618-1.33838 7.13295-2.11495 2.23214-.90668 4.58752-1.07882 6.81842-1.86688 2.02607-.62205 3.96713-1.43142 5.94735-2.16764 .98148-.46133 2.00718-.83689 3.03941-1.20911 3.37725-1.20117 4.35388,1.25151.97663,2.45273-.99902.34724-1.9628.74121-2.92117,1.16617-2.0925.77097-4.14519,1.62842-6.28421,2.28542-2.28989.72722-4.57415,1.07496-6.85366,1.8784-2.72971.87811-5.49552,1.67262-8.25041,2.40515-3.43581.66963-3.04112-2.15964.39469-2.82929z"/>
<path d="m171.13147,119.37877c0,8.40118-6.52673,15.21169-14.57787,15.21169s-14.57786-6.81051-14.57786-15.21169 6.52673-15.21169 14.57786-15.21169 14.57787,6.81051 14.57787,15.21169z" fill="#f9f9f9" transform="matrix(1.41853,0,0,1.89902,-99.59588,346.1375)"/>
<path d="m171.13147,119.37877c0,8.40118-6.52673,15.21169-14.57787,15.21169s-14.57786-6.81051-14.57786-15.21169 6.52673-15.21169 14.57786-15.21169 14.57787,6.81051 14.57787,15.21169z" transform="matrix(.8247,0,0,1.20005,-15.46111,430.15514)"/>
<path d="m117.44894,588.03391c2.5312-1.11825 3.81259-3.43998 3.19468-5.45992-4.9362-.4475-10.01342.80645-14.56659,1.58842 .74941,3.50391 7.0968,5.95272 11.37191,3.8715z" fill="url(#linearGradient5241)"/>
<path d="m171.13147,119.37877c0,8.40118-6.52673,15.21169-14.57787,15.21169s-14.57786-6.81051-14.57786-15.21169 6.52673-15.21169 14.57786-15.21169 14.57787,6.81051 14.57787,15.21169z" fill="#f9f9f9" transform="matrix(1.23407,0,0,1.76054,-13.02449,364.89686)"/>
<path d="m171.13147,119.37877c0,8.40118-6.52673,15.21169-14.57787,15.21169s-14.57786-6.81051-14.57786-15.21169 6.52673-15.21169 14.57786-15.21169 14.57787,6.81051 14.57787,15.21169z" transform="matrix(.71746,0,0,1.11254,59.53336,441.68721)"/>
<path d="m175.16009,588.05358c2.20205-1.03671 3.31681-3.18914 2.77925-5.06178-4.29431-.41488-8.71129.74764-12.67239,1.47258 .65197,3.24841 6.17396,5.51866 9.89314,3.5892z" fill="url(#linearGradient5243)"/>
<path d="m171.13147,119.37877c0,8.40118-6.52673,15.21169-14.57787,15.21169s-14.57786-6.81051-14.57786-15.21169 6.52673-15.21169 14.57786-15.21169 14.57787,6.81051 14.57787,15.21169z" transform="matrix(1.47101,0,0,2.08333,-81.05868,403.32589)"/>
<path d="m171.13147,119.37877c0,8.40118-6.52673,15.21169-14.57787,15.21169s-14.57786-6.81051-14.57786-15.21169 6.52673-15.21169 14.57786-15.21169 14.57787,6.81051 14.57787,15.21169z" fill="url(#linearGradient7489)" transform="matrix(.9058,0,0,.5,6.79432,613.89217)"/>
</g>
<g transform="translate(-93.23605,-97.82888)">
<path d="m259.8663,144.73158c0,47.6067-38.87662,86.19956-86.83337,86.19956s-86.83338-38.59286-86.83338-86.19956 38.87663-86.19955 86.83338-86.19955 86.83337,38.59286 86.83337,86.19955z" filter="url(#filter4112)" opacity=".77" transform="matrix(.82542,0,-.16994,.18042,308.86767,648.62141)"/>
<path d="m259.8663,144.73158c0,47.6067-38.87662,86.19956-86.83337,86.19956s-86.83338-38.59286-86.83338-86.19956 38.87663-86.19955 86.83338-86.19955 86.83337,38.59286 86.83337,86.19955z" fill="#00f" transform="translate(247.25438,455.30043)"/>
<path d="m259.8663,144.73158c0,47.6067-38.87662,86.19956-86.83337,86.19956s-86.83338-38.59286-86.83338-86.19956 38.87663-86.19955 86.83338-86.19955 86.83337,38.59286 86.83337,86.19955z" fill="url(#radialGradient4911)" transform="translate(247.25438,455.30043)"/>
<path d="m422.78965,522.81001c-16.97304.16673-35.78645,5.21304-47.21875,18.1875 11.41222,42.17165 65.8215,66.53703 104.4375,44.96875 4.8731-2.76624 11.39862-5.548 14.15625-10.03125-8.59889-30.8005-39.23863-54.03831-71.375-53.125z" fill="url(#linearGradient4474)"/>
<path d="m371.79715,541.36672c1.36588-1.2594 1.86302-2.90701 6.34864-5.14016 2.23214-.90668 4.58752-1.07882 6.81842-1.86688 2.69834.0502 4.41531-.31097 6.39553.0733 .98148-.46133 2.79149.17151 3.82372-.20071 3.82543.81563 4.46592,3.15627 1.08867,2.67682l-1.0084-.44818c-.99902.34724-2.74711-.15515-3.70548.26981-2.76477-.46152-3.24883.0598-5.83603.15657-2.28989.72722-4.57415,1.07496-6.85366,1.8784-3.85016,1.43834-4.9353,3.1292-7.4661,5.43036-1.419,2.91052-3.60133-.36693.39469-2.82929z"/>
<path d="m171.13147,119.37877c0,8.40118-6.52673,15.21169-14.57787,15.21169s-14.57786-6.81051-14.57786-15.21169 6.52673-15.21169 14.57786-15.21169 14.57787,6.81051 14.57787,15.21169z" fill="#f9f9f9" transform="matrix(1.41853,0,0,1.89902,167.51856,342.55207)"/>
<g transform="translate(8.96357,-9.85993)">
<path d="m171.13147,119.37877c0,8.40118-6.52673,15.21169-14.57787,15.21169s-14.57786-6.81051-14.57786-15.21169 6.52673-15.21169 14.57786-15.21169 14.57787,6.81051 14.57787,15.21169z" transform="matrix(.8247,0,0,1.20005,251.65333,426.56971)"/>
<path d="m384.56338,584.44848c2.5312-1.11825 3.81259-3.43998 3.19468-5.45992-4.9362-.4475-10.01342.80645-14.56659,1.58842 .74941,3.50391 7.0968,5.95272 11.37191,3.8715z" fill="url(#linearGradient5334)"/>
</g>
<path d="m171.13147,119.37877c0,8.40118-6.52673,15.21169-14.57787,15.21169s-14.57786-6.81051-14.57786-15.21169 6.52673-15.21169 14.57786-15.21169 14.57787,6.81051 14.57787,15.21169z" fill="#f9f9f9" transform="matrix(1.23407,0,0,1.76054,254.08996,361.31143)"/>
<g transform="translate(7.17086,-8.06721)">
<path d="m171.13147,119.37877c0,8.40118-6.52673,15.21169-14.57787,15.21169s-14.57786-6.81051-14.57786-15.21169 6.52673-15.21169 14.57786-15.21169 14.57787,6.81051 14.57787,15.21169z" transform="matrix(.71746,0,0,1.11254,326.6478,438.10178)"/>
<path d="m442.27453,584.46815c2.20205-1.03671 3.31681-3.18914 2.77925-5.06178-4.29431-.41488-8.71129.74764-12.67239,1.47258 .65197,3.24841 6.17396,5.51866 9.89314,3.5892z" fill="url(#linearGradient5332)"/>
</g>
<g transform="matrix(.81744,0,0,-1.42152,69.80187,1230.7489)">
<path d="m394.39717,414.60404 20.61621,10.75628 12.99718,1.79272 9.41175-1.34454 10.75629-7.17086 6.2745-8.06721-13.89354,4.92996h-18.37532-17.92714z" fill="#fff" stroke="#000"/>
<path d="m382.14499,406.8461c4.77317,2.72439 6.93012,4.26366 11.77168,6.83651 4.39106,2.69278 12.21673,4.9249 16.89953,7.00668 4.77236,1.36421 8.41065,2.58147 14.62559,2.93578 4.86037-.1045 7.72666-1.22374 12.76225-1.87292 10.07267-4.26813 13.04394-9.54787 18.68419-14.23794 1.91121-.84205 4.1449-5.07534 4.6938-4.8376-.81623,1.87022 4.27566,2.75179 1.00024,4.04708-5.74898,5.15037-13.05551,8.07941-20.14855,10.5307-5.5563.87298-8.69449,2.28955-13.20278,2.04333-5.10927.0457-10.24571.23982-15.33807-.17814-4.21069-1.04112-11.23749-1.22838-15.26512-2.82791-3.35274-1.62718-13.3567-2.18463-16.07971-4.77611-2.96208-.60681-9.95562-6.74077-5.93305-7.01309 3.57708,1.35874 20.17032,6.28728 23.88514,7.4749 6.02446,2.02786 7.3432,2.18889 12.92389,2.69263 5.36015.77893 10.7965.21374 16.18907.36146 3.8725-.0167 9.07061-.55459 12.50657-2.23038 6.50059-2.35553 12.14582-4.41593 17.45242-9.19731 7.23973-4.68176 9.99861-8.0243 8.87037-3.48413-1.21555,2.53902-6.58532,8.6546-8.64337,10.60164-5.8306,4.7811-11.01503,10.4-17.45204,14.40819-3.44728,2.16665-7.54679,3.25823-11.61297,2.8081-5.57005-.009-11.41067.43988-16.63812-1.87456-5.60666-1.13751-10.65559-3.94152-15.95857-5.96633-2.98598-1.50092-5.76814-3.33687-8.86248-4.63495-3.3264-1.73164-6.82842-3.29882-9.86112-5.48074-1.22568-1.68637.88433-4.15835 2.73121-3.13489z"/>
</g>
<path d="m430.50855,544.95215c1.36588-1.2594 1.86302-2.90701 6.34864-5.14016 2.23214-.90668 4.58752-1.07882 6.81842-1.86688 2.69834.0502 4.41531-.31097 6.39553.0733 .98148-.46133 2.79149.17151 3.82372-.20071 3.82543.81563 4.46592,3.15627 1.08867,2.67682l-1.0084-.44818c-.99902.34724-2.74711-.15515-3.70548.26981-2.76477-.46152-3.24883.0598-5.83603.15657-2.28989.72722-4.57415,1.07496-6.85366,1.8784-3.85016,1.43834-4.9353,3.1292-7.4661,5.43036-1.419,2.91052-3.60133-.36693.39469-2.82929z"/>
</g>
<g transform="translate(-53.30538,-134.59045)">
<path d="m259.8663,144.73158c0,47.6067-38.87662,86.19956-86.83337,86.19956s-86.83338-38.59286-86.83338-86.19956 38.87663-86.19955 86.83338-86.19955 86.83337,38.59286 86.83337,86.19955z" filter="url(#filter4112)" opacity=".77" transform="matrix(.82542,0,-.16994,.18042,33.78968,889.47311)"/>
<path d="m259.8663,144.73158c0,47.6067-38.87662,86.19956-86.83337,86.19956s-86.83338-38.59286-86.83338-86.19956 38.87663-86.19955 86.83338-86.19955 86.83337,38.59286 86.83337,86.19955z" fill="#00f" transform="translate(-27.82361,696.15213)"/>
<path d="m259.8663,144.73158c0,47.6067-38.87662,86.19956-86.83337,86.19956s-86.83338-38.59286-86.83338-86.19956 38.87663-86.19955 86.83338-86.19955 86.83337,38.59286 86.83337,86.19955z" fill="url(#radialGradient4911)" transform="translate(-27.82361,696.15213)"/>
<path d="m147.71166,763.66171c-16.97304.16673-35.78645,5.21304-47.21875,18.1875 11.41222,42.17165 65.8215,66.53703 104.4375,44.96875 4.8731-2.76624 11.39862-5.548 14.15625-10.03125-8.59889-30.8005-39.23863-54.03831-71.375-53.125z" fill="url(#linearGradient5310)"/>
<path d="m107.7597,779.55447c1.73161-.67323 2.7964-2.02526 7.78783-2.46496 2.40909-.0284 4.6645.67204 7.02909.75363 2.49341,1.03269 4.22363,1.32387 5.92651,2.40513 1.08218-.0708 2.5358,1.17965 3.63266,1.21034 3.26288,2.15703 3.00382,4.56985.0353,2.88952l-.77491-.78565c-1.05682-.0418-2.50046-1.14821-3.54784-1.10282-2.40496-1.43984-3.04603-1.13144-5.48969-1.98671-2.39727-.15979-4.65065-.67075-7.06611-.75579-4.10949-.0679-5.73742,1.10948-8.93406,2.32678-2.38437,2.19077-3.21823-1.65747 1.40121-2.48943z"/>
<path d="m171.13147,119.37877c0,8.40118-6.52673,15.21169-14.57787,15.21169s-14.57786-6.81051-14.57786-15.21169 6.52673-15.21169 14.57786-15.21169 14.57787,6.81051 14.57787,15.21169z" fill="#f9f9f9" transform="matrix(1.41853,0,0,1.89902,-103.75651,586.57287)"/>
<g transform="translate(-258.50858,248.73874)">
<path d="m171.13147,119.37877c0,8.40118-6.52673,15.21169-14.57787,15.21169s-14.57786-6.81051-14.57786-15.21169 6.52673-15.21169 14.57786-15.21169 14.57787,6.81051 14.57787,15.21169z" transform="matrix(.8247,0,0,1.20005,251.65333,426.56971)"/>
<path d="m384.56338,584.44848c2.5312-1.11825 3.81259-3.43998 3.19468-5.45992-4.9362-.4475-10.01342.80645-14.56659,1.58842 .74941,3.50391 7.0968,5.95272 11.37191,3.8715z" fill="url(#linearGradient5334)"/>
</g>
<path d="m171.13147,119.37877c0,8.40118-6.52673,15.21169-14.57787,15.21169s-14.57786-6.81051-14.57786-15.21169 6.52673-15.21169 14.57786-15.21169 14.57787,6.81051 14.57787,15.21169z" fill="#f9f9f9" transform="matrix(1.23407,0,0,1.76054,-20.98803,602.16313)"/>
<g transform="translate(-275.51297,246.72853)">
<path d="m171.13147,119.37877c0,8.40118-6.52673,15.21169-14.57787,15.21169s-14.57786-6.81051-14.57786-15.21169 6.52673-15.21169 14.57786-15.21169 14.57787,6.81051 14.57787,15.21169z" transform="matrix(.71746,0,0,1.11254,326.6478,438.10178)"/>
<path d="m442.27453,584.46815c2.20205-1.03671 3.31681-3.18914 2.77925-5.06178-4.29431-.41488-8.71129.74764-12.67239,1.47258 .65197,3.24841 6.17396,5.51866 9.89314,3.5892z" fill="url(#linearGradient5332)"/>
</g>
<path d="m159.23348,785.80385c1.36588-1.2594 1.86302-2.90701 6.34864-5.14016 2.23214-.90668 4.58752-1.07882 6.81842-1.86688 2.69834.0502 4.41531-.31097 6.39553.0733 .98148-.46133 2.79149.17151 3.82372-.20071 3.82543.81563 4.46592,3.15627 1.08867,2.67682l-1.0084-.44818c-.99902.34724-2.74711-.15515-3.70548.26981-2.76477-.46152-3.24883.0598-5.83603.15657-2.28989.72722-4.57415,1.07496-6.85366,1.8784-3.85016,1.43834-4.9353,3.1292-7.4661,5.43036-1.419,2.91052-3.60133-.36693.39469-2.82929z"/>
<path d="m112.87327,875.50097h8.52624 8.29815 9.32061 8.50387 10.44013 8.71045 7.55199 3.72899c3.52448,0 3.52448,10.19185 0,10.19185h-3.72899-7.55199-8.71045-10.44013-8.50387-9.32061-8.29815-8.52624c-3.52448,0-3.52448-10.19185 0-10.19185z" stroke="#000" stroke-width="4.21693"/>
</g>
<g transform="translate(-96.36832,-128.25224)">
<path d="m259.8663,144.73158c0,47.6067-38.87662,86.19956-86.83337,86.19956s-86.83338-38.59286-86.83338-86.19956 38.87663-86.19955 86.83338-86.19955 86.83337,38.59286 86.83337,86.19955z" filter="url(#filter4112)" opacity=".77" transform="matrix(.82542,0,-.16994,.18042,308.86767,884.40254)"/>
<path d="m250.359,144.73158c-3.1691,18.45097-29.36932,86.19956-77.32607,86.19956s-70.98787-61.41039-74.79079-87.4672c-6.87523-47.10763-13.72818-77.06421 74.15697-77.95989 96.12584-.97966 86.01871,32.30788 77.95989,79.22753z" fill="#00f" transform="translate(247.25438,691.08156)"/>
<path d="m234.51349,144.73158c0,47.6067-12.25617,81.129-60.21292,81.129s-51.33944-29.71938-66.55113-79.86136c-13.82056-45.55644 17.32674-77.95989 65.28349-77.95989s61.48056,29.08555 61.48056,76.69225z" fill="url(#radialGradient4911)" transform="translate(247.25438,691.08156)"/>
<path d="m171.13147,119.37877c0,8.40118-6.52673,15.21169-14.57787,15.21169s-14.57786-6.81051-14.57786-15.21169 6.52673-15.21169 14.57786-15.21169 14.57787,6.81051 14.57787,15.21169z" fill="#f9f9f9" transform="matrix(-.39085,1.25992,-2.22146,-.56792,711.85849,690.95917)"/>
<path d="m171.13147,119.37877c0,8.40118-6.52673,15.21169-14.57787,15.21169s-14.57786-6.81051-14.57786-15.21169 6.52673-15.21169 14.57786-15.21169 14.57787,6.81051 14.57787,15.21169z" fill="#f9f9f9" transform="matrix(.49685,1.18458,-1.97782,.79276,622.41119,536.18577)"/>
<g transform="matrix(.38103,-1.23416,1.23416,.38103,-478.19812,1144.8558)">
<path d="m171.13147,119.37877c0,8.40118-6.52673,15.21169-14.57787,15.21169s-14.57786-6.81051-14.57786-15.21169 6.52673-15.21169 14.57786-15.21169 14.57787,6.81051 14.57787,15.21169z" transform="matrix(.71746,0,0,1.11254,326.6478,438.10178)"/>
<path d="m442.27453,584.46815c2.20205-1.03671 3.31681-3.18914 2.77925-5.06178-4.29431-.41488-8.71129.74764-12.67239,1.47258 .65197,3.24841 6.17396,5.51866 9.89314,3.5892z" fill="url(#linearGradient5332)"/>
</g>
<g transform="matrix(.47685,1.11288,-1.11288,.47685,910.1068,122.9525)">
<path d="m171.13147,119.37877c0,8.40118-6.52673,15.21169-14.57787,15.21169s-14.57786-6.81051-14.57786-15.21169 6.52673-15.21169 14.57786-15.21169 14.57787,6.81051 14.57787,15.21169z" transform="matrix(.8247,0,0,1.20005,251.65333,426.56971)"/>
<path d="m384.56338,584.44848c2.5312-1.11825 3.81259-3.43998 3.19468-5.45992-4.9362-.4475-10.01342.80645-14.56659,1.58842 .74941,3.50391 7.0968,5.95272 11.37191,3.8715z" fill="url(#linearGradient5334)"/>
</g>
<path d="m404.96321,887.73021h3.98571 3.87907 4.35704 3.97526 4.88036 4.07183 3.53027 1.74317c1.64757,0 1.64757,11.23399 0,11.23399h-1.74317-3.53027-4.07183-4.88036-3.97526-4.35704-3.87907-3.98571c-1.64756,0-1.64756-11.23399 0-11.23399z" stroke="#000" stroke-width="3.02698"/>
</g>
<g transform="translate(-76.43611,-57.26439)">
<path d="m259.8663,144.73158c0,47.6067-38.87662,86.19956-86.83337,86.19956s-86.83338-38.59286-86.83338-86.19956 38.87663-86.19955 86.83338-86.19955 86.83337,38.59286 86.83337,86.19955z" filter="url(#filter4112)" opacity=".77" transform="matrix(.82542,0,-.16994,.18042,512.89331,192.05334)"/>
<path d="m259.8663,144.73158c0,47.6067-38.87662,86.19956-86.83337,86.19956s-86.83338-38.59286-86.83338-86.19956 38.87663-86.19955 86.83338-86.19955 86.83337,38.59286 86.83337,86.19955z" fill="#00f" transform="translate(451.28002,-1.26764)"/>
<path d="m259.8663,144.73158c0,47.6067-38.87662,86.19956-86.83337,86.19956s-86.83338-38.59286-86.83338-86.19956 38.87663-86.19955 86.83338-86.19955 86.83337,38.59286 86.83337,86.19955z" fill="url(#radialGradient4911)" transform="translate(451.28002,-1.26764)"/>
<path d="m626.8153,66.24194c-16.97304.16673-35.78645,5.21304-47.21875,18.1875 11.41222,42.17165 65.8215,66.53703 104.4375,44.96875 4.8731-2.76624 11.39862-5.548 14.15625-10.03125-8.59889-30.8005-39.23863-54.03831-71.375-53.125z" fill="url(#linearGradient5139)"/>
<path d="m568.74051,114.15818c1.94927-1.52526 3.94632-3.00495 5.85078-4.5957 1.74064-1.66573 3.86664-2.69411 5.64985-4.24913 1.65402-1.32519 3.15997-2.79316 4.72926-4.20758 .74214-.79082 1.55726-1.51793 2.37956-2.24447 2.69652-2.36166 4.50859-.4418 1.81209,1.9199-.80062.69109-1.55127,1.41263-2.28547,2.16097-1.66086,1.48812-3.25284,3.04194-4.99897,4.44125-1.86049,1.52021-3.85564,2.6856-5.67838,4.27284-2.21368,1.82262-4.49175,3.58084-6.78253,5.27742-2.94692,1.88915-3.6231-.88634-.67619-2.7755z"/>
<path d="m676.30682,107.47906c-2.16108-1.20659-4.36233-2.36077-6.48922-3.63897-1.97659-1.37753-4.2357-2.06594-6.23728-3.3275-1.83852-1.05442-3.55274-2.27272-5.32129-3.42836-.85517-.66694-1.77261-1.25976-2.69707-1.85087-3.02831-1.91781-4.52281.25841-1.49451,2.17626 .89757.55942 1.75046,1.15664 2.59124,1.78287 1.87039,1.21434 3.68285,2.50421 5.6238,3.61767 2.07257,1.21527 4.2235,2.0592 6.2691,3.34653 2.46817,1.45964 4.99001,2.84571 7.51492,4.16893 3.20289,1.41234 3.44319-1.4342.24031-2.84656z"/>
<path d="m171.13147,119.37877c0,8.40118-6.52673,15.21169-14.57787,15.21169s-14.57786-6.81051-14.57786-15.21169 6.52673-15.21169 14.57786-15.21169 14.57787,6.81051 14.57787,15.21169z" fill="#f9f9f9" transform="matrix(1.23188,0,0,1.60417,407.35248,-63.27371)"/>
<g transform="matrix(.66459,0,0,1,205.75469,11.40877)">
<path d="m171.13147,119.37877c0,8.40118-6.52673,15.21169-14.57787,15.21169s-14.57786-6.81051-14.57786-15.21169 6.52673-15.21169 14.57786-15.21169 14.57787,6.81051 14.57787,15.21169z" transform="matrix(.84258,0,0,.84258,471.14016,23.75489)"/>
<path d="m605.66314,134.60426c2.58606-.78514 3.89522-2.41527 3.26391-3.8335-5.04318-.3142-10.23043.56622-14.88229,1.11525 .76566,2.46016 7.25062,4.17951 11.61838,2.71825z" fill="url(#linearGradient5057)"/>
</g>
<path d="m171.13147,119.37877c0,8.40118-6.52673,15.21169-14.57787,15.21169s-14.57786-6.81051-14.57786-15.21169 6.52673-15.21169 14.57786-15.21169 14.57787,6.81051 14.57787,15.21169z" fill="#f9f9f9" transform="matrix(1.12319,0,0,1.60417,474.95899,-66.18027)"/>
<g transform="matrix(.66459,0,0,1,213.67934,10.14112)">
<path d="m171.13147,119.37877c0,8.40118-6.52673,15.21169-14.57787,15.21169s-14.57786-6.81051-14.57786-15.21169 6.52673-15.21169 14.57786-15.21169 14.57787,6.81051 14.57787,15.21169z" transform="matrix(.84258,0,0,.84258,517.44315,22.03907)"/>
<path d="m653.23377,132.88844c2.58606-.78514 3.89522-2.41527 3.26391-3.8335-5.04318-.3142-10.23043.56622-14.88229,1.11525 .76566,2.46016 7.25062,4.17951 11.61838,2.71825z" fill="url(#linearGradient5418)"/>
</g>
<path d="m595.28156,191.15892c5.4606-2.88903 8.77078-3.99149 10.38747-5.11378 2.13052-1.52946 8.21973-3.6296 10.50923-4.91463 2.3432-1.35011 4.85667-2.7394 7.39947-3.54777 1.86732-.53413 3.83339-.90802 5.58204-1.78611 2.13701-1.13402 4.50012-1.51795 6.87629-1.75102 3.09776-.0207 9.08041.62419 11.58802,2.33894 1.8682,1.52222 3.3465,3.11763 4.96763,4.90215 1.60903,1.8093 2.8677,3.78759 4.34447,5.71346 .91932,1.33313 2.28275,3.58035 1.80649,4.97169 1.67958,3.1677-4.86014,5.06761-6.53972,1.89991-.61556-1.20659-2.18956-1.32734-2.66908-2.58617-1.27874-1.85058-3.12869-2.91285-4.50348-4.69376-1.36823-1.51645-3.84306-1.90435-5.40586-3.21604-1.44544-.29816-2.56496-.60776-4.37263-.79671-1.81496.1687-2.02981.41626-4.92136.19979-1.9833.87421-3.11015.24329-5.21703.74544-2.21664.70427-2.80159.28558-6.61196,1.07718-2.17835,1.22262-7.67735,3.10291-9.70827,4.55696-2.48169,1.6072-7.18278,2.64743-13.67018,5.80339-10.08208,2.69374-7.86372,2.69373.15846-3.80292z" stroke="#000" stroke-width="3"/>
</g>
<g transform="translate(-70.62298,-75.01135)">
<path d="m259.8663,144.73158c0,47.6067-38.87662,86.19956-86.83337,86.19956s-86.83338-38.59286-86.83338-86.19956 38.87663-86.19955 86.83338-86.19955 86.83337,38.59286 86.83337,86.19955z" filter="url(#filter4112)" opacity=".77" transform="matrix(.82542,0,-.16994,.18042,514.68602,419.72807)"/>
<path d="m259.8663,144.73158c0,47.6067-38.87662,86.19956-86.83337,86.19956s-86.83338-38.59286-86.83338-86.19956 38.87663-86.19955 86.83338-86.19955 86.83337,38.59286 86.83337,86.19955z" fill="#00f" transform="translate(453.07273,226.40709)"/>
<path d="m259.8663,144.73158c0,47.6067-38.87662,86.19956-86.83337,86.19956s-86.83338-38.59286-86.83338-86.19956 38.87663-86.19955 86.83338-86.19955 86.83337,38.59286 86.83337,86.19955z" fill="url(#radialGradient4911)" transform="translate(453.07273,226.40709)"/>
<path d="m628.60801,293.91667c-16.97304.16673-35.78645,5.21304-47.21875,18.1875 11.41222,42.17165 65.8215,66.53703 104.4375,44.96875 4.8731-2.76624 11.39862-5.548 14.15625-10.03125-8.59889-30.8005-39.23863-54.03831-71.375-53.125z" fill="url(#linearGradient5215)"/>
<path d="m562.46601,329.28391c1.94927-1.52526 3.94632-3.00495 5.85078-4.5957 1.74064-1.66573 3.86664-2.69411 5.64985-4.24913 1.65402-1.32519 3.15997-2.79316 4.72926-4.20758 .74214-.79082 1.55726-1.51793 2.37956-2.24447 2.69652-2.36166 4.50859-.4418 1.81209,1.9199-.80062.69109-1.55127,1.41263-2.28547,2.16097-1.66086,1.48812-3.25284,3.04194-4.99897,4.44125-1.86049,1.52021-3.85564,2.6856-5.67838,4.27284-2.21368,1.82262-4.49175,3.58084-6.78253,5.27742-2.94692,1.88915-3.6231-.88634-.67619-2.7755z"/>
<path d="m671.82503,330.672c-2.16108-1.20659-4.36233-2.36077-6.48922-3.63897-1.97659-1.37753-4.2357-2.06594-6.23728-3.3275-1.83852-1.05442-3.55274-2.27273-5.32129-3.42836-.85517-.66694-1.77261-1.25976-2.69707-1.85087-3.02831-1.91781-4.52281.25841-1.49451,2.17626 .89757.55943 1.75046,1.15665 2.59124,1.78287 1.87039,1.21434 3.68285,2.50421 5.6238,3.61767 2.07257,1.21527 4.2235,2.0592 6.2691,3.34653 2.46817,1.45964 4.99001,2.84571 7.51492,4.16893 3.20289,1.41234 3.44319-1.4342.24031-2.84656z"/>
<path d="m171.13147,119.37877c0,8.40118-6.52673,15.21169-14.57787,15.21169s-14.57786-6.81051-14.57786-15.21169 6.52673-15.21169 14.57786-15.21169 14.57787,6.81051 14.57787,15.21169z" fill="#f9f9f9" transform="matrix(1.23188,0,0,1.60417,401.07798,151.85202)"/>
<g transform="matrix(.66459,0,0,1,187.82755,211.29642)">
<path d="m171.13147,119.37877c0,8.40118-6.52673,15.21169-14.57787,15.21169s-14.57786-6.81051-14.57786-15.21169 6.52673-15.21169 14.57786-15.21169 14.57787,6.81051 14.57787,15.21169z" transform="matrix(.84258,0,0,.84258,471.14016,23.75489)"/>
<path d="m605.66314,134.60426c2.58606-.78514 3.89522-2.41527 3.26391-3.8335-5.04318-.3142-10.23043.56622-14.88229,1.11525 .76566,2.46016 7.25062,4.17951 11.61838,2.71825z" fill="url(#linearGradient5057)"/>
</g>
<path d="m171.13147,119.37877c0,8.40118-6.52673,15.21169-14.57787,15.21169s-14.57786-6.81051-14.57786-15.21169 6.52673-15.21169 14.57786-15.21169 14.57787,6.81051 14.57787,15.21169z" fill="#f9f9f9" transform="matrix(1.12319,0,0,1.60417,470.4772,157.01266)"/>
<g transform="matrix(.66459,0,0,1,208.30119,219.8887)">
<path d="m171.13147,119.37877c0,8.40118-6.52673,15.21169-14.57787,15.21169s-14.57786-6.81051-14.57786-15.21169 6.52673-15.21169 14.57786-15.21169 14.57787,6.81051 14.57787,15.21169z" transform="matrix(.84258,0,0,.84258,517.44315,22.03907)"/>
<path d="m653.23377,132.88844c2.58606-.78514 3.89522-2.41527 3.26391-3.8335-5.04318-.3142-10.23043.56622-14.88229,1.11525 .76566,2.46016 7.25062,4.17951 11.61838,2.71825z" fill="url(#linearGradient5418)"/>
</g>
<path d="m171.13147,119.37877c0,8.40118-6.52673,15.21169-14.57787,15.21169s-14.57786-6.81051-14.57786-15.21169 6.52673-15.21169 14.57786-15.21169 14.57787,6.81051 14.57787,15.21169z" transform="matrix(.66459,0,0,.92591,500.32602,305.20869)"/>
</g>
<g transform="translate(-70.62298,-88.9554)">
<path d="m259.8663,144.73158c0,47.6067-38.87662,86.19956-86.83337,86.19956s-86.83338-38.59286-86.83338-86.19956 38.87663-86.19955 86.83338-86.19955 86.83337,38.59286 86.83337,86.19955z" filter="url(#filter4112)" opacity=".77" transform="matrix(.82542,0,-.16994,.18042,514.68602,642.8328)"/>
<path d="m259.8663,144.73158c0,47.6067-38.87662,86.19956-86.83337,86.19956s-86.83338-38.59286-86.83338-86.19956 38.87663-86.19955 86.83338-86.19955 86.83337,38.59286 86.83337,86.19955z" fill="#00f" transform="translate(453.07273,449.51182)"/>
<path d="m259.8663,144.73158c0,47.6067-38.87662,86.19956-86.83337,86.19956s-86.83338-38.59286-86.83338-86.19956 38.87663-86.19955 86.83338-86.19955 86.83337,38.59286 86.83337,86.19955z" fill="url(#radialGradient4911)" transform="translate(453.07273,449.51182)"/>
<path d="m628.60801,517.0214c-16.97304.16673-35.78645,5.21304-47.21875,18.1875 11.41222,42.17165 65.8215,66.53703 104.4375,44.96875 4.8731-2.76624 11.39862-5.548 14.15625-10.03125-8.59889-30.8005-39.23863-54.03831-71.375-53.125z" fill="url(#linearGradient5285)"/>
<path d="m562.46601,552.38864c1.94927-1.52526 3.94632-3.00495 5.85078-4.5957 1.74064-1.66573 3.86664-2.69411 5.64985-4.24913 1.65402-1.32519 3.15997-2.79316 4.72926-4.20758 .74214-.79082 1.55726-1.51793 2.37956-2.24447 2.69652-2.36166 4.50859-.4418 1.81209,1.9199-.80062.69109-1.55127,1.41263-2.28547,2.16097-1.66086,1.48812-3.25284,3.04194-4.99897,4.44125-1.86049,1.52021-3.85564,2.6856-5.67838,4.27284-2.21368,1.82262-4.49175,3.58084-6.78253,5.27742-2.94692,1.88915-3.6231-.88634-.67619-2.7755z"/>
<path d="m671.82503,553.77673c-2.16108-1.20659-4.36233-2.36077-6.48922-3.63897-1.97659-1.37753-4.2357-2.06594-6.23728-3.3275-1.83852-1.05442-3.55274-2.27273-5.32129-3.42836-.85517-.66694-1.77261-1.25976-2.69707-1.85087-3.02831-1.91781-4.52281.25841-1.49451,2.17626 .89757.55943 1.75046,1.15665 2.59124,1.78287 1.87039,1.21434 3.68285,2.50421 5.6238,3.61767 2.07257,1.21527 4.2235,2.0592 6.2691,3.34653 2.46817,1.45964 4.99001,2.84571 7.51492,4.16893 3.20289,1.41234 3.44319-1.4342.24031-2.84656z"/>
<path d="m171.13147,119.37877c0,8.40118-6.52673,15.21169-14.57787,15.21169s-14.57786-6.81051-14.57786-15.21169 6.52673-15.21169 14.57786-15.21169 14.57787,6.81051 14.57787,15.21169z" fill="#f9f9f9" transform="matrix(1.23188,0,0,1.60417,401.07798,374.95675)"/>
<g transform="matrix(.66459,0,0,1,198.58384,436.19386)">
<path d="m171.13147,119.37877c0,8.40118-6.52673,15.21169-14.57787,15.21169s-14.57786-6.81051-14.57786-15.21169 6.52673-15.21169 14.57786-15.21169 14.57787,6.81051 14.57787,15.21169z" transform="matrix(.84258,0,0,.84258,471.14016,23.75489)"/>
<path d="m605.66314,134.60426c2.58606-.78514 3.89522-2.41527 3.26391-3.8335-5.04318-.3142-10.23043.56622-14.88229,1.11525 .76566,2.46016 7.25062,4.17951 11.61838,2.71825z" fill="url(#linearGradient5057)"/>
</g>
<path d="m171.13147,119.37877c0,8.40118-6.52673,15.21169-14.57787,15.21169s-14.57786-6.81051-14.57786-15.21169 6.52673-15.21169 14.57786-15.21169 14.57787,6.81051 14.57787,15.21169z" fill="#f9f9f9" transform="matrix(1.12319,0,0,1.60417,470.4772,380.11739)"/>
<g transform="matrix(.66459,0,0,1,219.05748,444.78614)">
<path d="m171.13147,119.37877c0,8.40118-6.52673,15.21169-14.57787,15.21169s-14.57786-6.81051-14.57786-15.21169 6.52673-15.21169 14.57786-15.21169 14.57787,6.81051 14.57787,15.21169z" transform="matrix(.84258,0,0,.84258,517.44315,22.03907)"/>
<path d="m653.23377,132.88844c2.58606-.78514 3.89522-2.41527 3.26391-3.8335-5.04318-.3142-10.23043.56622-14.88229,1.11525 .76566,2.46016 7.25062,4.17951 11.61838,2.71825z" fill="url(#linearGradient5418)"/>
</g>
<path d="m584.63095,618.82913c6.05899-.13054 12.05517-.0724 18.06049.77228 5.57411,1.02148 10.75429,3.2116 16.04052,5.13092 3.89093,1.77607 7.51746,4.07528 11.09542,6.40144 3.10162,1.86827 6.40442,3.36814 9.57135,5.11715 3.21656,1.53022 6.57375,2.8638 9.9583,4.00713 2.44177.72941 4.98333.94161 7.50935,1.15055 7.14515.60668 6.28716,10.71145-.85799,10.10476-3.35764-.29122-6.72685-.62961-9.95435-1.66716-3.95916-1.38311-7.9128-2.90207-11.65861-4.77431-3.30858-1.96642-6.94742-3.38004-10.18199-5.49264-2.85649-1.97211-5.90155-3.69638-8.96209-5.3218-4.62046-1.69738-9.13177-3.62191-13.98613-4.61571-5.52956-.79431-11.05205-.76799-16.63427-.67149-7.17086,0-7.17086-10.14112 0-10.14112z" stroke="#000" stroke-width="3"/>
</g>
<g transform="translate(-80.32912,-116.84349)">
<path d="m259.8663,144.73158c0,47.6067-38.87662,86.19956-86.83337,86.19956s-86.83338-38.59286-86.83338-86.19956 38.87663-86.19955 86.83338-86.19955 86.83337,38.59286 86.83337,86.19955z" filter="url(#filter4112)" opacity=".77" transform="matrix(.82542,0,-.16994,.18042,521.85688,868.71481)"/>
<path d="m259.8663,144.73158c0,47.6067-38.87662,86.19956-86.83337,86.19956s-86.83338-38.59286-86.83338-86.19956 38.87663-86.19955 86.83338-86.19955 86.83337,38.59286 86.83337,86.19955z" fill="#00f" transform="translate(460.24359,675.39383)"/>
<path d="m259.8663,144.73158c0,47.6067-38.87662,86.19956-86.83337,86.19956s-86.83338-38.59286-86.83338-86.19956 38.87663-86.19955 86.83338-86.19955 86.83337,38.59286 86.83337,86.19955z" fill="url(#radialGradient4911)" transform="translate(460.24359,675.39383)"/>
<path d="m635.77887,742.90341c-16.97304.16673-35.78645,5.21304-47.21875,18.1875 11.41222,42.17165 65.8215,66.53703 104.4375,44.96875 4.8731-2.76624 11.39862-5.548 14.15625-10.03125-8.59889-30.8005-39.23863-54.03831-71.375-53.125z" fill="url(#linearGradient5355)"/>
<path d="m569.63687,778.27065c1.94927-1.52526 3.94632-3.00495 5.85078-4.5957 1.74064-1.66573 3.86664-2.69411 5.64985-4.24913 1.65402-1.32519 3.15997-2.79316 4.72926-4.20758 .74214-.79082 1.55726-1.51793 2.37956-2.24447 2.69652-2.36166 4.50859-.4418 1.81209,1.9199-.80062.69109-1.55127,1.41263-2.28547,2.16097-1.66086,1.48812-3.25284,3.04194-4.99897,4.44125-1.86049,1.52021-3.85564,2.6856-5.67838,4.27284-2.21368,1.82262-4.49175,3.58084-6.78253,5.27742-2.94692,1.88915-3.6231-.88634-.67619-2.7755z"/>
<path d="m678.99589,779.65874c-2.16108-1.20659-4.36233-2.36077-6.48922-3.63897-1.97659-1.37753-4.2357-2.06594-6.23728-3.3275-1.83852-1.05442-3.55274-2.27273-5.32129-3.42836-.85517-.66694-1.77261-1.25976-2.69707-1.85087-3.02831-1.91781-4.52281.25841-1.49451,2.17626 .89757.55943 1.75046,1.15665 2.59124,1.78287 1.87039,1.21434 3.68285,2.50421 5.6238,3.61767 2.07257,1.21527 4.2235,2.0592 6.2691,3.34653 2.46817,1.45964 4.99001,2.84571 7.51492,4.16893 3.20289,1.41234 3.44319-1.4342.24031-2.84656z"/>
<path d="m171.13147,119.37877c0,8.40118-6.52673,15.21169-14.57787,15.21169s-14.57786-6.81051-14.57786-15.21169 6.52673-15.21169 14.57786-15.21169 14.57787,6.81051 14.57787,15.21169z" fill="#f9f9f9" transform="matrix(1.23188,0,0,1.60417,408.24884,600.83876)"/>
<g transform="matrix(.66459,0,0,1,202.16927,674.62487)">
<path d="m171.13147,119.37877c0,8.40118-6.52673,15.21169-14.57787,15.21169s-14.57786-6.81051-14.57786-15.21169 6.52673-15.21169 14.57786-15.21169 14.57787,6.81051 14.57787,15.21169z" transform="matrix(.84258,0,0,.84258,471.14016,23.75489)"/>
<path d="m605.66314,134.60426c2.58606-.78514 3.89522-2.41527 3.26391-3.8335-5.04318-.3142-10.23043.56622-14.88229,1.11525 .76566,2.46016 7.25062,4.17951 11.61838,2.71825z" fill="url(#linearGradient5057)"/>
</g>
<path d="m171.13147,119.37877c0,8.40118-6.52673,15.21169-14.57787,15.21169s-14.57786-6.81051-14.57786-15.21169 6.52673-15.21169 14.57786-15.21169 14.57787,6.81051 14.57787,15.21169z" fill="#f9f9f9" transform="matrix(1.12319,0,0,1.60417,477.64806,605.9994)"/>
<g transform="matrix(.66459,0,0,1,217.26477,668.87544)">
<path d="m171.13147,119.37877c0,8.40118-6.52673,15.21169-14.57787,15.21169s-14.57786-6.81051-14.57786-15.21169 6.52673-15.21169 14.57786-15.21169 14.57787,6.81051 14.57787,15.21169z" transform="matrix(.84258,0,0,.84258,517.44315,22.03907)"/>
<path d="m653.23377,132.88844c2.58606-.78514 3.89522-2.41527 3.26391-3.8335-5.04318-.3142-10.23043.56622-14.88229,1.11525 .76566,2.46016 7.25062,4.17951 11.61838,2.71825z" fill="url(#linearGradient5418)"/>
</g>
<path d="m603.57633,862.26593c3.49819-3.31986 7.02687-6.44253 10.84114-8.88663 3.625-2.06228 7.43595-2.90066 11.21244-4.03045 2.90916-.51588 5.85004-.43728 8.77211-.30956 2.48024-.018 4.94691-.46266 7.42287-.61891 2.42702-.37261 4.86626-.99051 7.25372-1.78819 1.68841-.65841 3.25091-1.81903 4.80317-2.97426 4.39631-3.25409 7.49484,5.97995 3.09853,9.23403-2.06809,1.52384-4.15976,3.01281-6.41765,3.81928-2.80906.89343-5.66329,1.66589-8.52182,2.0214-2.63629.0423-5.26882.7397-7.9139.61581-2.37383-.20189-4.76968-.0886-7.13935.11868-3.30792.97031-6.63292,1.68549-9.82698,3.39092-3.51799,2.23609-6.73945,5.18148-9.97084,8.21946-4.19519,3.79484-7.80862-5.01674-3.61344-8.81158z" stroke="#000" stroke-width="2.50441"/>
</g>
<g transform="translate(-33.25453,-33.17922)">
<path d="m259.8663,144.73158c0,47.6067-38.87662,86.19956-86.83337,86.19956s-86.83338-38.59286-86.83338-86.19956 38.87663-86.19955 86.83338-86.19955 86.83337,38.59286 86.83337,86.19955z" filter="url(#filter4112)" opacity=".77" transform="matrix(.82542,0,-.16994,.18042,21.34467,996.55354)"/>
<path d="m259.8663,144.73158c0,47.6067-38.87662,86.19956-86.83337,86.19956s-86.83338-38.59286-86.83338-86.19956 38.87663-86.19955 86.83338-86.19955 86.83337,38.59286 86.83337,86.19955z" fill="#00f" transform="translate(-40.26862,803.23254)"/>
<path d="m259.8663,144.73158c0,47.6067-38.87662,86.19956-86.83337,86.19956s-86.83338-38.59286-86.83338-86.19956 38.87663-86.19955 86.83338-86.19955 86.83337,38.59286 86.83337,86.19955z" fill="url(#radialGradient4911)" transform="translate(-40.26862,803.23254)"/>
<path d="m135.26665,870.74212c-16.97304.16673-35.78645,5.21304-47.21875,18.1875 11.41222,42.17162 65.8215,66.53702 104.4375,44.96872 4.8731-2.7662 11.39862-5.548 14.15625-10.0312-8.59889-30.80052-39.23863-54.03833-71.375-53.12502z" fill="url(#linearGradient5382)"/>
<path d="m82.51232,890.18443c2.47387.076 4.95532.2183 7.43677.2156 2.40356-.1651 4.69513.406 7.06052.3532 2.11902.041 4.2157-.1225 6.32676-.2043 1.07641-.1323 2.16809-.169 3.26492-.2006 3.58342-.088 3.74624,2.5472.1628,2.6349-1.05748.018-2.09607.092-3.13917.1968-2.22858.08-4.44636.2542-6.68358.2112-2.40247-.023-4.68123-.4056-7.09761-.3533-2.86739-.017-5.74302-.1251-8.58897-.2885-3.47329-.4355-2.21573-3.0005 1.25755-2.565z"/>
<path d="m167.84674,895.43024c-2.47503-.02-4.9601.026-7.43955-.073-2.39536-.2582-4.70735.2236-7.06893.079-2.11901-.041-4.20777-.2859-6.31405-.4495-1.07048-.174-2.15991-.2531-3.25468-.3272-3.57732-.2267-3.84226,2.3999-.26489,2.6267 1.05595.059 2.09089.1732 3.12914.3183 2.22385.1663 4.43317.4266 6.67036.4703 2.40159.07 4.69343-.2236 7.10596-.078 2.86596.094 5.74362.098 8.59375.045 3.48752-.3005 2.33045-2.9123-1.15711-2.6119z"/>
<path d="m171.13147,119.37877c0,8.40118-6.52673,15.21169-14.57787,15.21169s-14.57786-6.81051-14.57786-15.21169 6.52673-15.21169 14.57786-15.21169 14.57787,6.81051 14.57787,15.21169z" fill="#f9f9f9" transform="matrix(1.23188,0,0,1.60417,-96.74516,729.57383)"/>
<g transform="matrix(.66459,0,0,1,-308.20288,790.81094)">
<path d="m171.13147,119.37877c0,8.40118-6.52673,15.21169-14.57787,15.21169s-14.57786-6.81051-14.57786-15.21169 6.52673-15.21169 14.57786-15.21169 14.57787,6.81051 14.57787,15.21169z" transform="matrix(.84258,0,0,.84258,471.14016,23.75489)"/>
<path d="m605.66314,134.60426c2.58606-.78514 3.89522-2.41527 3.26391-3.8335-5.04318-.3142-10.23043.56622-14.88229,1.11525 .76566,2.46016 7.25062,4.17951 11.61838,2.71825z" fill="url(#linearGradient5057)"/>
</g>
<path d="m171.13147,119.37877c0,8.40118-6.52673,15.21169-14.57787,15.21169s-14.57786-6.81051-14.57786-15.21169 6.52673-15.21169 14.57786-15.21169 14.57787,6.81051 14.57787,15.21169z" fill="#f9f9f9" transform="matrix(1.12319,0,0,1.60417,-22.86415,733.83811)"/>
<g transform="matrix(.66459,0,0,1,-282.35109,794.92144)">
<path d="m171.13147,119.37877c0,8.40118-6.52673,15.21169-14.57787,15.21169s-14.57786-6.81051-14.57786-15.21169 6.52673-15.21169 14.57786-15.21169 14.57787,6.81051 14.57787,15.21169z" transform="matrix(.84258,0,0,.84258,517.44315,22.03907)"/>
<path d="m653.23377,132.88844c2.58606-.78514 3.89522-2.41527 3.26391-3.8335-5.04318-.3142-10.23043.56622-14.88229,1.11525 .76566,2.46016 7.25062,4.17951 11.61838,2.71825z" fill="url(#linearGradient5418)"/>
</g>
<path d="m171.13147,119.37877c0,8.40118-6.52673,15.21169-14.57787,15.21169s-14.57786-6.81051-14.57786-15.21169 6.52673-15.21169 14.57786-15.21169 14.57787,6.81051 14.57787,15.21169z" transform="matrix(2.94672,0,0,2.08333,-329.70569,747.55531)"/>
<path d="m117.41519,966.47954c0,0 5.86285-1.2677 8.16045-1.4261 2.80243-.1933 5.96928-1.2241 6.02129,1.5845l.23768,12.8349c.052,2.8086-2.26147,5.0706-5.07056,5.0706h-8.87349c-2.80909,0-5.07056-2.2615-5.07056-5.0706v-9.5073c0-2.8091 2.78793-3.1702 4.59519-3.486z" fill="#fff"/>
<path d="m147.83944,966.79644c0,0-5.86285-1.2677-8.16045-1.4261-2.80243-.1933-5.96928-1.2241-6.02129,1.5845l-.23768,12.8349c-.052,2.8086 2.26147,5.0706 5.07056,5.0706h8.87349c2.80909,0 5.07056-2.2615 5.07056-5.0706v-9.5073c0-2.8091-2.78793-3.1702-4.59519-3.486z" fill="#fff"/>
</g>
<g transform="translate(-57.97351,-123.18168)">
<path d="m259.8663,144.73158c0,47.6067-38.87662,86.19956-86.83337,86.19956s-86.83338-38.59286-86.83338-86.19956 38.87663-86.19955 86.83338-86.19955 86.83337,38.59286 86.83337,86.19955z" filter="url(#filter4112)" opacity=".77" transform="matrix(.82542,0,-.16994,.18042,265.99928,1091.6266)"/>
<path d="m259.8663,144.73158c0,47.6067-38.87662,86.19956-86.83337,86.19956s-86.83338-38.59286-86.83338-86.19956 38.87663-86.19955 86.83338-86.19955 86.83337,38.59286 86.83337,86.19955z" fill="#00f" transform="translate(204.38599,898.30558)"/>
<path d="m259.8663,144.73158c0,47.6067-38.87662,86.19956-86.83337,86.19956s-86.83338-38.59286-86.83338-86.19956 38.87663-86.19955 86.83338-86.19955 86.83337,38.59286 86.83337,86.19955z" fill="url(#radialGradient4911)" transform="translate(204.38599,898.30558)"/>
<path d="m379.92127,965.81516c-16.97304.16673-35.78645,5.21304-47.21875,18.1875 11.41222,42.17164 65.8215,66.53704 104.4375,44.96874 4.8731-2.7662 11.39862-5.548 14.15625-10.0312-8.59889-30.80054-39.23863-54.03835-71.375-53.12504z" fill="url(#linearGradient5414)"/>
<path d="m330.33604,987.79275c2.47387.076 4.95532.2183 7.43677.2156 2.40356-.1651 4.69513.406 7.06052.3532 2.11902.041 4.2157-.1225 6.32676-.2043 1.07641-.1323 2.16809-.169 3.26492-.2006 3.58342-.088 3.74624,2.5472.1628,2.6349-1.05748.018-2.09607.092-3.13917.1968-2.22858.08-4.44636.2542-6.68358.2112-2.40247-.023-4.68123-.4056-7.09761-.3533-2.86739-.017-5.74302-.1251-8.58897-.2885-3.47329-.4355-2.21573-3.0005 1.25756-2.565z"/>
<path d="m415.67046,993.03856c-2.47503-.02-4.9601.026-7.43955-.073-2.39536-.2582-4.70735.2236-7.06893.079-2.11901-.041-4.20777-.2859-6.31405-.4495-1.07048-.174-2.15991-.2531-3.25468-.3272-3.57732-.2267-3.84226,2.3999-.26489,2.6267 1.05595.059 2.09089.1732 3.12914.3183 2.22385.1663 4.43317.4266 6.67036.4703 2.40159.07 4.69343-.2236 7.10596-.078 2.86596.094 5.74362.098 8.59375.045 3.48752-.3005 2.33045-2.9123-1.15711-2.6119z"/>
<path d="m171.13147,119.37877c0,8.40118-6.52673,15.21169-14.57787,15.21169s-14.57786-6.81051-14.57786-15.21169 6.52673-15.21169 14.57786-15.21169 14.57787,6.81051 14.57787,15.21169z" fill="#f9f9f9" transform="matrix(1.23188,0,0,1.60417,147.90946,824.64687)"/>
<g transform="matrix(.66459,0,0,1,-52.13949,896.0251)">
<path d="m171.13147,119.37877c0,8.40118-6.52673,15.21169-14.57787,15.21169s-14.57786-6.81051-14.57786-15.21169 6.52673-15.21169 14.57786-15.21169 14.57787,6.81051 14.57787,15.21169z" transform="matrix(.84258,0,0,.84258,471.14016,23.75489)"/>
<path d="m605.66314,134.60426c2.58606-.78514 3.89522-2.41527 3.26391-3.8335-5.04318-.3142-10.23043.56622-14.88229,1.11525 .76566,2.46016 7.25062,4.17951 11.61838,2.71825z" fill="url(#linearGradient5057)"/>
</g>
<path d="m171.13147,119.37877c0,8.40118-6.52673,15.21169-14.57787,15.21169s-14.57786-6.81051-14.57786-15.21169 6.52673-15.21169 14.57786-15.21169 14.57787,6.81051 14.57787,15.21169z" fill="#f9f9f9" transform="matrix(1.37319,0,0,.85417,184.71197,925.41729)"/>
<g transform="matrix(.9484,0,0,.6662,-209.94549,945.97961)">
<path d="m171.13147,119.37877c0,8.40118-6.52673,15.21169-14.57787,15.21169s-14.57786-6.81051-14.57786-15.21169 6.52673-15.21169 14.57786-15.21169 14.57787,6.81051 14.57787,15.21169z" transform="matrix(.84258,0,0,.84258,517.44315,22.03907)"/>
<path d="m653.23377,132.88844c2.58606-.78514 3.89522-2.41527 3.26391-3.8335-5.04318-.3142-10.23043.56622-14.88229,1.11525 .76566,2.46016 7.25062,4.17951 11.61838,2.71825z" fill="url(#linearGradient5418)"/>
</g>
<path d="m171.13147,119.37877c0,8.40118-6.52673,15.21169-14.57787,15.21169s-14.57786-6.81051-14.57786-15.21169 6.52673-15.21169 14.57786-15.21169 14.57787,6.81051 14.57787,15.21169z" transform="matrix(2.94672,0,0,.9375,-82.51579,982.26872)"/>
<path d="m361.7899,1090.7819c0,0-2.8129.228-4.39861.3235-1.48104.089-2.82714.6014-3.10818-.8554l-1.00094-5.1885c-.28104-1.4568.80491-2.8198 2.27379-3.0291l4.63997-.6608c1.46888-.2092 2.81988.8049 3.02909,2.2738l.70809,4.9714c.20921,1.4689-1.22167,1.8654-2.14321,2.1651z" fill="#fff"/>
<path d="m367.29585,1090.249c0,0 3.65125-.1228 5.65709-.5144 1.45621-.2844 2.11268-.8591 2.07116-2.3423l-.11214-4.0062c-.0415-1.4831-.88206-3.4273-2.36128-3.312l-5.08298.3961c-3.53292.2754-3.62246,1.4503-3.39124,2.9159l.79228,5.0216c.23123,1.4656 1.47254,1.6745 2.42711,1.8413z" fill="#fff"/>
<path d="m383.09761,1089.6475c0,0-2.80839-.2782-4.38565-.4674-1.47312-.177-2.8891.087-2.90539-1.3969l-.058-5.2839c-.0163-1.4835 1.29567-2.6306 2.77832-2.5742l4.68338.1787c1.48262.057 2.63074,1.2957 2.57419,2.7783l-.19135,5.018c-.0565,1.4826-1.53524,1.6171-2.49549,1.7474z" fill="#fff"/>
<path d="m388.61019,1090.1067c0,0 3.61446.5314 5.65799.5044 1.4836-.02 2.23217-.4679 2.45626-1.9346l.6053-3.9618c.2241-1.4667-.25565-3.5298-1.73167-3.6806l-5.07198-.5182c-3.52529-.3601-3.82327.7799-3.85757,2.2632l-.11748,5.0824c-.0343,1.4833 1.14973,1.9106 2.05915,2.2452z" fill="#fff"/>
<path d="m399.18001,1091.2582c0,0 3.52524.9588 5.55739,1.1759 1.47539.1571 2.27205-.1983 2.66954-1.6278l1.07367-3.8612c.3975-1.4295.16733-3.5351-1.28015-3.8609l-4.97392-1.1197c-3.45714-.7782-3.88901.3182-4.10005,1.7868l-.72304,5.032c-.21103,1.4687.91356,2.0342 1.77656,2.4749z" fill="#fff"/>
<path d="m351.77541,1090.9676c0,0-2.09689.4236-3.28194.6378-1.10688.1993-2.07415.706-2.41627-.3654l-1.21849-3.8158c-.34213-1.0714.35311-2.1946 1.44002-2.4838l3.43338-.9134c1.08689-.289 2.19474.3532 2.48388,1.4401l.97859,3.6787c.28915,1.0868-.75235,1.5136-1.41917,1.8218z" fill="#fff"/>
<path d="m409.21342,1092.8109c0,0 2.69475.7329 4.24815.8989 1.12781.1201 1.73679-.1516 2.04064-1.2443l.82073-2.9516c.30386-1.0927.12791-2.7023-.97856-2.9513l-3.80215-.8559c-2.64269-.5949-2.97282.2432-3.13414,1.3658l-.5527,3.8466c-.16132,1.1227.69834,1.5549 1.35803,1.8918z" fill="#fff"/>
</g>
<g transform="translate(-82.31481,-100.36416)">
<path d="m259.8663,144.73158c0,47.6067-38.87662,86.19956-86.83337,86.19956s-86.83338-38.59286-86.83338-86.19956 38.87663-86.19955 86.83338-86.19955 86.83337,38.59286 86.83337,86.19955z" filter="url(#filter4112)" opacity=".77" transform="matrix(.82542,0,-.16994,.18042,518.77201,1071.9067)"/>
<path d="m259.8663,144.73158c0,47.6067-38.87662,86.19956-86.83337,86.19956s-86.83338-38.59286-86.83338-86.19956 38.87663-86.19955 86.83338-86.19955 86.83337,38.59286 86.83337,86.19955z" fill="#00f" transform="translate(457.15872,878.58572)"/>
<path d="m259.8663,144.73158c0,47.6067-38.87662,86.19956-86.83337,86.19956s-86.83338-38.59286-86.83338-86.19956 38.87663-86.19955 86.83338-86.19955 86.83337,38.59286 86.83337,86.19955z" fill="url(#radialGradient4911)" transform="translate(457.15872,878.58572)"/>
<path d="m627.15339,946.09067c-17.97087.13704-37.89031,4.28475-49.9947,14.94885 12.08313,34.66212 69.69109,54.68878 110.57729,36.96114 5.15958-2.27363 12.06873-4.56007 14.98848-8.24492-9.10441-25.31589-41.54543-44.41575-75.57107-43.66507z" fill="url(#linearGradient4913)"/>
<path d="m583.55695,965.832c2.47387.076 4.95532.2183 7.43677.2156 2.40356-.1651 4.69513.406 7.06052.3532 2.11902.041 4.2157-.1225 6.32676-.2043 1.07641-.1323 2.16809-.169 3.26492-.2006 3.58342-.088 3.74624,2.5472.1628,2.6349-1.05748.018-2.09607.092-3.13917.1968-2.22858.08-4.44636.2542-6.68358.2112-2.40247-.023-4.68123-.4056-7.09761-.3533-2.86739-.017-5.74302-.1251-8.58897-.2885-3.47329-.4355-2.21573-3.0005 1.25756-2.565z"/>
<path d="m668.44319,966.14784c-2.47503-.02-4.9601.026-7.43955-.073-2.39536-.2582-4.70735.2236-7.06893.079-2.11901-.041-4.20777-.2859-6.31405-.4495-1.07048-.174-2.15991-.2531-3.25468-.3272-3.57732-.2267-3.84226,2.3999-.26489,2.6267 1.05595.059 2.09089.1732 3.12914.3183 2.22385.1663 4.43317.4266 6.67036.4703 2.40159.07 4.69343-.2236 7.10596-.078 2.86596.094 5.74362.098 8.59375.045 3.48752-.3005 2.33045-2.9123-1.15711-2.6119z"/>
<path d="m171.13147,119.37877c0,8.40118-6.52673,15.21169-14.57787,15.21169s-14.57786-6.81051-14.57786-15.21169 6.52673-15.21169 14.57786-15.21169 14.57787,6.81051 14.57787,15.21169z" fill="#f9f9f9" transform="matrix(1.07351,0,0,1.39793,431.76142,837.61484)"/>
<g transform="matrix(.66459,0,0,1,201.60774,874.9607)">
<path d="m171.13147,119.37877c0,8.40118-6.52673,15.21169-14.57787,15.21169s-14.57786-6.81051-14.57786-15.21169 6.52673-15.21169 14.57786-15.21169 14.57787,6.81051 14.57787,15.21169z" transform="matrix(.84258,0,0,.84258,471.14016,23.75489)"/>
<path d="m605.66314,134.60426c2.58606-.78514 3.89522-2.41527 3.26391-3.8335-5.04318-.3142-10.23043.56622-14.88229,1.11525 .76566,2.46016 7.25062,4.17951 11.61838,2.71825z" fill="url(#linearGradient5057)"/>
</g>
<path d="m171.13147,119.37877c0,8.40118-6.52673,15.21169-14.57787,15.21169s-14.57786-6.81051-14.57786-15.21169 6.52673-15.21169 14.57786-15.21169 14.57787,6.81051 14.57787,15.21169z" transform="matrix(2.94672,0,0,.33351,170.25694,1025.4644)"/>
<path d="m622.30947,1076.8036c0,0 3.65125-.2081 5.65709-.8717 1.45621-.4819 2.11268-1.4557 2.07116-3.9689l-.11214-6.7883c-.0415-2.5131-.88206-5.8074-2.36128-5.612l-5.08298.6711c-3.53292.4667-3.62246,2.4575-3.39124,4.9409l.79228,8.5089c.23123,2.4834 1.47254,2.8373 2.42711,3.12z" fill="#fff"/>
<path d="m638.11123,1075.7843c0,0-2.80839-.4714-4.38565-.7919-1.47312-.3-2.8891.1474-2.90539-2.367l-.058-8.9534c-.0163-2.5137 1.29567-4.4574 2.77832-4.3618l4.68338.3028c1.48262.097 2.63074,2.1955 2.57419,4.7077l-.19135,8.5028c-.0565,2.5122-1.53524,2.7401-2.49549,2.9608z" fill="#fff"/>
<path d="m171.13147,119.37877c0,8.40118-6.52673,15.21169-14.57787,15.21169s-14.57786-6.81051-14.57786-15.21169 6.52673-15.21169 14.57786-15.21169 14.57787,6.81051 14.57787,15.21169z" fill="#f9f9f9" transform="matrix(.99665,0,0,1.29784,505.51289,846.60379)"/>
<g transform="matrix(.66459,0,0,1,260.59908,872.27163)">
<path d="m171.13147,119.37877c0,8.40118-6.52673,15.21169-14.57787,15.21169s-14.57786-6.81051-14.57786-15.21169 6.52673-15.21169 14.57786-15.21169 14.57787,6.81051 14.57787,15.21169z" transform="matrix(.84258,0,0,.84258,471.14016,23.75489)"/>
<path d="m605.66314,134.60426c2.58606-.78514 3.89522-2.41527 3.26391-3.8335-5.04318-.3142-10.23043.56622-14.88229,1.11525 .76566,2.46016 7.25062,4.17951 11.61838,2.71825z" fill="url(#linearGradient5057)"/>
</g>
<g transform="translate(-2.4150247e-8,-1.26764)">
<path d="m611.76381,1006.4239c0,16.2127-13.44398,29.3557-30.02797,29.3557s-30.02797-13.143-30.02797-29.3557 13.44398-29.35571 30.02797-29.35571 30.02797,13.143 30.02797,29.35571z" fill="url(#linearGradient5059)" transform="translate(15.68625,-2.2409)"/>
<path d="m597.69427,973.03438c-17.72334,0-32.09375,14.0484-32.09375,31.37492s14.37041,31.375 32.09375,31.375 32.09375-14.0485 32.09375-31.375-14.3704-31.37492-32.09375-31.37492zm-.5625,4.4687c15.19144,0 27.53125,12.0549 27.53125,26.90622s-12.33981,26.875-27.53125,26.875-27.5-12.0237-27.5-26.875 12.30856-26.90622 27.5-26.90622z"/>
<path d="m611.76381,1006.4239c0,16.2127-13.44398,29.3557-30.02797,29.3557s-30.02797-13.143-30.02797-29.3557 13.44398-29.35571 30.02797-29.35571 30.02797,13.143 30.02797,29.35571z" fill="url(#linearGradient5059)" opacity=".44" transform="translate(15.68625,-2.2409)"/>
<path d="m596.59375,978.5625c-6.90551.38045-14.22276,3.00274-18.1875,8.84375 11.43304,11.83659 29.33397,13.95695 45.0625,12.4375-2.44488-12.30904-14.21796-21.90471-26.875-21.28125z" fill="url(#linearGradient5063)" opacity=".44"/>
</g>
<g transform="translate(65.28349,-2.53528)">
<path d="m611.76381,1006.4239c0,16.2127-13.44398,29.3557-30.02797,29.3557s-30.02797-13.143-30.02797-29.3557 13.44398-29.35571 30.02797-29.35571 30.02797,13.143 30.02797,29.35571z" fill="url(#linearGradient5059)" transform="translate(15.68625,-2.2409)"/>
<path d="m597.69427,973.03438c-17.72334,0-32.09375,14.0484-32.09375,31.37492s14.37041,31.375 32.09375,31.375 32.09375-14.0485 32.09375-31.375-14.3704-31.37492-32.09375-31.37492zm-.5625,4.4687c15.19144,0 27.53125,12.0549 27.53125,26.90622s-12.33981,26.875-27.53125,26.875-27.5-12.0237-27.5-26.875 12.30856-26.90622 27.5-26.90622z"/>
<path d="m611.76381,1006.4239c0,16.2127-13.44398,29.3557-30.02797,29.3557s-30.02797-13.143-30.02797-29.3557 13.44398-29.35571 30.02797-29.35571 30.02797,13.143 30.02797,29.35571z" fill="url(#linearGradient5059)" opacity=".44" transform="translate(15.68625,-2.2409)"/>
<path d="m596.59375,978.5625c-6.90551.38045-14.22276,3.00274-18.1875,8.84375 11.43304,11.83659 29.33397,13.95695 45.0625,12.4375-2.44488-12.30904-14.21796-21.90471-26.875-21.28125z" fill="url(#linearGradient5063)" opacity=".44"/>
</g>
<path d="m692.44897,991.51544c1.33674.0268 2.69421-.0522 3.99391-.422 1.02842-.16944 1.84795-.77015 2.74344-1.29213 .75254-.62783 1.64176-.96986 2.49236-1.39018 .81878-.2514 1.56979-.59134 2.30107-1.06183 .89576-.4595 1.77205-.94059 2.76076-1.05954 1.50536.072 2.07598,1.32636 2.66467,2.65107 .57544.73647.91229,1.64692 1.29896,2.5121 .3257,1.0389.82555,1.98404 1.22695,2.98395 .33618,1.01989.72217,2.01839 1.0758,3.03225 .22445.76938.10258.43124.34356,1.02394 .64235,1.64373-1.44421,2.65573-2.08656,1.01203-.29921-.78538-.17729-.41043-.37884-1.11948-.33957-.97819-.71072-1.94244-1.03595-2.9251-.37682-.96912-.88265-1.87231-1.18334-2.88027-.38924-.87655-.74649-1.75679-1.30413-2.52377-.14913-.34172-.4285-.86957-.43673-1.23978-.64687.00056-1.199.52236-1.80705.72807-.7992.51418-1.62101.9266-2.51731,1.18432-.81091.39974-1.64826.72245-2.36555,1.32228-1.05634.60496-2.05692,1.29165-3.25657,1.50615-1.4825.38496-3.00721.54325-4.52945.4932-1.60919,0-1.60919-2.53528 0-2.53528z"/>
<path d="m566.14959,997.12676c-1.58196-.2272-3.15785-.4281-4.70616-.87254-1.4027-.37384-2.74904-.94844-4.10796-1.48004-1.23516-.457-2.50164-.81912-3.73235-1.28867-1.00748-.24814-1.82313-.93818-2.72548-1.44704-.42484-.0724-.0405.048.10449.0266 .31175-.0459.13107.12532-.0219.53146-.39301.85158-.69051,1.74379-1.02613,2.62424-.33317.91997-.67374,1.84036-1.079,2.72343-.31807.80529-.74571,1.54929-.96822,2.399-.14.6367-.17257,1.293-.20714,1.9451-.0972,1.7893-2.33837,1.6341-2.24115-.1553 .0475-.8559.10048-1.716.3053-2.54664 .28523-.99637.73154-1.89821 1.13166-2.83872 .4073-.80897.67296-1.70505 1.00565-2.55385 .35312-.8572.62852-1.75778 1.01569-2.59719 .66335-1.72347 1.21023-2.52336 3.00074-1.81673 .80996.4731 1.52893,1.08857 2.44024,1.30994 1.2207.49465 2.50494.81339 3.7332,1.289 1.30143.50998 2.5897,1.06386 3.93365,1.42061 1.482.44028 3.00002.58826 4.51398.82653 1.5661.29472 1.19696,2.79551-.36914,2.50079z"/>
<path d="m628.74968,997.85364h2.21837c1.93125,0 3.48602,1.55476 3.48602,3.48596v1.9015c0,1.9313-1.55477,3.486-3.48602,3.486h-2.21837c-1.93125,0-3.48601-1.5547-3.48601-3.486v-1.9015c0-1.9312 1.55476-3.48596 3.48601-3.48596z"/>
</g>
</svg>
