<?xml version="1.0" encoding="UTF-8" standalone="no"?>
<svg enable-background="new" viewBox="0 0 634.56207 349.20621" xmlns="http://www.w3.org/2000/svg">
<defs>
<clipPath id="clipPath3582">
<path d="m47.6907,33.2649h634.5621v349.2062h-634.5621z"/>
</clipPath>
<filter id="filter4493">
<feGaussianBlur stdDeviation="1.757"/>
</filter>
<filter height="1.4439" id="filter4264" width="1.4756" x="-.2378" y="-.2219">
<feGaussianBlur stdDeviation=".44"/>
</filter>
<filter height="2.0942" id="filter4457" width="1.56" x="-.28" y="-.5471">
<feGaussianBlur stdDeviation="14.92"/>
</filter>
<filter height="2.4684" id="filter5007" width="2.2786" x="-.6393" y="-.7342">
<feGaussianBlur stdDeviation="34.338"/>
</filter>
<filter height="3.1363" id="filter5077" width="3.0003" x="-1.0002" y="-1.0681">
<feGaussianBlur stdDeviation="35.536"/>
</filter>
<radialGradient cx="117.9372" cy="569.3676" gradientTransform="matrix(1.88519,-.76125,.15449,.38259,-231.72842,131.59505)" gradientUnits="userSpaceOnUse" id="radialGradient3586" r="112.5128">
<stop offset="0" stop-color="#445d69"/>
<stop offset="1" stop-color="#445d69" stop-opacity="0"/>
</radialGradient>
<radialGradient cx="540.5064" cy="483.5978" gradientTransform="matrix(-.70654,-.49789,.97609,-1.38514,410.99094,1164.9966)" gradientUnits="userSpaceOnUse" id="radialGradient3588" r="85.9548">
<stop offset="0" stop-color="#93a1a2"/>
<stop offset="1" stop-color="#93a1a2" stop-opacity="0"/>
</radialGradient>
<radialGradient cx="678.0845" cy="437.2047" gradientTransform="matrix(-.42997,-1.063,1.39323,-.56354,331.67085,1150.8213)" gradientUnits="userSpaceOnUse" id="radialGradient3590" r="37.0469">
<stop offset="0" stop-color="#2e251e"/>
<stop offset="1" stop-color="#2e251e" stop-opacity="0"/>
</radialGradient>
<radialGradient cx="656.3291" cy="406.6347" gradientTransform="matrix(-1.45948,-.91329,.80772,-1.29078,1246.4125,1279.4411)" gradientUnits="userSpaceOnUse" id="radialGradient3592" r="14.4072">
<stop offset="0" stop-color="#251e18"/>
<stop offset="1" stop-color="#251e18" stop-opacity="0"/>
</radialGradient>
<radialGradient cx="313.303" cy="570.953" gradientTransform="matrix(1.05698,-.33479,.06785,.21422,-91.77406,187.52236)" gradientUnits="userSpaceOnUse" id="radialGradient3594" r="187.5214">
<stop offset="0" stop-color="#181310"/>
<stop offset="1" stop-color="#181310" stop-opacity="0"/>
</radialGradient>
<radialGradient cx="550.9697" cy="424.7528" gradientTransform="matrix(-1.39605,-.6123,.1955,-.44574,1195.509,691.3329)" gradientUnits="userSpaceOnUse" id="radialGradient3596" r="25.8414">
<stop offset="0" stop-color="#25241f"/>
<stop offset="1" stop-color="#25241f" stop-opacity="0"/>
</radialGradient>
<radialGradient cx="646.8355" cy="411.2113" gradientTransform="matrix(-1.42434,-.16212,.03833,-.33674,1513.0172,391.52277)" gradientUnits="userSpaceOnUse" id="radialGradient3598" r="54.6556">
<stop offset="0" stop-color="#2e352d"/>
<stop offset="1" stop-color="#2e352d" stop-opacity="0"/>
</radialGradient>
<radialGradient cx="444.9367" cy="392.8296" gradientTransform="matrix(.86683,-.11904,.06893,.50192,-7.19572,-9.31068)" gradientUnits="userSpaceOnUse" id="radialGradient3600" r="44.2607">
<stop offset="0" stop-color="#669ba3"/>
<stop offset="1" stop-color="#669ba3" stop-opacity="0"/>
</radialGradient>
<radialGradient cx="277.8548" cy="457.4846" gradientTransform="matrix(-1.4229,.43256,-.132,-.43422,711.89641,248.42333)" gradientUnits="userSpaceOnUse" id="radialGradient3602" r="39.394">
<stop offset="0" stop-color="#364b4e"/>
<stop offset="1" stop-color="#364b4e" stop-opacity="0"/>
</radialGradient>
<radialGradient cx="183.7209" cy="328.5775" gradientTransform="matrix(2.51948,.30187,-.12233,.89516,-327.53123,-233.08813)" gradientUnits="userSpaceOnUse" id="radialGradient3604" r="42.7857">
<stop offset="0" stop-color="#afc6e9"/>
<stop offset="1" stop-color="#afc6e9" stop-opacity="0"/>
</radialGradient>
</defs>
<g clip-path="url(#clipPath3582)" transform="translate(-47.6907,-33.2649)">
<g transform="translate(-39.3701,-251.0101)">
<path d="m84.7095,282.61h638.391v352.3427h-638.391z" fill="#afc6e9" opacity=".482"/>
</g>
<path d="m536.0623,206.3751-4.7187,7.375-24.75,15.25-48.9375,15.7813-86.8438,16.3125-81.0624,10.5313-101.0313,5.2813-108.9688-3.1563-8.4063-7.9063-13.625-12.9375-1.3438,1.7188 1.2813,6.8438 23.2188,20.6563 46.7813,2.25 85.1563.3438 78.4063-5.5 37.7187-4.5 31.9376-3.875 48.4062-9.375 40.3125-8.375 30.3125-8.375 25.5-9.0313 21.2812-10.9688 9.0313-10.6563 .625-7.4375-.2813-.25z" fill="#010000"/>
<path d="m295.8219,179.7616c-17.0158,6.5598-34.0919,12.9634-51.2254,19.2095-25.5522,9.3152-51.2306,18.2799-76.838,27.4422-17.9445,6.4205-35.8595,12.94-53.5122,20.1242-12.72,5.1767-25.2975,10.696-37.9616,16.0079-1.8277.7666-3.6572,1.5289-5.4884,2.2868l8.69-5.0311c13.8493-6.6068 27.723-13.1625 41.6206-19.6669 23.8653-11.1696 47.8137-22.1933 72.2643-32.0158 21.4924-8.6341 43.3488-16.3305 64.9464-24.6979 9.5038-3.682 18.9573-7.4939 28.3569-11.4342l9.1474,7.7753" fill="url(#radialGradient3586)"/>
<path d="m379.5203,157.3505c-17.8021,5.7516-35.6399,11.3927-53.5121,16.9227-12.6678,3.9196-25.3536,7.7838-37.9616,11.8916-10.2688,3.3457-20.4851,6.8528-30.6437,10.5195l10.5195.9147c3.6576-1.0717 7.3166-2.1389 10.9768-3.2016 9.593-2.7852 19.195-5.5397 28.8143-8.2326 8.5116-2.3828 17.0375-4.7176 25.6126-6.8605 15.2622-3.814 30.6767-7.019 46.1943-9.6047l-.0001-12.349" fill="#251d16"/>
<path d="m271.5813,198.0564 69.9775-19.2095 40.7058-7.7753 25.1553,4.1163c-3.3591.8962-6.7132,1.8109-10.0621,2.7442-3.8127,1.0626-7.6187,2.1491-11.4342,3.2016-5.3116,1.4651-10.6421,2.8642-16.0079,4.1163-9.0855,2.1201-18.2636,3.8167-27.4422,5.4884-10.2092,1.8594-20.4238,3.6889-30.6437,5.4884l-20.5816,1.8295h-19.6669" fill="#0e0d0b"/>
<path d="m381.3499,157.3505-.4574,12.349 25.6127,3.6589-5.9458-6.4032-10.9769-5.9458-8.2326-3.659" fill="#000004"/>
<path d="m279.3566,223.2116 21.9537-4.5737c13.5951-3.7162 27.1642-7.5277 40.7058-11.4342 11.4491-3.3029 22.8786-6.6737 34.3027-10.0621 11.144-3.3054 22.2831-6.6277 33.388-10.0621 6.4036-1.9805 12.7958-3.9982 19.2095-5.9458 4.108-1.2474 8.2247-2.4661 12.3489-3.6589 4.8684-1.4081 9.7472-2.7803 14.6359-4.1163l5.031-.9147v2.7442c-6.074,1.9089-12.173,3.7386-18.2947,5.4884-11.4169,3.2634-22.9127,6.2489-34.3027,9.6047-19.4727,5.7373-38.6151,12.551-58.0859,18.2948-14.9688,4.4158-30.1172,8.1949-45.2796,11.8916-8.2269,2.0058-16.4596,3.9877-24.6979,5.9458l-.9147-3.2016" fill="#2a1710"/>
<path d="m180.1075,182.9632 7.3179-4.5737c6.486-3.051 13.044-5.9488 19.6669-8.69 4.9965-2.0681 10.0298-4.0471 15.0932-5.9458 7.2694-2.7259 14.6-5.2858 21.9537-7.7753 8.0381-2.7211 16.1058-5.3586 24.2405-7.7753 7.2683-2.1593 14.5891-4.142 21.9537-5.9458l20.5816-3.6589 3.2016.4574-9.6047,2.7442-22.8685,4.5737-24.6979,7.7753c-7.6812,2.4182-15.3581,4.8694-22.8684,7.7753-9.9545,3.8516-19.7427,8.1232-29.729,11.8916l-24.2406,9.1474" fill="#575656"/>
<path d="m257.8602,163.7537 11.8916,2.2868 13.2637,4.5737 3.659-1.3721 5.9458,5.0311 4.5737,2.7442 5.9458-2.2868 12.3489-8.2326-6.4031-5.9458-5.0311-3.2016-19.6669-5.0311-17.38,1.3721-9.1474,10.0621" fill="#141a1a"/>
<path d="m315.4887,168.7847-16.0079,9.6047 1.3721.9147c3.9745-1.1849 7.9385-2.4046 11.8916-3.6589 9.0073-2.8582 17.9573-5.8964 26.9848-8.69 7.7425-2.396 15.5394-4.6113 23.3258-6.8605 6.2571-1.8075 12.5079-3.637 18.7522-5.4884l5.4884,1.8295c5.8015-1.3371 11.595-2.7092 17.38-4.1163 6.1079-1.4856 12.2063-3.0103 18.2948-4.5737l11.8916-5.4884v-5.9458c-7.4938,1.24-14.9658,2.6124-22.4111,4.1163-16.4594,3.3247-32.7888,7.2926-48.9385,11.8916-10.6499,2.9252-21.1809,6.2829-31.5585,10.0621-5.5338,2.0153-11.0239,4.1503-16.4653,6.4032" fill="#1f1b16"/>
<path d="m403.761,166.4979 5.9458,6.8605c5.6939-1.8266 11.3376-3.8095 16.9226-5.9458 6.9569-2.661 13.8228-5.5599 20.5816-8.69l6.4032-4.5737v-4.1163l-1.3721-3.2016-1.8295,3.659c-3.9237,1.6264-7.8893,3.1517-11.8916,4.5737-7.4054,2.6311-14.931,4.9072-22.4111,7.3179-4.1299,1.331-8.2464,2.7032-12.3489,4.1163" fill="#1c1b19"/>
<path d="m406.9626,153.2342-17.8374,5.4884 10.9768,5.9458 9.6048-2.2868c9.3085-2.8688 18.6084-5.7655 27.8995-8.69l8.69-2.7442 2.7442-6.4032 2.2869-2.2868 12.8063-3.6589 21.9537-4.1163 22.8685-6.4032 24.6979-3.2016 3.2016-3.2016-8.69-2.2868-9.6048-.9147c-9.1707,1.3798-18.3196,2.9046-27.4421,4.5737-10.0882,1.8457-20.1435,3.8677-30.1864,5.9458-7.9351,1.6419-15.8629,3.319-23.7832,5.0311l-.9147,5.4884-1.3721,5.0311-12.8064,5.4884-15.0931,3.2016" fill="#2c312d"/>
<path d="m426.1721,190.2811-4.5737,13.2637c-.1877,5.951-.4927,11.8984-.9148,17.8374-.4668,6.5679-1.0768,13.1256-1.8294,19.6669 11.9498,1.7817 24.1411,1.936 36.1321.4574 11.9271-1.4708 23.654-4.5568 34.7601-9.1474l21.039-9.6047v-5.4884l2.7442-4.1163 7.7752.9147 3.2016.9147 5.4885-4.1163 3.6589-5.0311 .4574-3.6589c-2.9469-2.6987-6.3693-4.8766-10.0621-6.4032-5.9281-2.4507-12.2593-3.773-18.2948-5.9458l-22.8685-8.2326-21.9537-1.8295h-10.5195l-11.4342,3.2016c-2.013-.8115-4.3104-.8959-6.3775-.2344s-3.8887,2.064-5.0567,3.8933c-.7061,1.106-1.1769,2.3614-1.3721,3.6589" fill="url(#radialGradient3588)"/>
<path d="m240.9375,253.8554c25.0172-3.7847 49.8912-8.5153 74.5511-14.1785 13.1198-3.013 26.1793-6.2898 39.3338-9.1474 10.1974-2.2152 20.4485-4.1778 30.6437-6.4032 8.8535-1.9325 17.6632-4.0629 26.5274-5.9458 5.4695-1.1618 10.959-2.2292 16.4653-3.2016v1.3721c-6.2431,1.5557-12.4939,3.0803-18.7521,4.5737-30.5139,7.2816-61.2003,13.8209-91.9312,20.1242-24.5154,5.0284-49.0615,9.9071-73.6364,14.6358l-3.2016-1.8295" fill="#151346"/>
<path d="m253.2865,264.8322c5.9471-.9063 11.8929-1.821 17.8374-2.7442 8.5448-1.3271 17.087-2.6717 25.6127-4.1163 7.3414-1.2439 14.6717-2.5623 21.9537-4.1163 8.4267-1.7983 16.7825-3.911 25.1553-5.9458 7.7617-1.8863 15.5395-3.7061 23.3258-5.4884 11.1065-2.5424 22.2307-5.0087 33.388-7.3179 5.7976-1.1999 11.6044-2.3575 17.38-3.6589 6.89-1.5525 13.732-3.309 20.5816-5.0311 1.8289-.4598 3.6584-.9172 5.4885-1.3721l.9147,2.7442c-37.1199,8.5864-74.3215,16.8196-111.5981,24.6979-19.1348,4.0441-38.2994,7.9966-57.6285,10.9769-6.6914,1.0317-13.4009,1.9467-20.1242,2.7442l-2.2868-1.3721" fill="#151346"/>
<path d="m506.669,181.5911-8.2326,5.9458 2.7442.4574 5.4884-4.1163v-2.2868" fill="#676b71" fill-opacity=".835"/>
<path d="m519.018,191.1958c-1.4969,1.2537-3.022,2.4738-4.5737,3.6589-.6058.4627-1.2157.9201-1.8295,1.3721l1.8295,1.3721 4.5737-2.7442 4.1163-4.1163-4.1163.4574" fill="#676b71" fill-opacity=".835"/>
<path d="m503.0101,150.0326 40.2485,1.8295 45.2795,8.69 12.8063,4.5737-5.9458,3.6589-9.6047-5.4884-26.5274-5.9458-27.4422-3.6589-11.8916,1.3721-16.9226-5.0311" fill="#7e798f"/>
<path d="m629.244,152.3194c-4.6326,2.005-9.2087,4.1405-13.7211,6.4032-4.3296,2.1709-8.6004,4.4589-12.8064,6.8605l-5.9458,4.1163-5.4884,5.4884 10.9769,5.0311 14.6358,1.3721 28.8142-10.9769 19.6669-10.0621-4.1163-5.9458-22.4111-5.0311-9.6047,2.7442" fill="url(#radialGradient3590)"/>
<path d="m671.3219,160.5521-9.6047,5.0311c-8.9853,3.9856-17.9803,7.9495-26.9848,11.8916-5.9417,2.6012-11.8875,5.193-17.8374,7.7753l-5.0311-.9147 3.659,7.3179c4.2885-1.4686 8.5577-2.9933 12.8063-4.5737 6.6075-2.4579 13.165-5.0503 19.6669-7.7753l10.5195-6.8605 12.8063-6.4032v-5.4884" fill="#2e251e"/>
<path d="m540.9717,125.792 20.5816,10.9769 1.8295,5.4884 16.9227,1.3721 5.9458-2.2868c-2.6197-1.1592-5.2124-2.3793-7.7753-3.659-2.6239-1.3101-5.2167-2.6828-7.7753-4.1163l-13.2637-5.0311-13.2637-2.7442h-3.2016" fill="#221b14"/>
<path d="m614.1508,145.4589-14.6358,5.9458-5.4885,5.0311 6.8606,6.8605c2.2813-1.0791 4.5681-2.1463 6.8605-3.2016 4.4013-2.0261 8.8228-4.0081 13.2637-5.9458l1.8295-1.3721-8.69-7.3179" fill="url(#radialGradient3592)"/>
<path d="m481.5137,146.3736c-3.7927,1.1324-7.6049,2.1998-11.4342,3.2016-2.4326.6364-4.8721,1.2462-7.3179,1.8295l4.5737,4.5737 5.9458,3.2016 4.5737-4.1163 7.3179-4.5737-3.659-4.1163" fill="#0b090a"/>
<path d="m458.1879,121.2183 5.0311,3.659 10.5195-3.659-.9148.4574-4.5737-2.2868-10.0621,1.8295" fill="#4c5155"/>
<path d="m612.3213,171.9863 37.5043-17.38 .4573-.9147-2.2868.4574-13.2637,5.4884-22.4111,12.349" fill="#47484d"/>
<path d="m642.965,151.8621c-3.3768,1.4738-6.7313,2.9986-10.0621,4.5737-6.4116,3.032-12.7356,6.2507-19.2095,9.1474-2.8691,1.2837-5.7667,2.5038-8.69,3.6589l2.2868.4574c3.057-1.1999 6.1062-2.4196 9.1474-3.6589 3.6708-1.4959 7.3299-3.0206 10.9769-4.5737l7.7752-4.1163 7.7753-5.4884" fill="#47484d"/>
<path d="m422.5131,189.8237c-8.088,2.5672-16.1683,5.159-24.2406,7.7753-10.2274,3.3148-20.4421,6.6688-30.6437,10.0621-24.9364,6.3664-49.9412,12.4652-75.0085,18.2948-3.9623.9215-7.9262,1.8362-11.8916,2.7442l-4.1163-1.3721v-4.5737l4.5737-2.2868 49.8532-13.2637 16.9226-9.1474 6.4032-7.3179c-12.3821,2.885-24.9027,5.1754-37.5043,6.8605-10.6212,1.4203-21.3053,2.4111-32.0158,2.7442-8.5382.2655-17.0894.1128-25.6127-.4574l-5.4884-2.2868-62.2022,21.4963-21.9537,9.6048 19.2095-2.2868 5.4884,3.2016-44.3648,13.7211c-7.6687,2.3718-15.5319,4.0251-23.3258,5.9458-10.3045,2.5394-20.2493,6.3357-30.1864,10.0621l-21.9537,8.2326c7.1611.3069 14.3353.3069 21.4963,0 3.0501-.1307 6.0977-.3171 9.1474-.4574 9.2933-.4276 18.6062-.4276 27.8995,0l9.1474,6.4032c11.424.5572 22.8678.7098 34.3027.4574 13.4273-.2964 26.8351-1.1507 40.2485-1.8295 19.0435-.9637 38.1049-1.5736 57.1711-1.8295 14.3326-1.3543 28.6635-2.7264 42.9927-4.1163 14.213-1.3787 28.4348-2.7762 42.5354-5.0311 8.416-1.3458 16.7798-2.9956 25.1553-4.5737 9.7556-1.8381 19.5296-3.5794 29.2716-5.4884 11.9445-2.3406 23.8396-4.9331 35.6748-7.7753l-25.1553,1.3721-9.6048-3.2016 .4574-4.5737-14.1784,2.2868c-9.6867,2.7108-19.449,5.1513-29.2717,7.3179-8.9638,1.9772-17.9762,3.7258-26.9847,5.4884-20.717,4.0535-41.4208,8.1823-62.2022,11.8916-8.9814,1.6031-17.9768,3.1277-26.9848,4.5737l-4.5737-1.8295-3.2016-3.2016 21.039-2.7442c30.8162-6.3064 61.6126-12.7096 92.3886-19.2095 12.1997-2.5766 24.3962-5.1683 36.5895-7.7753l-27.4422,3.6589 4.1164-5.9458c-3.3439.9514-6.6982,1.8662-10.0622,2.7442-35.9678,9.3875-72.76,15.185-109.3112,21.9537l-12.349,2.2868-3.2016-.9147-3.659-4.5737c5.667,1.3248 11.8106.4946 16.9227-2.2868 4.0323-2.194 7.4108-5.5724 9.6047-9.6047 5.6256-1.434 11.2669-2.8062 16.9227-4.1163 8.5065-1.9704 17.0456-3.8002 25.6126-5.4884l1.8295,5.4884 19.6669-2.2868c13.936-2.7552 27.8136-5.8053 41.6206-9.1474 4.8876-1.1831 9.7664-2.4028 14.6358-3.6589h1.8295l-.4574-5.4884 6.4032-3.2016h5.9458l4.1163,1.3721 1.8295-4.1163 3.2016-2.7442 8.69-2.2868 8.2326-15.5505" fill="url(#radialGradient3594)" opacity=".965"/>
<path d="m61.6489,252.4833 8.2326,9.1474c8.9261-3.9334 17.7711-8.0509 26.5274-12.349 8.9374-4.3869 17.7825-8.962 26.5274-13.7211 7.653-3.1292 15.2762-6.331 22.8685-9.6047 19.9462-8.6008 39.6856-17.7018 59.9153-25.6127 20.8903-8.1692 42.2668-15.0548 63.117-23.3258 3.3685-1.3363 6.7228-2.7085 10.0621-4.1163l-5.4884-2.2868-17.3801-5.0311-.4574-.4574 2.2868-4.5737 1.3721-5.0311c-5.6831,1.6959-11.3261,3.526-16.9227,5.4884-10.3409,3.626-20.5183,7.7016-30.6437,11.8916-9.3414,3.8655-18.6419,7.8297-27.8995,11.8916h-6.8605l5.9458-7.3179c5.4761-2.3163 10.9646-4.6032 16.4653-6.8605 9.1145-3.7403 18.2624-7.3995 27.4422-10.9769l12.349-2.7442-21.039,3.6589-40.2485,13.7211c-7.2355,2.8809-14.4036,5.9311-21.4964,9.1474-11.4903,5.2104-22.7829,10.8567-33.8453,16.9227l-24.2406,16.9227-36.5895,35.2174" fill="#445d69" filter="url(#filter4493)" opacity=".664"/>
<path d="m358.0241,191.1958c-1.708,1.9554-3.3853,3.9377-5.0311,5.9458-1.2376,1.5101-2.4573,3.0348-3.6589,4.5737 2.5838-.789 5.1757-1.5513 7.7752-2.2868 7.437-2.1044 14.934-3.9889 22.4111-5.9458 10.88-2.8475 21.7213-5.849 32.4732-9.1474 13.4158-4.1156 26.69-8.6929 39.7911-13.7211l11.8916-.4574 .9148,5.9458 6.8605.4574 21.9537,6.4032 6.8606-.4574 5.9458-4.5737c-3.1526-1.9136-6.3556-3.7439-9.6048-5.4884-9.6932-5.2045-19.7969-9.644-30.1864-13.2637l-8.2326-6.4032-6.4032,6.8605-21.4963,9.6047-18.2948,6.4032 2.2869,2.2868c-3.3408.8191-6.6955,1.5815-10.0622,2.2868-3.0434.6376-6.0964,1.2286-9.1473,1.8295-8.8597,1.7451-17.7026,3.5747-26.5274,5.4884l-10.5195,3.6589" fill="#2c3733" opacity=".73"/>
<path d="m454.0716,143.6294c4.2417-1.1716 8.5122-2.2392 12.8063-3.2016 8.9572-2.0074 18.0113-3.5556 26.9848-5.4884 7.8458-1.69 15.6284-3.6737 23.3258-5.9458l17.8374-1.8295 2.7442-1.3721 12.349,7.7753 6.8605,5.4884-16.9226-.4574-14.6358-2.2868-14.6358,2.2868-10.5195,8.69 4.1163-6.8605-11.4342.4574c-5.1503,1.6346-10.3354,3.1596-15.5506,4.5737-4.8538,1.3161-9.7337,2.536-14.6358,3.6589l-8.69-5.4884" fill="#2b2c2e"/>
<path d="m485.63,152.3194-8.2326,6.4032c1.9584,1.2574 3.9408,2.4773 5.9458,3.6589 4.4671,2.6326 9.0463,5.0748 13.7211,7.3179h7.3179l15.0932-9.1474 9.6047-2.7442h-10.5195c-1.2081,0-2.4266-.0275-3.6026-.3043s-2.2981-.7914-3.2579-1.5251l-9.1474-2.7442-4.5737-3.2016-.9147-5.4884-8.2327.4574-3.6589,1.8295 .4573,5.4884" fill="url(#radialGradient3596)"/>
<path d="m549.6617,140.8852-18.2947-.9147-5.9458-1.8295-12.8064,2.7442-7.7752,6.4032c3.8049.2794 7.6191.432 11.4342.4574 .7623.005 1.5245.005 2.2868,0l3.2016-2.2868h6.4032l4.1163,1.8295v1.8295l6.4032.9147 4.5737-3.6589 6.4031,1.8295 1.8295,3.6589 8.2326,1.3721 3.2016-3.2016 7.3179.4574v4.5737l24.2406,5.4884-4.1163-3.6589 5.031-5.0311 9.6048-5.0311 9.1474-2.7442c-4.1336-1.7902-8.2502-3.6198-12.349-5.4884-5.2128-2.3765-10.3968-4.816-15.5505-7.3179-5.4428-1.9627-10.9334-3.7929-16.4653-5.4884-2.583-.7917-5.175-1.554-7.7753-2.2868l-5.4884,3.2016 9.6047,3.2016 16.4653,7.3179 5.9458,5.0311-5.0311,2.2868-9.1473.9147-9.6048-1.3721-6.8605-3.6589-8.2327.4574" fill="url(#radialGradient3598)"/>
<path d="m616.9422,145.031 6.9225,6.9225 6.3205-1.2039-6.3205-3.3108-6.9225-2.4078" fill="#2a2623"/>
<path d="m295.3397,148.0311c3.9442-.9853 7.8994-1.927 11.8644-2.8249 7.3129-1.656 14.6596-3.163 22.0339-4.5198l7.3447-5.6497 16.3841-1.6949 25.4238-5.0847 .5649,7.9096c-3.1526.3557-6.1769,1.767-8.4745,3.9548-2.6219,2.4965-4.2673,5.993-4.5198,9.6045-8.4627,2.3039-16.9374,4.5639-25.4237,6.7797-8.0876,2.1117-16.1857,4.1833-24.2938,6.2147l-9.6045-8.4746-11.2995-6.2147" fill="#262e31"/>
<path d="m394.3228,158.1817 12.9629-2.5926 9.6297-3.3333 9.6296-1.8519 11.1111-5.1852 2.963-4.4444 .3703-5.1852 6.6667,9.2593-4.0741,4.8148c-3.6703,1.4468-7.3755,2.8054-11.1111,4.0741-5.2523,1.7838-10.565,3.39-15.9259,4.8148l-13.3333,5.1852-8.8889-5.5556" fill="#40585c"/>
<path d="m368.3968,146.7003 6.6667-4.4444 2.963-2.5926 5.1852-3.3333c1.1199-.9777 2.2311-1.9654 3.3333-2.963 1.8781-1.6999 3.7303-3.4286 5.5555-5.1852l9.6297-4.0741c3.9264-.9702 7.8789-1.8348 11.8518-2.5926 4.0676-.7759 8.1559-1.4397 12.2222-2.2222 5.3534-1.0302 10.6673-2.266 15.926-3.7037l3.7037.7408-4.4445,2.5926c-3.3484.2116-6.6868.5826-10,1.1111-2.7534.4392-5.4967.9892-8.1481,1.8519-1.0034.3265-1.9924.6973-2.963,1.1111 1.4692,1.4581 3.2487,2.6021 5.1852,3.3333 2.4604.9291 5.1715,1.1845 7.7622.7311s5.0539-1.6143 7.0526-3.3237c1.0691-.5819 2.185-1.0779 3.3334-1.4815 3.3093-1.1631 6.8897-1.5467 10.3703-1.1111 .8824-.0375 1.7744.31 2.3989.9344s.972,1.5165.9345,2.3989c-.0277.6517-.2561,1.2849-.5933,1.8433s-.7805,1.0463-1.2586,1.49c-2.5644,2.3803-6.0755,3.4819-9.5406,3.967-3.465.4851-6.9863.4247-10.4594.8478-3.7002.4507-7.3327,1.4528-10.7407,2.963-3.8156.9144-7.6432,1.7787-11.4815,2.5926-5.7798,1.2256-11.5837,2.337-17.4074,3.3333l-17.7778,4.8148-9.2593.3704" fill="url(#radialGradient3600)"/>
<path d="m100.9894,242.5252c6.5814-3.7899 13.2504-7.4276 20-10.9091l44.8485-16.9697 31.5151-15.7576-12.1212-10.303h-18.7879l-19.3939,2.4242-11.5152,3.6364 11.5152.6061-1.2121,12.1212c-4.2362,2.4351-8.4786,4.8594-12.7273,7.2727-10.0665,5.718-20.1677,11.3747-30.303,16.9697l-12.7273,4.8485-2.4242-1.8182-15.7576,10.303-2.4242,9.0909 16.3636-2.4242c4.9956-3.1206 10.0472-6.1515 15.1515-9.0909" fill="#a5e6fa" filter="url(#filter4457)" opacity=".699"/>
<path d="m251.2924,161.9191-32.7273,12.7273-26.0606,7.8788 1.8182,10.303 9.697,4.8485 19.3939-8.4848 31.5151-10.9091 16.3637-3.6364-20-12.7273" fill="url(#radialGradient3602)"/>
<path d="m77.363,269.0812c4.7809,0 54.5817-.7968 54.5817-.7968l7.9681,5.9761-58.1673-1.992z" fill="#4f6b6f"/>
<path d="m618.6572,186.1684a21.4286,8.5034 0 1,1 -42.8571,0 21.4286,8.5034 0 1,1 42.8571,0z" fill="#f00"/>
<path d="m1314.9206,411.5685a2.2222,2.381 0 1,1 -4.4445,0 2.2222,2.381 0 1,1 4.4445,0z" fill="#ff4e52" filter="url(#filter4264)" transform="matrix(1.32054,0,0,1.17723,-1150.765,-299.4264)"/>
<path d="m584.4395,180.7172-5.5172,1.7409-2.3426,2.9236 .7014,2.9878 3.0978,2.2658 5.9653,1.828-5.3968-4.127-1.5873-1.5873 .722-2.2658z" fill="#b00106" opacity=".597"/>
<path d="m590.847,183.8091 3.4083,3.8344 5.1126.8521 4.2604,3.8344 5.5385-1.2781-1.2781-3.8344-3.8344-.426-5.9646-2.9823-2.5562-2.1302-2.1302-.426-2.5563,2.5562" fill="#c30305" opacity=".372"/>
<path d="m589.9882,192.8079c-2.4046-.4523-4.6413-1.365-6.0127-2.4537-1.877-1.49-1.9975-1.7345-.8578-1.7405 2.8136-.0149 4.4569-3.9438 2.4775-5.9233-.8359-.8359-.7297-1.1231.9318-2.5212 5.7613-4.8478 29.2382-1.2257 31.3164,4.8316 .8038,2.343.0103,3.5647-3.4727,5.3464-2.6317,1.3462-7.7363,2.1059-5.7671.8582 .7278-.4611.7272-.8287-.004-2.3536-.6399-1.3351-1.4552-1.9029-3.121-2.1737-2.0486-.333-3.8945-1.2233-9.8728-4.7616-1.9652-1.1631-2.0368-1.1631-3.3228.0007-1.6666,1.5082-1.65,1.763.2632,4.0366 1.1275,1.3399 2.3642,1.9927 4.3355,2.2883 3.0064.4508 7.1812,3.8467 5.4217,4.4101-2.2627.7245-8.8483.8077-12.3155.1556h1e-005z" fill="#f00" opacity=".965"/>
<path d="m45.4601,207.5777v-175.9792h319.065 319.065v175.9792 175.9792h-319.065-319.065v-175.9792zm207.8098,74.5751c34.4905-2.43 42.3934-3.1719 73.179-6.8702 37.2084-4.4698 48.1969-6.3559 102.4923-17.5913 37.7544-7.8126 68.2455-17.3286 87.5464-27.3225l10.2471-5.3059 4.6015-5.3162 4.6015-5.3162 .3653-3.9418c.2009-2.168.1737-4.0602-.0604-4.2049s-1.4669,1.4171-2.7394,3.4707l-2.3137,3.7338-12.4745,7.6657-12.4745,7.6657-24.1217,7.7853-24.1218,7.7853-43.5514,8.2103c-42.7585,8.0608-44.2755,8.3048-83.3297,13.4001l-39.7783,5.1898-51.2948,2.7342-51.2948,2.7342-54.3676-1.5863-54.3676-1.5863-4.2561-3.9627c-2.3408-2.1795-4.3285-4.1511-4.417-4.3814-.1303-.339 2.0451-1.1586 3.1761-1.1967 .1508-.005.7058-.2403 1.2335-.5227 .6149-.3291.9594-.3176.9594.0321 0,.3.9833.8401 2.1852,1.2002 1.2125.3633 2.5823,1.2609 3.0774,2.0164l.8922,1.3617 15.4251-.4139c8.4838-.2276 19.7423-.3822 25.019-.3434l9.5939.0705 4.7504,3.283 4.7505,3.283h14.7518c14.4479,0 14.9655-.039 25.1276-1.8913 15.3472-2.7975 30.0618-5.9353 45.462-9.6945 12.4628-3.0421 16.5141-4.3126 13.7521-4.3126-.91,0-4.7064-3.5629-4.7064-4.4169 0-.6213 2.9048.0717 5.2191,1.2451l2.2039,1.1175 33.7046-6.6798c54.42-10.7853 114.2544-23.6106 137.1438-29.3963 6.5531-1.6564 7.2532-1.6912 6.5215-.324-.2995.5596-.8338,3.2725-1.1872,6.0286l-.6426,5.011-1.9844.5143c-1.0914.2829-5.6849,1.2898-10.2077,2.2377-15.9492,3.3426-45.118,9.8611-58.9338,13.1704-32.8659,7.8723-42.5432,9.7903-74.5581,14.7767-22.4103,3.4905-21.0382,3.2081-20.2433,4.166 .8682,1.0461 2.1186.9907 13.7435-.6084 14.2752-1.9637 24.1726-3.6782 42.9565-7.4412 22.4004-4.4875 91.3568-19.3911 107.6553-23.2677 1.2939-.3078 1.2984-.2919.921,3.2323-.3362,3.1399-.2661,3.5751.6185,3.838 2.989.8882 15.6311,1.5587 23.749,1.2594 19.7691-.7288 33.9861-4.3222 55.3704-13.9951l11.7868-5.3316 .3076-2.9893c.1692-1.6441.786-3.8101 1.3706-4.8134l1.0629-1.8241 3.8375.3422c2.1107.1882 4.6291.5931 5.5964.8997 1.6062.5091 2.0118.3665 4.6706-1.6409 3.5237-2.6605 6.1579-6.2523 6.6048-9.0061 .3165-1.9501.2086-2.1296-2.5143-4.1832-2.9431-2.2198-9.3729-5.5135-10.7646-5.5142-.4901-.0003-.0716-.759 1.0964-1.9874l1.8893-1.987-2.6263.2775c-1.4445.1526-3.101.7071-3.6813,1.2323-1.0089.913-1.3811.8499-8.5134-1.4428l-7.4584-2.3975 2.7794-2.0665c2.038-1.5153 2.7794-2.4292 2.7794-3.4264 0-.748-.1181-1.3599-.2625-1.3599s-1.9531,1.2335-4.0193,2.7411-4.0181,2.7411-4.3373,2.7411-3.9257-1.2104-8.0143-2.6899c-7.2413-2.6202-7.708-2.7125-18.0144-3.565-18.3341-1.5165-25.432-1.0151-28.2587,1.9962-2.1259,2.2648-11.4074,16.7051-16.0886,25.031l-4.6088,8.197-3.5635.6204c-1.9599.3412-11.2111,2.3172-20.5583,4.3911s-23.6558,5.1612-31.7969,6.8607-23.6832,5.1575-34.538,7.6843c-23.6713,5.5103-31.0907,7.1517-45.5024,10.0666-9.558,1.9332-35.4567,6.6577-36.395,6.6392-.1847-.004.7743-.6361 2.1312-1.4056 2.8361-1.6082 7.4177-5.8855 8.496-7.9314 .6444-1.2229 1.6674-1.6181 8.3174-3.2139 12.2254-2.9336 34.3745-7.6659 34.7612-7.4269 .1959.121.6687,1.3366 1.0508,2.7012s.816,2.4811.9642,2.4811 2.8806-.3877 6.0718-.8615c4.4976-.6678 8.5196-1.8526 17.8876-5.2692 29.9146-10.9102 58.0424-22.8887 80.3941-34.2365 9.7407-4.9453 11.388-5.9355 10.8195-6.5041-.3759-.3759-8.2596,2.0586-36.6411,11.3149-17.2308,5.6197-41.3639,11.9267-84.4262,22.0644-18.144,4.2714-20.2018,4.6515-22.0659,4.0754-1.905-.5887-2.0558-.7886-2.0558-2.7251 0-1.8717.2197-2.2018 2.1059-3.1641 1.1582-.5909 13.4315-4.0888 27.274-7.7732l25.1682-6.6989 8.5744-4.71c7.5419-4.1428 8.945-5.1389 11.6524-8.2725 1.6929-1.9594 2.8711-3.6315 2.6182-3.7158s-4.0163.6058-8.3631,1.5335c-10.0863,2.1527-24.9916,4.5739-37.2331,6.048-7.3557.8858-14.1342,1.2236-29.0558,1.448l-19.4619.2928-3.1121-1.3852-3.1121-1.3852-24.5272,8.4648c-13.49,4.6556-24.7643,8.3858-25.0541,8.2892s7.3372-2.9799 16.9489-6.4073c33.3743-11.9009 65.9712-24.3352 66.6685-25.4311 .6715-1.0554.4714-5.2111-.3451-7.1651-.928-2.221-1.6416-2.7262-2.9228-2.0693-.5339.2738-1.6491.6599-2.4783.8581-1.3913.3326-1.5076.2328-1.5076-1.2947 0-.9103-.2467-1.6551-.5482-1.6551s-.5482-.2339-.5482-.5197c0-.3167.636-.298 1.6283.0479 1.1596.4042 2.1853.3838 3.5633-.071 1.8664-.616 2.0371-.5523 4.8133,1.7966 1.583,1.3394 3.9257,3.0878 5.2058,3.8854l2.3276,1.4502 3.1929-1.2974c2.4228-.9845 13.5237-7.8315 15.4514-9.5304 .3827-.3373-5.1949-5.2964-8.4974-7.5551-2.1706-1.4846-4.7948-2.4062-12.6091-4.4283l-9.868-2.5536-8.7715.6521-8.7715.6521-2.6041,2.5475c-2.4768,2.423-2.6041,2.4799-2.6041,1.1639 0-.761-.4652-1.883-1.0338-2.4933-1.0304-1.1061-.9984-1.1207 9.7918-4.4936 6.3242-1.9769 15.3595-4.2898 21.7292-5.5623 12.0066-2.3988 21.5939-4.8769 21.5939-5.5815 0-.858-4.1735-.4516-14.8248,1.4436-12.6803,2.2562-27.3194,6.1904-47.0754,12.6512-12.7125,4.1574-14.5393,4.6274-14.9727,3.8529-.2715-.4852-.7252-.7391-1.0082-.5642s-.5145.073-.5145-.2265c0-.3372-2.0351-.4671-5.3452-.3411-9.2142.3506-12.1019.9182-21.0431,4.136-10.1252,3.644-25.1477,8.5327-27.5417,8.9628-.8662.1556-2.0288.6938-2.5836,1.1959s-1.4008.7625-1.88.5786-.73-.1059-.5575.1733c.388.6278-8.3639.0964-9.6776-.5876-.5078-.2644-1.8647-.4437-3.0152-.3985l-2.0919.0823 2.467.3835 2.467.3836-2.3299.0823c-2.9427.104-3.0239.9652-.1371,1.4529 1.2061.2038 2.1929.5955 2.1929.8705s.37.5.8223.5c.9869,0 1.1197.905.1371.9338-.3769.011-1.6461.2096-2.8204.4414-1.5448.3048-2.0284.2488-1.7494-.2028 .2121-.3433.9262-.6414 1.5869-.6626 1.1581-.0372 1.1618-.0554.1047-.5097-1.6748-.7197-2.467-.6317-2.467.2741 0,.4523-.2613.8223-.5806.8223s-.4281-.2467-.2418-.5482c.1922-.3109-.2684-.5482-1.0641-.5482-.8816,0-1.4029-.3056-1.4029-.8223 0-.9727.2645-1.0128 1.6807-.2548 .7929.4244 1.0593.3898 1.0561-.1371-.002-.3875-.6099-.9854-1.3502-1.3286-1.0063-.4666-1.3164-.4666-1.2292,0 .0641.3432-.2534.6573-.7057.6979s-1.0376.1023-1.3006.1371-.1662.4392.2152.8988 .5293.9998.3286,1.2004-.7432-.1754-1.2057-.8356c-1.1666-1.6655-1.967-1.5065-1.5463.3072 .3263,1.4069.2963,1.4385-.4485.4728-.6844-.8874-1.0257-.9455-2.395-.4079l-1.5969.6269 1.5076-.2878c2.2004-.4201 1.941,1.0008-.3328,1.823-3.5445,1.2817-10.4587,5.3301-12.6594,7.4124-1.2215,1.1557-2.2826,2.0808-2.3579,2.0558-.0754-.025-.2604-.0146-.4112.023s-.5825.0994-.9594.1371-.6853.4151-.6853.8386-.37.8314-.8223.9064-1.3157.3206-1.9188.5458c-.8061.301-.5883-.1568.8223-1.7288l1.9188-2.1382-2.0345,1.8686c-1.119,1.0277-1.9314,2.0353-1.8055,2.2391s-.8505,1.43-2.1699,2.7249c-1.5768,1.5475-2.2902,2.6589-2.0818,3.2431 .1744.4888.1282.7186-.1027.5106s-.94.1064-1.5757.6987-1.47.9564-1.8538.8091-.6392-.0549-.5675.2054c.1986.7203-8.3973,6.1716-9.2286,5.8526-.4407-.1691-.6175.007-.4487.4466 .1851.4824-.145.7028-.9843.6574-.6979-.0378-1.2641.2472-1.2658.637-.004.9008-1.4184,1.7898-2.1697,1.3635-.3159-.1792-.4011-.1336-.1893.1014 .3632.403-.8297,2.0031-1.4619,1.961-.1615-.0108-.7961.4828-1.4101,1.0969s-1.3541.9695-1.6447.79-.5282-.003-.5282.3927c0,.7501-6.0942,4.8277-7.2153,4.8277-.3534,0-.5021.1404-.3305.3121 .3821.3821-4.1394,4.6219-4.9289,4.6219-.3109,0-.7073.37-.8809.8223-.4261,1.1104-1.4464,1.046-1.4464-.0914 0-.5025.1496-.7641.3325-.5812s.8433-.1435 1.4677-.7252c2.2348-2.0821.4119-1.6362-5.564,1.3608-4.9906,2.5029-6.0081,3.2169-5.7115,4.0082 .3275.8738.2656.8868-.6694.1404-.5993-.4784-.858-.5357-.6185-.1371 .3724.6198-.2382.9391-1.4347.7502-.2261-.0357-.372.1201-.3241.3462 .212,1.0017-.8087,2.2336-1.7073,2.0605-1.1777-.2268-5.2169,3.7042-5.2262,5.0863-.004.5491-.3481.8635-.8287.7567-.4523-.1005-.6302.009-.3953.2443 .5365.5365 2.1258.7949 1.8171.2954-.3278-.5304.9276-2.0324 1.6848-2.0157 1.0075.0222 1.4309.6974.9313,1.4852-.2517.397-.4727.9685-.491,1.27s-.3016.4962-.6294.4326-.7426.6168-.9216,1.5119-.5976,1.5639-.9301,1.4862-1.4095,1.4081-2.3933,3.3018c-2.0376,3.922-4.7148,7.0186-5.279,6.1057-.2159-.3493-.4979-.1002-.6816.602-.1888.722-.5634,1.0433-.943.8087-.3977-.2458-.59-.0136-.522.6301 .0593.5606.0793,1.8513.0446,2.8682-.0507,1.4853-.2085,1.7282-.8022,1.2354-.5608-.4654-.9504-.3799-1.6149.3543-.8799.9723-.8574,1.3371.4375,7.0644 .1471.6508 4.6474,5.0696 10.0006,9.8197s10.5483,9.3983 11.5447,10.3294l1.8116,1.693 23.1325,1.1531c19.0035.9473 30.9625,1.1675 66.9988,1.2335l43.8663.0804 38.6663-2.7242zm-113.0736-7.9809c-.1589-.1589-2.0524-1.6082-4.2077-3.2208l-3.9189-2.9319-22.0612.2562c-12.1337.1409-24.5282.4214-27.5434.6232l-5.4822.367 2.4242,1.6381 2.4242,1.6382 24.4387.8782c28.2934,1.0167 34.3251,1.1504 33.9264.7517zm162.3798-52.8685c31.0218-7.4916 46.7049-11.8943 76.2028-21.3925 22.3025-7.1813 27.4315-8.732 48.7917-14.752 10.704-3.0167 22.6062-6.4226 26.4492-7.5686l6.9873-2.0837 .003-1.7148 .003-1.7148-3.7005.7753c-4.385.9187-23.8487,6.5349-39.609,11.4291-50.2128,15.5931-111.3229,33.0309-127.6935,36.4375-5.8565,1.2187-10.7299,2.2976-10.8299,2.3975s.093.9699.4288,1.9332c.4296,1.2324.8772,1.6725 1.5101,1.4849 .4947-.1466 10.1508-2.5007 21.4578-5.2313h-.0005zm69.6242-25.5664c34.2306-9.1873 49.123-13.7283 69.9502-21.3293 8.9786-3.2768 9.622-3.4289 15.3412-3.6276l5.9695-.2074 .4537,2.8259 .4537,2.8259 3.7495.3766c2.0622.2071 8.5544,1.7772 14.427,3.4892 9.6904,2.8249 11.0259,3.0858 14.4454,2.8228 3.3358-.2566 4.0942-.5406 6.6148-2.4775 1.5658-1.2032 2.861-2.316 2.8782-2.4728 .0463-.4224-10.8001-6.3899-18.045-9.9281-3.4758-1.6975-9.8968-4.5021-14.2689-6.2325-5.7632-2.281-8.8538-3.8569-11.2385-5.7306-1.8091-1.4214-3.6229-2.7791-4.0305-3.0171-.5058-.2953-1.8987.7024-4.3858,3.1412-3.4031,3.3372-4.3349,3.8807-14.0608,8.2016-5.7289,2.5452-14.5479,6.0707-19.5977,7.8345l-9.1815,3.2069 1.1086,1.18 1.1086,1.18-4.2621.9405c-2.3441.5173-12.5265,2.6422-22.6275,4.722s-20.7991,4.6056-23.7736,5.6129l-5.4082,1.8315-4.3176,5.1837c-2.3747,2.851-4.3199,5.3515-4.3228,5.5566s.7966.1347 1.7765-.1564 10.5396-2.8798 21.2436-5.7527zm-70.2673,1.6646c9.1931-.8125 44.641-6.827 61.3341-10.4066 10.7403-2.3031 43.2482-10.9383 44.1531-11.7286 .2243-.1959-5.3774-1.2808-12.4484-2.4108l-12.8563-2.0546-20.4449,3.9112c-18.6028,3.5588-23.5782,4.7719-55.2207,13.4638-19.1267,5.2539-34.8949,9.6716-35.0405,9.8172-.6239.6239 21.6569.192 30.5236-.5917zm-15.4228-4.8723c37.3219-10.7504 58.6653-16.0928 81.0302-20.2821l12.0609-2.2592 .1545-6.4233c.0849-3.5328-.01-6.4233-.2109-6.4233s-15.9359,4.9154-34.9665,10.9231-39.0418,12.3053-44.4691,13.9946c-10.083,3.1384-38.6973,12.8094-41.6649,14.0818-1.6312.6994-1.6178.708 1.6447,1.0449 7.4021.7644 7.9172.6736 26.4213-4.6564zm319.295,1.6565c2.2958-.4095 5.2562-1.2232 6.5788-1.8082s2.7164-.9598 3.0973-.8328c.8252.2751 9.9465-2.952 23.1548-8.192 7.1173-2.8236 11.0798-4.7766 15.3502-7.5658 3.166-2.0678 8.4084-5.0683 11.6497-6.6678l5.8934-2.9081v-2.8902c0-1.5896-.1321-2.8902-.2936-2.8902s-2.9368,1.3385-6.1675,2.9745c-7.1959,3.644-45.5248,20.599-46.5666,20.599-.2389,0-.7238-.4634-1.0775-1.0298-.5978-.9573.3478-1.4064 13.4366-6.3802 11.5874-4.4034 29.6007-12.6349 34.0502-15.56 .6409-.4213.4021-1.0671-1.3175-3.564-1.1552-1.6772-2.4941-3.1601-2.9756-3.2952s-5.5439-1.2769-11.2499-2.5371l-10.3745-2.2914-4.4274,1.1966c-4.9527,1.3386-15.0545,5.7987-22.5188,9.9424-5.4957,3.0509-7.801,5.6485-11.534,12.9966l-2.0034,3.9434-2.551.004c-1.4031.002-4.1546.2571-6.1145.5664-14.2513,2.2485-18.7239,8.9596-9.1216,13.6868 6.1675,3.0363 16.3797,4.0553 25.0825,2.503v-.0002zm-480.8529-1.136c.3754-.4523.5591-.8223.4084-.8223s-.5812.37-.9566.8223-.5591.8223-.4084.8223 .5812-.37.9566-.8223zm12.8832-11.2386c.5457-.603.8689-1.0964.7182-1.0964s-.7206.4934-1.2664,1.0964-.8689,1.0964-.7182,1.0964 .7206-.4934 1.2664-1.0964zm4.1117-3.0152c.3754-.4523.5591-.8223.4084-.8223s-.5812.37-.9566.8223-.5591.8223-.4084.8223 .5812-.37.9566-.8223zm168.7147-2.2288c5.3523-1.6781 13.9254-4.4113 19.0512-6.0738s18.9177-5.8407 30.6485-9.285l21.3287-6.2624 2.885.9094 2.885.9094 17.4512-4.2502c14.2861-3.4793 18.5334-4.7378 23.4183-6.9387 3.2819-1.4787 6.0573-2.6885 6.1675-2.6885s.2003.3154.2003.7009c0,1.3029-12.9465,6.2718-20.2842,7.7851-6.9835,1.4403-25.2182,6.7673-25.2182,7.3671 0,.1817 2.4053,1.6531 5.3452,3.2698l5.3452,2.9394 4.1117-.9278c4.189-.9452 16.3723-4.5859 33.2407-9.9332l9.3931-2.9776 1.1963-2.9474c.658-1.6211 1.8775-3.6001 2.7101-4.3977 2.0152-1.9307 9.8008-4.1357 24.3433-6.8944 6.2707-1.1896 16.7555-3.6386 23.2994-5.4423 10.0158-2.7607 13.7628-3.5123 23.6849-4.7512 11.5413-1.4411 11.824-1.5069 13.5735-3.1599 2.1551-2.0362 2.0237-2.1455-4.3382-3.605-8.8988-2.0415-10.8645-1.9859-27.3618.7748-12.2362,2.0476-40.573,7.5468-62.8353,12.1941l-3.9366.8218-.7223,3.9064-.7223,3.9064-.1681-2.6041c-.1301-2.0156-.378-2.6041-1.0968-2.6041-1.9744,0-20.1951,3.506-33.2751,6.4027-42.382,9.3859-77.2991,20.804-93.7695,30.663-4.3591,2.6093-7.9256,4.9377-7.9256,5.1742 0,.3515.5415.7202 1.5071,1.0263 .0751.0238 4.5157-1.3297 9.868-3.0079zm-165.2133.2097c-.1583-.2562-.5175-.3239-.7982-.1504-.7173.4433-.6365.6162.2879.6162 .439,0 .6687-.2096.5103-.4658zm4.1737-2.0926c.4523-.2923.5756-.5314.2741-.5314s-.9183.2391-1.3706.5314-.5756.5314-.2741.5314 .9183-.2391 1.3706-.5314zm256.1028-2.6041c-2.1873-3.0313-5.4131-5.5808-10.7736-8.5151-5.5322-3.0282-13.3898-6.6587-13.6973-6.3286-.0916.0983-.2542,3.0113-.3614,6.4733l-.195,6.2947 11.7868,1.7283c6.4827.9505 12.3586,1.7568 13.0576,1.7916l1.2708.0633-1.0879-1.5076zm12.6214-1.4468c16.4027-5.7677 27.3695-10.5016 32.1124-13.8615 3.1761-2.25 3.4264-2.5794 3.4264-4.5106 0-2.2357-.9519-5.5363-1.5968-5.5363-.2162,0-.7761.8032-1.2442,1.7848-.772,1.6189-1.5586,2.0459-8.4619,4.5936-4.186,1.5449-14.5184,5.0898-22.961,7.8776s-15.5278,5.2279-15.7448,5.4223c-.3301.2958 5.307,7.1846 5.8791,7.1846 .1039,0 3.9697-1.3295 8.5907-2.9544zm94.0862-5.4432c4.1323-2.508 8.6852-4.8837 10.1174-5.2794 4.452-1.2299 3.3605-1.9286-3.7886-2.4251-2.1591-.15-4.9962-.7415-6.3045-1.3146s-3.9824-1.4989-5.9423-2.0574c-4.2767-1.2187-8.0911-3.6558-8.5436-5.4587-.2651-1.0564-.8818-1.4319-3.1569-1.9221-7.398-1.5941-9.6802-1.243-9.6802,1.4893v1.4588l-1.8491-1.7922-1.8491-1.7922-7.0595,1.9313c-3.8827,1.0622-8.108,2.1999-9.3894,2.5281s-2.3299.8003-2.3299,1.0489c0,.9688 5.3566,5.3305 8.1004,6.5958l2.8923,1.3338 2.3159-2.1902c2.1601-2.0429 5.0215-4.0683 7.9351-5.6168 .9798-.5207 1.2291-.5106 1.212.049-.0118.3875-1.7387,2.036-3.8376,3.6634s-3.816,3.0509-3.816,3.1633c0,.4367 7.7184,5.1659 13.1779,8.0745 5.5412,2.9521 5.8806,3.056 10.0091,3.064l4.2734.008 7.5134-4.56v-3e-005zm86.0502,2.093c1.5801-.9046 2.8015-1.8598 2.7141-2.1227s-2.8624-1.4452-6.1669-2.6273c-4.5764-1.6371-11.398-3.1865-28.6265-6.502l-22.6184-4.3527-17.3242-.8321c-9.5283-.4577-18.8393-.8153-20.6911-.7947l-3.367.0375 8.7715,2.6174 8.7715,2.6174 5.7563-.6736c5.4817-.6414 6.4234-.5854 19.736,1.1748 9.0023,1.1903 18.6642,2.899 27.137,4.7992 12.5404,2.8125 13.3758,3.0804 17.8172,5.7151 2.5629,1.5204 4.7853,2.7247 4.9387,2.6763s1.5715-.8281 3.1517-1.7327v-1e-005zm23.8266-13.6731c.9514-.6664.7556-.9505-2.6994-3.916-2.0489-1.7586-4.1129-3.5145-4.5867-3.9019-.7226-.5909-2.0478-.2154-8.2233,2.3302-6.1704,2.5435-7.8037,3.4738-10.0918,5.748l-2.7299,2.7133 3.459,3.4901 3.4591,3.4901 10.1936-4.6175c5.6065-2.5396 10.6552-4.9409 11.2195-5.3361zm-288.7589,4.9579c8.7441-2.2541 18.6121-4.8322 21.9289-5.729s7.0501-1.901 8.2963-2.2316c2.0472-.543 2.3227-.8254 2.8549-2.9271 1.326-5.236 5.4654-9.4267 10.7536-10.8868l1.9457-.5372-.3516-3.9485c-.1934-2.1716-.4181-4.0286-.4993-4.1265s-5.7827.9489-12.67,2.3264-16.3463,2.9103-21.0198,3.4064l-8.4974.9019-3.6896,2.8578-3.6896,2.8578-10.2901,2.0512c-10.5905,2.1111-23.087,4.9695-23.4907,5.3732-.1255.1255 2.3921,1.6566 5.5947,3.4024 3.9195,2.1365 7.3688,4.5767 10.552,7.4648 2.6805,2.432 5.0853,4.1938 5.5514,4.067 .4523-.123 7.9766-2.0679 16.7208-4.3221zm259.4214.333-2.0288-2.0777 2.6028-2.5166c3.2023-3.0963 10.5749-6.976 16.5216-8.6943 2.4519-.7085 4.2705-1.4686 4.0412-1.689s-3.7474-1.8754-7.8179-3.6776-10.3471-4.6666-13.9479-6.3653c-9.5156-4.489-14.4742-5.7971-21.937-5.7867-6.7675.009-8.7298.5723-5.5979,1.6059 6.709,2.2142 21.7908,10.037 20.9574,10.8704-.1046.1046-3.664-1.55-7.9097-3.6769-10.5109-5.2655-18.1617-8.1037-26.8848-9.9734-7.5603-1.6205-9.9186-1.8931-9.9186-1.1464 0,.236 4.5495,2.8425 10.1099,5.7921l10.1099,5.3629 .8927,2.6877c1.0317,3.1062.4501,2.9108 11.2868,3.7905 6.6775.542 7.0189.5168 10.2734-.7586 3.8506-1.509 5.3029-.846 1.6365.747-5.7338,2.4914-17.9731,1.8614-23.4768-1.2085l-3.0152-1.6818-14.1536-.1792-14.1537-.1792 .3715,1.2335c.4761,1.5807 3.1836,4.4635 6.0867,6.4809l2.2727,1.5793 2.0004-1.3575c2.365-1.605 1.9055-1.5609 5.4715-.5243 2.3441.6815 3.0264,1.1693 3.7459,2.678 .8023,1.6824 1.1888,1.8986 4.39,2.4561 4.7641.8296 4.9652.8059 6.4356-.7593 1.1295-1.2023 1.7469-1.3706 5.0296-1.3706h3.742v2.3768 2.3768l12.1979,2.7891c6.7089,1.534 12.3097,2.8081 12.4462,2.8313s-.6646-.8927-1.7805-2.0355zm34.9737-7.4372 2.7411-.6381-3.0152-1.694c-3.3466-1.8802-8.8581-4.0515-10.2839-4.0515-.5976,0 .3221,1.2562 2.6088,3.5634 3.7641,3.7978 3.7581,3.7957 7.9492,2.8201zm-158.5411-3.6723c3.676-.921 10.3842-2.7577 14.907-4.0816 6.2127-1.8186 9.6266-2.5027 13.9624-2.7979l5.7391-.3908-.8384,1.3201c-2.469,3.8876-3.2803,5.4318-2.8537,5.4318 .261,0 2.4397-1.6363 4.8416-3.6361s4.8605-3.9486 5.4636-4.3305 4.2221-1.1359 8.0423-1.6756c6.9048-.9755 6.9939-.974 15.0761.2468 6.1796.9335 9.9663,1.1885 15.7829,1.063l7.6527-.1651-3.541-2.7947c-1.9476-1.5371-6.3256-4.5607-9.7289-6.7193-5.9422-3.7688-6.247-3.894-7.6775-3.1543-.8193.4237-5.4357,1.1835-10.2588,1.6886-5.7589.6031-11.1216,1.5536-15.622,2.7688-8.5412,2.3064-15.2803,3.8399-32.3451,7.3602-12.9562,2.6727-23.3929,5.1471-23.9159,5.6701-.1949.1949 7.716,5.6452 8.4607,5.8291 .093.023 3.1768-.7117 6.8528-1.6327zm-83.3847-3.5141c5.0379-1.345 12.5622-3.0899 16.7208-3.8775 11.2662-2.1338 21.4154-4.4605 24.9796-5.7266 1.7407-.6183 5.0711-1.3859 7.401-1.7058 8.5434-1.1728 7.8009-.901 7.7875-2.8512-.0116-1.6978-1.8048-6.4168-2.4383-6.4168-.1711,0-1.6016.6784-3.1791,1.5076-3.997,2.101-9.9341,2.1612-13.5181.1371-1.3347-.7538-2.52-1.6575-2.6339-2.0082-.2407-.7409 3.8511-2.0205 9.4464-2.9541 5.4936-.9167 5.6006-.964 4.2756-1.8921-1.1942-.8364-1.5615-.8035-11.9508,1.072-22.5763,4.0755-28.6037,6.2011-35.2897,12.4451-2.2804,2.1296-5.3878,4.6965-6.9053,5.7042-2.5461,1.6906-8.7081,6.3202-9.8108,7.371-.2602.2479-.3073.7189-.1047,1.0468 .7522,1.217 6.2158.5524 15.2198-1.8515zm87.394-22.9289c.2145-.2145-.0334-.3901-.5509-.3901s-1.7185-.4021-2.6688-.8935c-1.5295-.7909-2.2461-.8129-6.242-.1913-4.268.6639-6.2454,1.2919-5.6654,1.7993 .142.1242 1.3107.9772 2.5971,1.8955l2.3389,1.6696 4.9005-1.7497c2.6953-.9623 5.076-1.9252 5.2906-2.1398z" fill-opacity=".729"/>
<path d="m45.4601,207.5777v-175.9792h319.065 319.065v175.9792 175.9792h-319.065-319.065v-175.9792zm196.2634,75.6559c12.2116-.8961 24.4233-1.7764 27.137-1.9563s5.3041-.4486 5.7563-.597 2.4259-.3398 4.3858-.4251c9.0735-.3951 29.6667-2.4518 30.1522-3.0114 .1508-.1738 2.1244-.3845 4.3858-.4683s12.4995-1.2399 22.7512-2.5691 19.9688-2.5623 21.5934-2.7401 3.9682-.582 5.2081-.8982 2.7274-.5687 3.3056-.5611c2.351.0308 43.9901-8.0842 69.8451-13.612 16.6528-3.5604 44.5941-11.0964 44.9623-12.1268 .1011-.283.3766-.3955.6121-.2499 .4873.3011 10.0158-2.8527 18.8916-6.253 3.2901-1.2604 10.5157-4.5543 16.0568-7.3198l10.0747-5.0281 4.6919-5.378 4.6919-5.378 .3-4.3774c.3653-5.3301-.1664-5.384-3.4761-.3522-2.1656,3.2923-2.7027,3.6952-14.802,11.1037l-12.5549,7.6875-24.1217,7.7572-24.1218,7.7572-30.7004,5.7737c-54.2287,10.1985-55.7806,10.4509-101.6951,16.5359l-31.5227,4.1777-52.3552,2.8274-52.3552,2.8274-28.7816-.8744c-15.8299-.4809-26.7034-.9126-24.1633-.9594l4.6184-.085-1.2876-1.3705c-1.5271-1.6255-.8481-1.7952 1.0964-.2741 1.2851,1.0052 2.3281,1.0727 16.7208,1.082 16.6363.0108 18.1267-.1398 35.6344-3.6022 19.5475-3.8658 48.1628-10.6698 49.243-11.7087 .2482-.2387-.3685-.9447-1.3705-1.5689s-2.1458-1.6638-2.5417-2.3103c-.6694-1.0931-.6309-1.1488.5482-.7948 .6974.2094 2.2817.8184 3.5205,1.3534l2.2525.9727 36.3972-7.289c55.065-11.0274 93.1845-19.1254 123.884-26.3174 8.3169-1.9484 15.491-3.5425 15.9426-3.5425 .7182,0 .7311.429.103,3.4264-.3949,1.8845-.7269,4.1665-.7378,5.071s-.2093,1.9427-.4408,2.307-10.1302,2.7789-21.9969,5.3658-31.7179,7.0525-44.1137,9.9235c-41.0934,9.5177-46.1485,10.5283-79.2786,15.8486-20.8321,3.3454-20.9888,3.3779-20.67,4.2919 .5962,1.7094 19.0269-.4504 44.2435-5.1845 14.6723-2.7546 59.8334-12.2804 94.4363-19.9193 14.4005-3.1791 26.292-5.7801 26.4255-5.7801s.3163,1.5317.406,3.4039l.1632,3.4039 2.1929.5375c1.2061.2956 8.8538.5522 16.9949.5701 11.92.0263 15.9761-.1633 20.8324-.9738 14.7499-2.4615 25.4562-6.0181 45.0266-14.9578l6.651-3.0382 .3682-2.7757c.5362-4.0418 2.1248-6.9048 3.7105-6.6872 .6923.095 3.1734.4514 5.5137.792 3.9774.5788 4.3782.5431 6.1436-.548 4.4589-2.7557 8.4928-8.8291 7.7644-11.6897-.4687-1.8408-10.3185-8.0572-12.7665-8.0572-.7416,0-.5649-.399.8005-1.8078 .9637-.9943 1.7522-1.9923 1.7522-2.2177 0-.5775-3.7254.0984-6.1252,1.1112-1.9432.8202-2.2399.7787-8.4974-1.1875-3.5661-1.1205-6.5675-2.117-6.6697-2.2144s.8229-1.0885 2.0558-2.2023c1.4813-1.3382 2.2416-2.4883 2.2416-3.3906 0-1.672-.4912-1.5241-4.9148,1.48-1.7866,1.2132-3.4794,2.2059-3.7618,2.2059s-3.8114-1.0955-7.8422-2.4345c-8.6102-2.8602-13.1396-3.4858-28.7095-3.9657-14.9795-.4617-16.1033-.1436-20.2401,5.7284-3.2587,4.6257-13.2003,20.6774-16.4592,26.5753-1.4389,2.6042-2.3614,3.7005-3.1137,3.7005-1.9543,0-64.6797,13.6698-112.8668,24.5971-13.7234,3.112-54.1687,11.0374-56.327,11.0374-.1367,0 1.2234-1.1064 3.0223-2.4587s4.1699-3.5559 5.2688-4.8969c1.5533-1.8956 2.637-2.6223 4.8697-3.2656 3.9785-1.1463 23.6463-5.5645 30.8846-6.938 3.2874-.6238 6.3732-1.2507 6.8574-1.3932 .6374-.1875 1.1416.4251 1.8271,2.2199 1.1049,2.893 1.4646,2.9644 8.3526,1.6578 13.5716-2.5745 60.8703-21.4403 91.4574-36.4791 14.1066-6.9358 16.7208-8.3951 16.7208-9.3342 0-.8698-1.8203-.3895-17.269,4.556-39.0434,12.4989-59.2224,17.9539-108.2738,29.2696-17.8384,4.1152-19.1878,4.1517-19.1878.5196 0-1.045.25-2.0545.5557-2.2434 1.1086-.6852 14.9848-4.6702 34.1939-9.8199 18.4366-4.9426 19.9646-5.4484 25.1949-8.3394 8.587-4.7465 12.5908-7.5046 14.7904-10.1889 1.9331-2.3591 2.5105-3.7181 1.5796-3.7181-.2401,0-5.7292.982-12.1979,2.1823-12.1577,2.2558-27.2838,4.5787-35.8831,5.5105-2.7137.294-13.9385.7772-24.9441,1.0738l-20.0101.5392-3.3778-1.4251-3.3778-1.4251-6.9358,2.3114c-3.8147,1.2713-7.0469,2.2003-7.1827,2.0645s4.9987-2.1595 11.4101-4.4971c13.9349-5.0807 29.6391-11.17 33.997-13.1823l3.1523-1.4556v-2.9926c0-1.6459-.3703-3.8789-.8229-4.9622-.8667-2.0743-1.045-2.1089-5.0176-.9735-.8949.2557-1.2719.0499-1.5577-.8505-.2074-.6533-.2928-1.2581-.1899-1.3439s1.474-.3013 3.0469-.4789c2.8387-.3205 2.8952-.2968 7.657,3.2125 2.6385,1.9445 5.2493,3.5354 5.8019,3.5354s1.7555-.3882 2.6732-.8628c2.1006-1.0863 2.6885-.6349.7917.6079-1.7491,1.1461-1.8477,2.4498-.1846,2.4418 .6784-.003 5.5507-1.365 10.8274-3.026 14.6982-4.6269 47.269-14.5761 59.2079-18.0859l10.6903-3.1427 3.1455.8325c3.1312.8287 3.1909.8216 13.1282-1.585 5.4905-1.3296 10.2426-2.3268 10.5601-2.2159s-.2861.3901-1.3415.6206c-2.4712.5396-14.0689,3.9851-16.0355,4.7638-.8292.3283-1.5076.7719-1.5076.9857s1.609,1.3297 3.5755,2.4798 3.4728,2.1937 3.3474,2.3192-3.2109-1.2671-6.8564-3.0945-6.9665-3.3226-7.3798-3.3226c-.7926,0-1.4467,4.6231-1.4544,10.2792-.003,2.3622.1681,2.8852.9555,2.9175 .5277.0216-5.8249,1.3774-14.1167,3.0127-16.9569,3.3443-19.5793,3.8065-19.1878,3.382 .2128-.2308 16.0034-3.479 30.2892-6.2307l1.5076-.2904v-6.5351c0-4.8569-.1757-6.5351-.6842-6.5351-1.2475,0-77.6461,24.0948-97.4475,30.7333-22.2039,7.4439-24.67,8.3235-24.67,8.7997 0,1.1961 10.7129,1.3494 14.478.2072 1.4802-.449 3.2071-.7992 3.8375-.7782s-.0515.4061-1.5156.8558-2.5174.9622-2.3407,1.1389c.725.725 28.6536-.069 34.0584-.9683 1.8091-.301 4.1528-.6465 5.2081-.7678 7.7938-.8955 35.1203-5.5604 48.0608-8.2044 10.6653-2.1791 36.9155-8.9327 46.7816-12.0358 2.6143-.8223 2.452-1.05-1.3705-1.9228l-2.1929-.5007 2.3299-.0551c1.2815-.0303 2.3299-.1949 2.3299-.3658 0-.9488-3.3313-4.4191-6.12-6.3752-3.0371-2.1304-4.0268-3.4085-1.6576-2.1405 1.1251.6021 8.0046-1.0436 20.5699-4.9209 9.7165-2.9982 6.6547-1.4066-4.8311,2.5113-6.1833,2.1092-11.2443,3.9705-11.2465,4.1362-.0104.7707 5.3551,6.8396 6.1889,7.0002 .9875.1902 11.0543-3.2357 21.7664-7.4074 8.3603-3.2558 17.8733-7.9395 20.4213-10.0544 1.8966-1.5742 2.0558-1.9287 2.0558-4.5769 0-1.6518-.3373-3.3224-.7945-3.9347-.7653-1.0251-.8573-.9887-2.5069.9917-.9418,1.1307-2.0645,2.0558-2.4949,2.0558-1.0356,0-1.0113-.1331.6074-3.3273 2.294-4.5271 4.9343-5.6165 22.5716-9.313 5.9679-1.2508 17.1415-3.8329 24.8303-5.738 8.9664-2.2217 18.1945-4.089 25.7329-5.2071 11.6744-1.7315 13.7548-2.3546 14.8798-4.4567 .4558-.8516.2905-1.1221-.9817-1.6067-2.7275-1.0389-11.717-2.6964-14.6103-2.6938-5.6415.005-26.1224,3.5367-60.3552,10.4073-9.0314,1.8126-16.7408,3.2957-17.1319,3.2957-.4465,0-.7111-.71-.7111-1.9077 0-2.3027-1.5193-6.3166-2.3895-6.3131-.3442.002-2.106.6123-3.9151,1.3575-4.9637,2.0447-10.639,1.708-14.005-.8309l-1.3325-1.0051 1.6383-.6242c.9011-.3433 4.1053-1.1435 7.1205-1.7782s5.579-1.2275 5.6974-1.3174c.5597-.4252-1.3174-1.8346-2.4432-1.8346-2.0829,0-22.0105,3.7727-27.9241,5.2866-7.867,2.014-13.3375,4.8218-19.2686,9.89-2.7582,2.3569-7.376,6.0122-10.2619,8.1228-3.1119,2.276-5.254,4.2279-5.2643,4.7969-.031,1.7209 5.2254,1.1615 19.078-2.0303 7.1366-1.6443 16.4516-3.7246 20.6999-4.6229s11.6228-2.6366 16.3877-3.8631c9.8932-2.5464 10.9457-2.6775 10.203-1.2705-.2786.5277-.7489,1.8228-1.0451,2.8782-.4275,1.5229-.5502,1.6482-.5947.6072-.0542-1.2689-.1612-1.3006-3.2851-.9741-8.3227.8699-41.4289,8.0543-59.8164,12.9808-25.8164,6.9169-47.9998,14.5876-58.8318,20.3433-1.753.9315-3.2986,1.5823-3.4347,1.4462s1.1132-1.1507 2.7761-2.2548 3.0235-2.2045 3.0235-2.4453c0-.7503-1.2467-2.0297-4.8274-4.9543-3.782-3.0889-6.3554-4.6118-6.8898-4.0773-.189.189-.3436.0846-.3436-.2321s-.5551-.6946-1.2335-.8399-4.934-1.2596-9.4568-2.4763l-8.2233-2.212-8.9333.6805-8.9332.6805-2.1582,2.1074c-1.187,1.1591-2.2361,2.0001-2.3313,1.8689-.6544-.9013-1.3804-3.2539-1.0598-3.4345 .5989-.3373 11.9718-4.0015 16.2889-5.2481 2.1107-.6095 9.8817-2.467 17.269-4.1279 15.2149-3.4208 19.1878-4.5112 19.1878-5.2664 0-.8781-4.4289-.5978-12.7044.8041-13.5839,2.3012-25.0516,5.3054-49.0763,12.8566-6.6917,2.1033-12.6125,3.8806-13.1573,3.9495s-1.6851-.1598-2.5339-.5085c-1.9186-.7881-7.4495-.813-13.5472-.061-4.1594.5129-24.7748,6.8498-40.2799,12.3814-7.0719,2.523-7.8067,2.6362-12.6088,1.9419-5.2202-.7548-9.6396-.811-7.4013-.0942 .9137.2926 1.0508.4572.4112.4936-1.7252.0983-1.0084,1.0315 1.3706,1.7844 2.5993.8225 3.0452,1.7498.9594,1.9946-.9762.1146-1.1565.016-.6268-.3426 1.1813-.7997-.2333-1.3448-2.5611-.9869-1.1111.1708-1.7119.1747-1.335.009 1.0751-.4736.8038-1.7532-.522-2.4627-.8994-.4814-1.2606-.4863-1.4162-.0193-.1149.3448-.6818.6268-1.2597.6268s-1.0508.2236-1.0508.4969-.4934.3679-1.0964.2102c-.7011-.1833-1.097-.0166-1.0981.4625-.001.4659-.6746.7737-1.7817.8141-2.0909.0762-5.1021,1.1816-4.5964,1.6873 .193.193.9349.0384 1.6486-.3435s1.7618-.5979 2.3291-.4799c.6895.1434-.544,1.0016-3.7208,2.5886-2.6138,1.3057-6.5155,3.7005-8.6706,5.3217s-4.2721,2.9477-4.7046,2.9477-.7862.37-.7862.8223-.3869.8223-.8597.8223c-.6976,0-.6214-.3346.4038-1.7743l1.2634-1.7743-1.7826,1.2693c-.9804.6981-2.1326,1.9463-2.5605,2.7736s-1.1978,1.8528-1.711,2.2787-1.5253,1.7125-2.2491,2.8591-1.9855,2.3815-2.8036,2.7443-2.5977,1.4964-3.9545,2.5193-3.5771,2.3819-4.934,3.0201-2.5492,1.3453-2.6497,1.5715-.5235.4112-.9401.4112-1.0214.4934-1.3442,1.0964-.9482,1.0964-1.3898,1.0964-.803.2212-.803.4915c0,.4803-2.1065,2.0361-9.3198,6.8835-1.9599,1.3171-4.4136,3.2803-5.4527,4.3626-1.987,2.0698-2.9502,2.5257-2.4207,1.1457 .1736-.4523.1024-.8223-.1581-.8223-.963,0-11.4718,5.4318-12.641,6.534-.6658.6276-1.3355,1.1411-1.4883,1.1411s-.8415.516-1.5305,1.1466-2.0796,1.6791-3.0901,2.3299-2.244,1.9234-2.7411,2.828-1.1436,1.8164-1.4367,2.0263c-.302.2163-.1088.5444.4461.7573 .6668.2559 1.24.003 1.7974-.7928 .4501-.6427 1.0512-1.1685 1.3356-1.1685 .8732,0 .5753,1.4099-.5793,2.7411-.603.6953-1.0964,1.5965-1.0964,2.0027s-.2212.7384-.4915.7384-1.6127,1.7989-2.9831,3.9976c-2.3574,3.7823-4.7488,6.5912-4.7488,5.5779 0-.2544-.4934.0671-1.0964.7144-.6685.7176-1.0964,1.9347-1.0964,3.1186 0,1.5646-.2092,1.9417-1.0772,1.9417-.5924,0-1.3476.5053-1.6781,1.1228-.8364,1.5629.3215,6.9881 1.851,8.672 .6481.7136 5.8979,5.5819 11.6662,10.8185l10.4878,9.5212 17.4715.8419c9.6093.463 19.6426.8084 22.2962.7675s4.9767.0777 5.1624.2634 21.4511.3346 47.2564.3307c46.6524-.007 47.0446-.0163 69.1216-1.6363zm60.0303-61.4409c34.0271-8.3475 41.2349-10.375 78.9439-22.2067 13.87-4.3519 37.5532-11.4442 52.6293-15.7608l27.4111-7.8483 .1702-2.0168c.1188-1.4077-.0524-2.0168-.5667-2.0168-2.0063,0-22.9881,6.0556-59.9078,17.29-41.6646,12.6783-85.9968,25.2507-105.2586,29.8509-6.6335,1.5842-12.986,3.1067-14.1167,3.3832-1.2587.3078-2.0558.8274-2.0558,1.34 0,1.2465 1.0413,2.9578 1.801,2.9597 .3663.001 9.7939-2.2376 20.9502-4.9744zm65.4581-24.3932c36.7255-9.9554 50.4342-14.0761 72.5395-21.8047 10.888-3.8068 12.3933-4.1943 17.5965-4.5307 5.6704-.3666 5.6912-.3634 6.0403.941 .1926.7199.3536,1.8494.3578,2.51 .01,1.5966.497,1.8343 5.5584,2.7127 2.3746.4121 8.4497,1.8927 13.5,3.2902 11.185,3.095 15.6603,3.3564 19.4491,1.136 1.2891-.7554 2.8305-1.9114 3.4255-2.5688 1.0809-1.1944 1.0807-1.1959-.2748-2.2219-2.5592-1.937-16.7129-9.0073-28.022-13.998-6.6808-2.9482-12.7837-6.0412-14.9002-7.5515-1.9717-1.4069-3.7873-2.5571-4.0348-2.5558s-2.2386,1.5431-4.4247,3.4264c-2.8278,2.4361-5.6637,4.1992-9.8284,6.1103-7.6461,3.5086-16.9423,7.2812-25.1206,10.1945-3.6183,1.2889-6.8072,2.551-7.0865,2.8047-.3044.2765-.1488.858.3886,1.4518 .8536.9432.6681,1.0371-3.8779,1.9645-25.9406,5.292-41.5183,8.8332-47.6178,10.8248-3.1805,1.0385-3.6076,1.3961-7.5381,6.3109-3.8556,4.8212-4.7265,6.2498-3.8098,6.2498 .1962,0 8.1523-2.1132 17.6802-4.696zm243.739-4.2809c2.4122-.784 4.8418-1.4285 5.3992-1.4324 1.1493-.008 17.8433-6.1717 25.3013-9.3418 5.0119-2.1304 8.3446-3.8883 17.9999-9.4943 2.9649-1.7215 6.8504-3.8669 8.6345-4.7675l3.2437-1.6374v-3.0713c0-2.6712-.1249-3.0331-.9594-2.7781-.5277.1613-7.7436,3.4159-16.0355,7.2326-21.4559,9.8759-35.1778,15.7096-36.1103,15.3518-.4998-.1918-.6097-.5028-.2903-.8221 .2825-.2825 6.6763-3.0058 14.2084-6.0518 15.3381-6.2028 32.4491-14.2743 32.9328-15.5349 .3062-.798-2.1728-4.948-3.7255-6.2366-.414-.3435-5.6613-1.7195-11.6608-3.0578l-10.9082-2.4332-3.5846.994-3.5847.994-5.4962-2.7221c-3.0229-1.4971-6.4831-2.8733-7.6891-3.0582l-2.1929-.3361 1.0474,1.1823c1.5017,1.695.8174,1.9312-1.2264.4233-1.1281-.8323-2.2774-1.2136-3.2501-1.0783-1.353.1882-1.3861.1567-.3275-.3122 .6476-.2868 1.3057-.729 1.4624-.9827 .3433-.5555-23.7459-11.7431-30.325-14.0837-4.3209-1.5372-5.2182-1.6595-12.335-1.6812-4.2213-.0128-7.7984.207-7.9492.4885s1.5233,1.239 3.7201,2.1276 3.8729,1.7371 3.7247,1.8853-2.5357-.6375-5.3054-1.7461c-8.7364-3.4967-24.6164-6.9926-24.6164-5.4192 0,.5545 4.0362,2.9418 13.9296,8.2391 5.436,2.9107 6.0475,3.396 6.7179,5.3325 .4057,1.1717.6362,2.2318.5122,2.3558s-.9761-.1629-1.8937-.6374c-1.393-.7203-4.0351-.8628-16.0051-.8628h-14.3367l1.3597,2.3299c.7479,1.2815 2.7593,3.4279 4.4699,4.7699l3.1102,2.44 2.3727-1.2961c2.2128-1.2088 2.5457-1.2477 4.9391-.5776 1.7655.4943 3.0004,1.2876 3.9572,2.5419 .9444,1.2382 2.0332,1.9446 3.3928,2.2012 1.1011.2078 1.712.4756 1.3575.595s-3.4382-.2756-6.8528-.8779c-6.1683-1.0881-37.0792-2.6381-43.4605-2.1794-2.6051.1873-2.3514.3017 6.3045,2.8447l9.0188,2.6495 5.5265-.611c5.9081-.6532 11.2827-.2144 26.8186,2.1895 18.6953,2.8928 30.8745,5.9151 37.696,9.3546l5.3509,2.6979 2.0501-1.0617c3.3926-1.757 4.3318-2.6282 3.6164-3.3545-.3446-.3499-3.0583-1.4938-6.0304-2.5422-4.4906-1.584-4.9569-1.8466-2.7593-1.554 2.4457.3256 2.6041.2765 2.1066-.6531-.2959-.5528-1.0533-1.4716-1.6832-2.0417-1.3608-1.2315-1.1192-1.6349 2.8747-4.7987 3.7654-2.9828 4.2704-2.6056.8114.6059l-2.9164,2.7077 3.6719,3.7002 3.6719,3.7002 5.8674-2.6339c10.5498-4.7358 16.1186-7.5785 16.1186-8.2281 0-.351-.296-.9342-.6579-1.296-.4739-.4739-.4829-.6579-.0323-.6579 .344,0 .7966.2768 1.0056.615 .2477.4008 1.4527.5046 3.4587.298l3.0787-.3171-1.9188.9003c-1.0553.4952-4.9166,2.3062-8.5806,4.0244-10.9742,5.1463-13.7872,7.551-18.2195,15.5749l-2.8829,5.219h-3.7104c-3.9267,0-10.8286,1.5176-13.8588,3.0472-6.6495,3.3566-6.4561,8.2233.4569,11.4937 4.8721,2.3049 9.3612,2.9963 18.0136,2.7744 6.4245-.1647 8.3898-.429 12.0609-1.6222zm-485.5531-.3087c.1371-.4112-.0685-.6168-.4797-.4797-.3957.1319-.8275.5636-.9594.9594-.1371.4112.0685.6168.4797.4797 .3957-.1319.8275-.5636.9594-.9594zm12.7229-10.7378c.3814-.4596.5409-.9881.3545-1.1746-.3982-.3982-2.0101.828-2.0101,1.5291 0,.7551.8935.5638 1.6557-.3545zm4.272-3.5159c.1371-.4112-.0685-.6168-.4797-.4797-.3957.1319-.8275.5636-.9594.9594-.1371.4112.0685.6168.4797.4797 .3957-.1319.8275-.5636.9594-.9594zm3.3921-1.6789c0-.3015-.37-.5482-.8223-.5482s-.8223.2467-.8223.5482 .37.5482.8223.5482 .8223-.2467.8223-.5482zm366.9584-11.409c4.0282-2.3551 8.4808-4.7239 9.8947-5.2638s2.4766-1.2651 2.3618-1.6113-2.4314-.9258-5.1478-1.2879c-8.6224-1.1493-20.48-5.8468-21.3028-8.4391-.466-1.4681-2.9869-2.5094-7.2398-2.9906-4.6264-.5234-6.1752-.0745-6.1752,1.7899v1.4676l-1.7817-1.6907-1.7817-1.6907-9.3146,2.5426c-6.9967,1.9099-9.3582,2.7717-9.4896,3.4633-.2069,1.0887 4.3019,4.8227 8.222,6.8091l2.64,1.3378 3.5183-2.9847c3.6761-3.1185 5.7062-4.4352 6.1516-3.9897 .1448.1448-1.096,1.3366-2.7575,2.6485s-3.0282,2.6319-3.0372,2.9334c-.0198.6595 3.5947,3.1043 9.5491,6.4589 8.4259,4.747 8.3751,4.7292 13.5689,4.7554l4.7974.0242 7.324-4.2821zm-179.7808-6.4451c27.1104-7.0564 32.3646-8.5199 32.9808-9.1866 .3276-.3545.8819-1.6573 1.2318-2.8953 1.164-4.1184 7.9028-10.0841 11.3908-10.0841 .8077,0 .8813-.5071.6047-4.1648-.1732-2.2906-.4471-4.2969-.6087-4.4585s-5.9145.7109-12.7844,1.9387c-13.7472,2.457-17.7986,3.0897-24.9959,3.9037-4.647.5255-4.9612.6506-8.2912,3.3004l-3.4611,2.7541-10.6225,2.2164c-13.6846,2.8554-22.5718,4.9482-23.1095,5.4419-.2344.2152 2.2326,2.0197 5.4822,4.01s7.6352,5.0728 9.7459,6.8501c3.4573,2.9112 5.6095,4.4593 6.2645,4.5059 .1287.009 7.4063-1.8502 16.1725-4.1319zm145.3685-13.3656c8.9472-2.395 16.1567-4.0033 19.4242-4.3332 2.8579-.2886 5.2721-.4518 5.3648-.3628s-.5856,1.3878-1.5076,2.8863c-2.8889,4.695-2.2275,4.6156 4.4337-.5325 4.2112-3.2547 5.7064-4.0854 8.4142-4.675 5.871-1.2784 12.6679-1.4425 19.7396-.4767 8.3128,1.1354 23.6909,1.1962 22.7729.0902-.96-1.1568-13.7308-9.8942-16.7613-11.4677-2.3586-1.2246-3.0362-1.3534-4.6599-.8856-1.045.3011-6.0938,1.1579-11.2197,1.904s-12.8969,2.239-17.269,3.3175-16.4602,3.8014-26.8624,6.0508c-19.5987,4.2381-25.1636,5.5866-25.9599,6.2907-.6439.5694 7.2101,6.0026 8.6771,6.0026 .6518,0 7.5878-1.7139 15.4133-3.8086zm-9.6125-22.1171c2.5459-.9921 4.5635-2.0406 4.4836-2.3299-.2235-.8094-3.4434-1.8112-5.8852-1.831-3.0861-.025-8.6481,1.2088-8.9035,1.975-.2259.6776 3.9601,3.9898 5.0423,3.9898 .3487,0 2.7171-.8117 5.2629-1.8039z" fill="#fff" fill-opacity=".729"/>
<path d="m45.6257,321.7583c.0637-33.9546.2481-60.6659.4097-59.3584 .1634,1.322.9155,2.7655 1.6945,3.2519 .7704.4811 1.4007,1.6563 1.4007,2.6114 0,2.2054 6.9776,9.4616 9.1209,9.4851 .8344.009 2.107.6684 2.8279,1.465s2.0244,1.4483 2.8967,1.4483 2.1299.601 2.7946,1.3356c1.1091,1.2255 3.3406,1.3896 27.0876,1.9915 14.2334.3608 50.9715.6488 81.6401.6402 50.984-.0143 57.4673-.153 75.6759-1.6184 35.0146-2.818 45.7148-3.7887 57.9337-5.2558l30.0531-3.6197c20.6667-2.4943 41.3592-6.0337 74.5896-12.7584 49.3385-9.9844 77.5203-18.3081 101.0995-29.8606 12.9063-6.3233 13.4432-6.6747 17.3025-11.325 3.3619-4.0509 4.075-5.428 4.5736-8.8322 .7361-5.0263-.2756-6.575-2.5076-3.8384-1.1765,1.4424-1.3685,1.516-.9447.3621 .2926-.7966.6889-2.3662.8809-3.488 .4517-2.6405-1.939-5.1959-7.5861-8.1088-2.3058-1.1893-4.3261-2.2419-4.4896-2.339s.2438-.7745.9052-1.5054 1.2025-1.5475 1.2025-1.8149c0-.7522-3.1505-.5747-5.7244.3225-2.2476.7835-6.9955-.0757-12.9832-2.3495l-1.6896-.6416 1.8706-2.2231c1.8768-2.2305 2.357-3.8984 1.3087-4.5463-.3091-.191-2.3616.7534-4.5613,2.0988l-3.9993,2.4461-4.3098-1.3874-4.3099-1.3874 3.3103.3949c4.4075.5258 8.8994-.7712 11.7447-3.3912 2.2889-2.1077 2.3026-2.1589.8769-3.2824-.7966-.6277-8.1288-4.4202-16.2939-8.4276-8.165-4.0075-14.9793-7.4005-15.1428-7.5401-.4159-.3551 2.1973-3.1594 2.9441-3.1594 .3366,0 .5305.3892.4309.8649-.2122,1.0139 5.717,5.1268 12.7331,8.8325 4.4172,2.333 5.5341,2.6136 10.4058,2.6136 4.9179,0 5.8606-.2426 9.5351-2.4539 2.2427-1.3497 6.0329-3.4415 8.4227-4.6486s4.9886-2.6775 5.7751-3.2677c1.5923-1.1948 2.1451-.9745-9.0339-3.6003-7.4098-1.7404-12.9974-4.1035-15.897-6.7232-4.2062-3.8001-13.3171-5.3437-14.3918-2.4384-.5465,1.4773-.5619,1.4779-1.8343.0719-.7057-.7798-1.0175-1.5796-.6929-1.7773 1.1853-.7217 14.7582-3.4053 17.223-3.4053h2.5366l-1.435,2.3536c-2.8109,4.6102-1.4552,4.606 4.976-.0155 2.6446-1.9004 5.7859-3.8908 6.9808-4.4231 2.8558-1.2722 15.2377-1.8061 22.0872-.9524l5.4313.6769-5.2502.094c-6.6973.1199-6.8197,1.0313-.9101,6.7781 4.3347,4.2153 4.3428,4.2192 6.4816,3.1133 3.0462-1.5752 4.9991-1.3813 8.162.8106 1.5222,1.0549 2.6645,2.0212 2.5384,2.1473s-2.3317-.0761-4.9013-.4493c-5.4418-.7904-30.5662-2.1781-38.827-2.1446-4.8857.0198-5.4976.1573-4.4019.9889 .6999.5312 4.4475,1.8858 8.328,3.01 6.2548,1.8122 8.0414,2.0238 15.7455,1.8649 18.208-.3755 52.1933,6.1844 64.5935,12.4681l3.5026,1.7749 3.1059-1.8342c1.7698-1.0452 2.9551-2.2271 2.7554-2.7476-.2172-.5659 1.2481-1.6307 3.8523-2.7994 2.3115-1.0374 4.4523-1.8861 4.7573-1.8861s-.9324,1.3089-2.7498,2.9086-4.7018,5.3055-6.4098,8.235l-3.1055,5.3264-5.0978.4119c-6.7373.5443-12.2487,2.2866-14.9946,4.74-6.3832,5.7034 1.3491,12.0753 15.6901,12.9297 10.8044.6437 20.8451-1.5645 38.9824-8.5732 11.1883-4.3235 11.6669-4.5534 27.4526-13.1903l12.1222-6.6325 .008-3.0777c.009-3.4281-1.0078-3.8948-4.3373-1.9915-2.7018,1.5445-3.8417,1.4202-2.7665-.3015 .7229-1.1576.5557-1.8576-1.008-4.2206-1.8588-2.8089-1.968-2.8561-12.8962-5.5724-10.3048-2.5614-11.2867-2.684-15.0986-1.8854-3.9745.8326-4.2181.7887-9.6748-1.7451-6.2609-2.9071-9.9719-3.9053-9.9719-2.682 0,.4356-.4869.6051-1.0821.3767s-.9219-.6744-.7261-.9912c.7505-1.2143-27.59-14.3174-34.1594-15.7934-4.2236-.949-15.1547-1.0671-16.8091-.1817-1.0821.5791-3.071.3358-8.1814-1.0007-8.4949-2.2216-13.6514-2.9708-14.2546-2.0709-.2692.4017-2.1303.4838-4.446.1962-2.1906-.272-3.4632-.5405-2.8279-.5966 1.4902-.1316 3.8224-2.6995 3.2674-3.5976-.8244-1.3339-10.9347-3.2899-16.7333-3.2373-6.6188.06-9.1873.4809-47.9262,7.8518-15.6055,2.9693-28.5783,5.3987-28.8286,5.3987s-.2488-.3336.003-.7413c.6517-1.0545-1.8375-7.2246-2.9146-7.2246-.4933,0-2.2823.4888-3.9756,1.0863-5.013,1.7687-13.7593,1.0374-13.7593-1.1504 0-.3057 3.0958-1.2712 6.8796-2.1455s6.8796-1.8257 6.8796-2.114-.7192-.8451-1.5982-1.2374c-3.0403-1.3566-30.9023,4.3236-38.966,7.944-2.1964.9862-6.7587,3.9742-10.1384,6.6401l-6.1446,4.8471-.3621-4.5816-.3621-4.5816-3.2588.2351c-1.7923.1293-7.8556,1.0194-13.474,1.978s-13.6927,2.231-17.943,2.8277c-8.0998,1.137-9.3539,1.5779-13.4817,4.7393-2.0464,1.5673-5.2918,2.5292-16.8497,4.994-7.8733,1.679-15.5006,3.4632-16.9495,3.9648l-2.6344.9121 8.9836,6.3224c4.941,3.4773 9.8928,7.0317 11.0039,7.8986l2.0203,1.5763 13.5494-3.5255c17.953-4.6713 18.9985-4.7507 7.3939-.5614-5.377,1.9411-12.2204,4.5813-15.2076,5.8672-8.3721,3.6038-7.752,3.4164-6.594,1.9932 .9001-1.1062.6337-1.5863-2.4515-4.4189-4.923-4.5198-8.9349-6.4609-18.835-9.1131-8.3364-2.2333-9.0731-2.3098-18.1043-1.8814l-9.4142.4466 5.4313-1.8048c2.9872-.9926 13.0894-3.6406 22.4493-5.8845s17.5974-4.3799 18.3056-4.7467c2.3818-1.2338.514-2.1755-3.3571-1.6925-13.9028,1.7345-25.833,4.5717-51.7763,12.3135-16.7271,4.9916-18.5744,5.4023-20.7543,4.614-3.162-1.1434-18.5624.4383-23.301,2.3931-1.119.4616-3.0122.9631-4.2071,1.1143s-3.4011.7505-4.9028,1.3317c-3.7201,1.4397-5.8528,1.3269-7.4081-.3917-1.0418-1.1512-2.2304-1.4483-5.7934-1.4483s-4.7515-.2972-5.7934-1.4483c-1.2068-1.3335-2.2304-1.4483-12.9093-1.4483-9.3606,0-11.8332.2123-12.8147,1.1006-.7744.7009-3.4252,1.2666-7.2987,1.5576-4.2754.3212-6.5957.8549-7.8097,1.7961-.9695.7518-2.9055,1.3391-4.4138,1.3391-1.7671,0-3.1355.4958-3.9975,1.4483-.7209.7966-1.9934,1.4511-2.8279,1.4544-2.1074.008-20.501,18.5496-20.8278,20.9949-.1748,1.3079-.7444,1.8709-2.0524,2.0283-1.0535.1268-3.6224,2.0191-6.1443,4.5261-2.5467,2.5316-4.9641,4.3082-5.8622,4.3082-.8406,0-2.1182.6518-2.8391,1.4483-.9135,1.0094-2.2304,1.4483-4.345,1.4483s-3.4316.439-4.345,1.4483c-.7209.7966-2.0244,1.4484-2.8967,1.4484s-2.1758.6518-2.8967,1.4483c-.9269,1.0242-2.2304,1.4483-4.4511,1.4483-2.3561,0-3.3663.3617-4.0449,1.4483-.5092.8154-1.6987,1.4537-2.7218,1.4605-1.1498.008-2.8614,1.0716-4.6602,2.8967-1.5636,1.5865-3.5189,2.892-4.345,2.9011-1.9003.021-9.1059,7.2649-9.1059,9.1543 0,.7732-1.2812,2.6998-2.847,4.2813-2.2842,2.3071-2.9034,3.5163-3.1323,6.1173-.1569,1.783-.3422-42.6254-.4117-98.6853l-.1265-101.9271h318.9974 318.9974v175.6115 175.6115h-318.9974-318.9974l.1159-61.7356zm424.9572-198.7718 3.9675-1.9112-2.5192-1.0343c-2.478-1.0174-9.5509-.8753-12.4854.2507-1.9447.7462-1.4959,2.375 1.0952,3.9752 2.7162,1.6775 4.1972,1.4867 9.9419-1.2805z" fill="#fff" fill-opacity=".729"/>
<path d="m78.744,264.0657-2.3326-1.2062 8.531-3.4945c4.692-1.922 8.9918-3.6748 9.555-3.895 .7314-.2861.8469-.1066.4041.6278-.4972.8247-.3505.8132.741-.058 1.2345-.9854 1.3168-.9686.8859.181-.612,1.633-.4447,1.6003 5.9971-1.1747 4.3828-1.888 5.4212-2.6372 5.3792-3.881-.0308-.9112.4873-1.6824 1.2673-1.8864 1.5321-.4007 1.7074.2798.4141,1.6071-.5178.5315.25.3844 1.7942-.3436 2.1693-1.0227 2.5356-1.4701 1.865-2.2781-.6888-.83-.4964-.9206 1.1025-.5193 1.4984.3761 1.9369.2225 1.9369-.6786 0-.6406.3451-1.1648.7669-1.1648s.5454.3584.2747.7964c-.3459.5597-.0358.5522 1.0435-.0255 .8447-.4521 1.5357-1.1261 1.5357-1.4979s.5423-.4679 1.2051-.2135c.8568.3288 1.0399.1952.6335-.4624-.4191-.6781-.1813-.801.8912-.4606 .847.2688 1.8786.0484 2.4507-.5237 .5434-.5434 1.4378-.8381 1.9875-.6548 .67.2233.8078.0229.4179-.608-.4179-.6761-.2423-.8109.6234-.4788 .6637.2547 1.2051.1125 1.2051-.3165s.4888-.5914 1.0863-.3621 1.0863.1012 1.0863-.2846 1.0591-.7064 2.3535-.7125c1.8639-.009 2.1276-.1716 1.2673-.7827-.8351-.5933-.6222-.6703.9211-.3332 1.4286.312 2.1298.1194 2.432-.6682 .5743-1.4966 7.5752-3.4668 10.0826-2.8375 1.2516.3141 1.8229.232 1.5425-.2217-.245-.3963.2767-1.089 1.1593-1.5392 2.2784-1.1623 5.4622-1.5864 5.7363-.7641 .1356.4068 1.5854.2197 3.4817-.4494 1.7871-.6305 3.4122-1.1839 3.6114-1.2298 2.0967-.4829 2.8967-.8228 2.8967-1.2307 0-.2665.5703-.5453 1.2673-.6195 1.6594-.1767 6.3639-.7784 13.8118-1.7665 5.3444-.709 6.3286-.653 8.69.4945 1.4647.7118 2.3372,1.4058 1.9389,1.5423-16.622,5.6969-72.5528,21.6821-77.8484,22.2493-.5974.064-1.2492.312-1.4483.5511s-5.4132,2.3114-11.5867,4.605-13.3622,5.0714-15.9747,6.1728c-4.5962,1.9377-4.8256,1.9635-7.0826.7963zm5.2029-2.4136c-.4633-.7504-2.2508-.6824-2.7369.1041-.22.356.3812.6004 1.3361.5431s1.5852-.3485 1.4008-.6473zm5.0004-2.4711c-.4979-.2009-1.3126-.2009-1.8104,0s-.0905.3653.9052.3653 1.4031-.1644.9052-.3653zm4.164-.5222c0-.1527-.6518-.4481-1.4483-.6564s-1.4483-.0834-1.4483.2776 .6518.6564 1.4483.6564 1.4483-.1249 1.4483-.2776zm32.1112-11.5442c.2621.2621.4765.0963.4765-.3684 0-.9688-.1763-1.0096-1.7512-.4053-.63.2418-1.1455.7705-1.1455,1.1749 0,.4623.3608.4359.9718-.0712 .5345-.4436 1.1863-.5921 1.4483-.3301zm9.8907-4.5148c0-.1756-.3259-.3193-.7242-.3193s-.7242.3451-.7242.7669 .3259.5655.7242.3193 .7242-.5913.7242-.7669zm6.5175-1.8104c0-.4218-.3259-.5655-.7242-.3194s-.7242.5913-.7242.7669 .3259.3194.7242.3194 .7242-.3451.7242-.7669zm-.5884-2.6245c-.5228-.2092-1.1474-.1835-1.388.0572s.1871.4118.9505.3804c.8436-.0347 1.0152-.2063.4375-.4375zm5.6576-2.0827c0-.1756-.3259-.3193-.7242-.3193s-.7242.3451-.7242.7669 .3259.5655.7242.3193 .7242-.5913.7242-.7669zm16.6559-2.1725c0-.1756-.3259-.3194-.7242-.3194s-.7242.3451-.7242.7669 .3259.5655.7242.3194 .7242-.5913.7242-.7669z" fill="#ccc" fill-opacity=".729"/>
<path d="m534.8558,150.6276c-14.7067-1.1969-31.8635-1.3212-31.8635-.2308 0,.4456-1.1354-.0559-2.5231-1.1143-4.9183-3.7514-13.9894-5.4627-15.4186-2.9088-.5505.9838-.7475.9946-1.5042.0829-.7347-.8853-.1041-1.2288 4.0373-2.1994 6.559-1.5371 13.4125-2.7013 13.7741-2.3397 .1611.1611-.22,1.2846-.8468,2.4967s-1.1397,2.383-1.1397,2.6019c0,1.1481 2.6032-.0205 8.376-3.76l6.4189-4.1581 10.5258-.1346c5.7892-.074 9.4111.0863 8.0488.3562s-2.6178.9168-2.7899,1.4376 1.6633,2.923 4.0787,5.3384c3.3299,3.3299 4.7046,4.2634 5.6866,3.8613 3.1643-1.2955 7.0786-1.1595 8.8988.3093l1.8104,1.4608-2.1725-.0929c-1.1949-.0511-7.2236-.504-13.3972-1.0064z" fill="#ccc" fill-opacity=".729"/>
<path d="m46.0402,324.0692c0-42.4602.2238-59.2864.7841-58.9402 .4313.2665 1.3737,1.8337 2.0942,3.4826 1.8575,4.2505 5.9435,7.8241 13.0534,11.4163 5.8344,2.9478 6.5898,3.1372 14.4834,3.6319 16.2771,1.02 139.9435,1.5856 156.7831.7171 27.5507-1.421 60.6784-4.456 96.6769-8.8571 26.072-3.1875 36.2085-4.7834 64.4512-10.1475 63.4175-12.0447 94.1921-20.7453 122.8465-34.7312 8.6004-4.1978 10.8118-5.625 13.8263-8.9233 4.4751-4.8965 5.989-8.0308 5.989-12.3999 0-3.1078-.1361-3.3792-1.5142-3.0189-1.3041.3411-1.4528.1514-1.0717-1.3671 .663-2.6415-1.3304-5.0581-6.9032-8.3688l-4.9406-2.9352 1.2075-1.8428 1.2075-1.8429-5.3984.4999c-4.4245.4097-6.2788.2268-10.2791-1.0141l-4.8807-1.514 1.9186-2.8991c2.189-3.3078 1.6008-5.0687-1.1936-3.5732-2.2705,1.2151-2.5842.4344-.4004-.9964 2.8543-1.8702 2.3224-3.5876-1.694-5.4687-1.9398-.9086-5.0005-2.5122-6.8016-3.5636l-3.2746-1.9117h7.3447 7.3447l8.869-5.0692c4.878-2.7881 8.7664-5.3799 8.641-5.7596s-2.3242-1.2205-4.8861-1.8683c-5.8032-1.4675-7.7675-2.3042-3.9338-1.6756 1.5932.2612 3.5484.4756 4.345.4764 23.1862.0235 53.6138,5.2236 68.8451,11.7656 5.8005,2.4914 6.0859,2.5408 8.2382,1.4278 1.2263-.6341 2.6333-1.8216 3.1267-2.6387 .7905-1.3091 5.4643-4.262 6.7459-4.262 .2614,0-.6421,1.2367-2.0076,2.7482s-3.7267,4.7634-5.247,7.2264c-2.2656,3.6706-3.1717,4.5362-5.0242,4.7996-11.9112,1.6936-15.0409,2.6669-18.3729,5.7135-2.167,1.9815-2.167,5.5625 0,7.544 4.4186,4.0403 11.8343,5.6787 22.8686,5.0526 15.1747-.861 33.3097-7.2672 58.2386-20.573 13.9122-7.4256 14.3021-7.6955 14.2913-9.8916-.0201-4.0903-1.5427-4.8557-5.9633-2.9975-1.0134.426-1.2673.1656-1.2673-1.2997 0-3.4043-3.0395-5.9255-9.2065-7.6368-11.2216-3.114-15.5074-3.8263-20.0772-3.3369-4.0098.4294-5.0066.228-10.859-2.1947-4.3574-1.8037-7.0874-2.5388-8.4311-2.27-1.3498.27-2.1164.0609-2.3898-.6517-.4442-1.1576-15.7587-8.7254-26.5227-13.1064l-6.8796-2.8-11.2247-.1023c-8.6895-.0792-12.7785-.4602-18.1043-1.6872-4.9767-1.1466-8.0146-1.4608-10.9829-1.136-3.8291.419-6.0186-.3109-4.2365-1.4123 .4048-.2502.736-1.0748.736-1.8326 0-1.6142-2.551-2.4455-11.1939-3.6476-7.5005-1.0432-8.9181-.8562-47.464,6.2631-18.1224,3.3471-33.2757,6.0848-33.674,6.0837s-1.213-1.5482-1.8104-3.438c-1.224-3.8717-.1029-3.6181-11.6754-2.6406-3.4139.2884-6.0387.1751-6.8796-.2969-1.6013-.8988-1.6781-.8615 6.1662-2.9922 5.9092-1.6051 6.2294-1.7721 5.539-2.8894-1.1202-1.8125-13.0152-.3108-28.4847,3.5961-10.0462,2.5372-14.0222,4.387-21.5979,10.0485l-5.7083,4.2659-.5306-4.0183c-.2918-2.21-.6893-4.177-.8832-4.3709s-9.4056,1.022-20.4704,2.702c-15.9284,2.4186-20.8717,3.4332-23.7386,4.8723l-6.1555,3.0917c-1.394.7007-8.5633,2.65-15.9318,4.3316-14.9301,3.4074-18.1128,4.2871-18.0859,4.9992 .0101.2678 2.8007,2.3944 6.2014,4.7257s6.0346,4.3871 5.8533,4.5685-1.587-.1981-3.1237-.8432c-6.9275-2.9084-16.229-4.7052-24.3569-4.7052-4.404,0-7.8715-.1356-7.7056-.3013 .2436-.2432 14.5775-4.0598 39.9501-10.6373 1.7177-.4453 2.7156-1.1311 2.7156-1.8663 0-2.8102-18.6234.7822-49.9678,9.6388l-22.0872,6.2409-10.1384.1734c-8.9137.1525-11.1882.4624-18.8285,2.5654-10.8674,2.9913-13.4858,3.3146-15.6716,1.9353-.9397-.5929-3.6551-1.3081-6.0344-1.5892s-4.9773-.9674-5.7735-1.525c-2.0308-1.4224-23.0811-1.4378-26.5639-.0194-1.3431.547-4.5395,1.2218-7.1031,1.4996s-5.5078.9429-6.5426,1.478-3.1576,1.2123-4.7172,1.5049c-5.0513.9476-10.628,4.9658-19.332,13.9291-4.6222,4.7599-8.6082,9.2977-8.8577,10.0839s-1.2993,1.8148-2.3328,2.2857-3.7157,2.4227-5.9605,4.3373c-4.6139,3.9353-8.8922,6.2952-12.7112,7.0117-1.4308.2684-4.675,1.5692-7.2093,2.8906s-5.8731,2.6309-7.4195,2.9099-3.2625.8722-3.8136,1.3181-2.216,1.4625-3.6997,2.2591c-8.6678,4.6537-15.2928,10.0258-17.3744,14.0888-.7234,1.4119-2.3253,3.834-3.5598,5.3824l-2.2445,2.8152v-98.949-98.949h318.6354 318.6354v175.6115 175.6115h-318.6354-318.6354v-59.4248zm425.0432-201.01 4.0283-1.8876-2.5346-1.0801c-2.9414-1.2535-12.5719-.9487-13.9626.442-1.9431,1.9431 2.6892,5.4674 6.3134,4.8032 1.1699-.2144 3.9399-1.2393 6.1555-2.2774z" fill="#f55" fill-opacity=".729"/>
<path d="m46.727,324.7536v-58.7404l2.8567,4.2465c3.1153,4.6308 7.0285,7.5982 14.7527,11.1869l4.9364,2.2935 20.7717.5972c37.7692,1.0859 137.6005.8085 155.8857-.4333 47.4734-3.2239 96.3096-8.8666 131.7431-15.2222 73.883-13.2521 109.3506-22.9035 140.4892-38.2298 9.5858-4.7181 14.6154-8.8223 17.3284-14.1402 2.0209-3.9612 2.2746-10.2398.4138-10.2398-.6594,0-1.0863-.6731-1.0863-1.7128 0-2.473-2.3531-5.1047-7.2873-8.1502-4.2097-2.5984-4.2935-2.7112-3.2245-4.3427 .6037-.9213 1.0975-1.8243 1.0975-2.0068s-2.4479-.1466-5.4398.0797c-3.9923.302-6.6922.0724-10.1464-.8626l-4.7066-1.274 1.4564-2.3565c1.6755-2.7111 1.8864-4.7201.4955-4.7201-.6474,0-.8607-.6823-.6539-2.0915 .2883-1.9642-.0608-2.2938-5.7378-5.4179l-6.0447-3.3265 6.6415-.0134 6.6415-.0134 6.3936-3.6835c7.5006-4.3213 11.3796-7.1382 10.7342-7.7953-.2539-.2585-1.4973-.8812-2.7632-1.3837-1.9669-.7808-.8677-.8613 7.5578-.5533 20.1496.7365 43.1777,5.0451 58.9174,11.0236 4.0344,1.5324 7.1395,2.3072 8.1897,2.0436 .9304-.2335 3.1455-1.7647 4.9224-3.4026s3.3915-2.8173 3.588-2.6208-1.684,3.0832-4.1788,6.415l-4.5361,6.0577-7.6038,1.4758c-7.5597,1.4672-12.4578,3.634-13.3253,5.8947-.9811,2.5567-.4024,5.4558 1.4276,7.1517 3.0739,2.8488 7.9156,4.1409 16.967,4.5278 10.1375.4334 17.622-.8015 30.0531-4.9584 8.4922-2.8398 34.5866-15.1793 43.6655-20.6485 4.4969-2.709 4.5572-2.7878 4.345-5.6715-.2149-2.9205-.2192-2.9243-3.2086-2.8681-2.7845.0524-3.0772-.1337-4.1944-2.6658-.8512-1.9292-2.0885-3.1509-4.2483-4.1948-4.8327-2.3355-17.9488-5.1445-24.0215-5.1445-4.2126,0-6.7394-.4828-11.3692-2.1725-3.2741-1.1949-6.744-2.1725-7.711-2.1725s-3.5974-1.1173-5.8454-2.4829c-4.2339-2.572-18.9246-9.4246-26.5174-12.3693-3.6783-1.4266-6.1229-1.7442-15.9318-2.0698-6.3727-.2115-14.3567-.8896-17.7422-1.5067s-8.1357-1.1225-10.5561-1.123l-4.4006-.0007 .3063-2.0868c.1684-1.1477-.0187-2.2876-.4159-2.5331-1.4656-.9058-12.2248-2.6216-16.4351-2.621-4.5456.0007-14.3679,1.5955-51.0245,8.2848-12.1317,2.2136-22.5854,4.0249-23.2306,4.0249-.6789,0-1.7589-1.2963-2.5642-3.0777l-1.3913-3.0777-9.0521.1565-9.0521.1565 6.1555-2.0299c4.0852-1.3472 6.2342-2.4349 6.3896-3.2342 .487-2.5048-12.322-1.2486-28.2029,2.766-9.4276,2.3832-14.7402,4.7615-21.5491,9.6466-5.6462,4.051-6.5573,4.0706-6.6055.1423-.0463-3.7777-.4386-3.8732-10.5887-2.5785-20.8691,2.6621-30.7538,4.6745-36.7884,7.4895-3.6761,1.7148-11.4632,4.1102-21.675,6.6675-8.7657,2.1951-16.0467,4.332-16.18,4.7486s1.8973,2.3283 4.5122,4.2484c2.615,1.92 4.6104,3.635 4.4344,3.8111s-1.5137-.1786-2.9726-.7882c-3.3799-1.4122-13.3867-3.3216-17.4082-3.3216-1.6985,0-4.1627-.2149-5.4759-.4775-1.9823-.3965.6855-1.2971 15.7152-5.3054 21.2627-5.6706 20.5275-5.4208 20.5275-6.9749 0-1.0759-.691-1.1666-5.9744-.785-8.0669.5827-18.3003,2.9742-50.1489,11.7195-15.8312,4.3471-17.158,4.5924-26.7943,4.9538-7.9505.2982-12.0879.861-19.1724,2.6078-4.9687,1.2251-9.7269,2.2275-10.5738,2.2275s-5.4174-.9952-10.1566-2.2117c-11.804-3.0298-23.8294-3.1436-37.3682-.3537-18.6011,3.8331-23.7503,6.9291-37.5672,22.5876-5.8235,6.5998-15.1664,14.1907-20.2765,16.4744-2.6687,1.1926-10.9759,4.5114-19.1338,7.644-6.8084,2.6144-17.3395,9.2712-21.4525,13.5603-1.8415,1.9204-4.53,5.2795-5.9744,7.4648l-2.6262,3.9733v-98.2966-98.2966h318.2733 318.2733v175.6115 175.6115h-318.2733-318.2733v-58.7404zm424.8586-201.6099 4.2129-1.9721-2.5144-1.0678c-2.5657-1.0896-13.8189-1.1356-14.8927-.0609-.9292.93.3326,3.9497 2.0028,4.7931 2.3486,1.1861 6.3279.5843 11.1915-1.6924v1e-005z" fill="#1a1a1a" fill-opacity=".729"/>
<path d="m46.8552,325.3792 .0229-58.1147 1.6054,2.1725c3.893,5.2681 6.6772,7.5584 13.6938,11.2643l7.4663,3.9434h87.6247c85.3361,0 88.1165-.0433 106.4532-1.6571 55.1743-4.8559 90.6893-9.5349 133.6096-17.6026 60.5011-11.3723 94.7619-21.3101 122.5575-35.5491 8.205-4.2032 13.5545-8.709 15.7678-13.2811 1.9239-3.9742 2.1458-9.2264.4682-11.0802-.6605-.7299-1.2009-1.8439-1.2009-2.4757 0-1.21-5.4465-6.3506-8.8729-8.3747-1.1101-.6557-1.8489-1.607-1.6419-2.1139l.816-2.0079c.3703-.915-.5343-1.0862-5.7381-1.0862-5.9603,0-13.5299-1.2076-13.5299-2.1585 0-.2538.4785-1.094 1.0632-1.8671 1.2108-1.6008 1.4264-4.0457.4464-5.0628-.3646-.3784-.7719-1.4599-.9052-2.4033-.1711-1.2107-1.5633-2.5125-4.7325-4.4249l-4.4901-2.7096 5.8148-.4849c5.3955-.45 6.2939-.7755 12.456-4.5136 3.6526-2.2158 7.3917-4.7232 8.3091-5.5721 1.5893-1.4706 1.6064-1.5909.3621-2.5507-1.1262-.8687.0398-.9422 8.4704-.5339 17.6545.8549 37.8195,4.6399 54.3139,10.1946 8.7829,2.9578 10.0043,3.0549 12.6125,1.0034 3.1181-2.4527 3.0366-.9971-.1829,3.267-2.7511,3.6438-3.3013,4.0104-7.1622,4.7722-6.3556,1.2541-11.9275,2.9156-14.1337,4.2147-2.6594,1.5659-3.8695,5.2286-2.5897,7.8387 2.2768,4.6436 8.7978,6.7582 20.8693,6.7675 16.5171.0127 28.1989-3.6344 56.8475-17.748 6.771-3.3357 13.8773-7.0624 15.7919-8.2815 3.3561-2.1371 3.473-2.3267 3.2588-5.2842-.2158-2.9801-.3002-3.074-2.9571-3.2935-2.2653-.1871-3.0319-.6964-4.4647-2.9661-.9514-1.5071-2.8165-3.2535-4.1448-3.8809-4.0326-1.9049-13.5043-4.0223-23.0538-5.1537-4.9787-.5898-10.977-1.7463-13.3295-2.5698s-4.7966-1.4969-5.4313-1.4963-7.1827-2.8963-14.5511-6.4375c-19.7193-9.477-21.28-10.0004-31.5014-10.5647-4.7795-.2639-12.876-.9459-17.9921-1.5156s-11.2263-1.0359-13.5782-1.0359h-4.2761v-2.4624c0-2.3636-.1525-2.5016-3.8019-3.4398-2.3224-.5971-7.6064-.9626-13.5782-.9393-8.9417.0349-12.4306.5168-40.8674,5.6453-17.1001,3.0839-31.7646,5.5108-32.5877,5.3931-.8644-.1236-2.1084-1.3604-2.9449-2.9277l-1.4483-2.7137-7.2417-.045-7.2417-.045 4.3353-1.5863c2.7343-1.0005 4.4253-2.0543 4.5792-2.8536 .7616-3.9572-30.6753,1.3983-42.0869,7.1698-2.0682,1.046-5.6162,3.1602-7.8845,4.6982s-4.4618,2.7964-4.8744,2.7964-.9465-.8962-1.1865-1.9915c-.7982-3.6429-.9545-3.8019-3.7325-3.7989-3.595.004-26.697,3.3708-33.0859,4.822-2.7508.6248-8.5083,2.387-12.7945,3.916s-13.93,4.4435-21.4308,6.4768-13.9637,4.0294-14.362,4.4357c-.4868.4967.4625,1.8117 2.8967,4.0125 1.9915,1.8005 3.02,3.0765 2.2857,2.8356-1.8031-.5915-12.1336-2.4402-17.4933-3.1305l-4.345-.5596 16.6559-4.6363c18.2421-5.0778 19.1905-5.4226 19.1905-6.9759 0-.8116-1.0022-1.0608-4.265-1.0608-6.0801,0-13.7295,1.5566-35.5644,7.2373-32.3608,8.4192-33.3093,8.6224-43.8719,9.4017-5.5434.409-14.282,1.6192-19.4193,2.6893l-9.3405,1.9457-10.2121-2.0888c-8.1982-1.6769-11.9973-2.0795-19.2643-2.0418-13.0329.0676-28.1745,3.0675-36.4538,7.2222-5.0991,2.5588-7.85,4.9012-20.0316,17.0566-5.7753,5.7629-12.4978,11.7843-14.9389,13.381s-8.7957,4.6319-14.1213,6.7449c-19.0925,7.5751-28.0523,13.213-35.1111,22.0936-2.2161,2.7881-4.1633,5.205-4.3271,5.3709s-.2978-43.5831-.2978-97.22v-97.5217h317.9112 317.9112v175.6115 175.6115h-317.9112-317.9112l.0229-58.1147zm425.4752-202.2202c3.8992-1.729 4.1633-1.9827 2.8492-2.7363-2.0537-1.1777-15.3088-1.6452-16.5863-.5849-1.2973,1.0767-.675,3.4154 1.2879,4.84 2.0819,1.511 6.9584.916 12.4492-1.5188z" stroke="#000" stroke-width=".3"/>
<path d="m630.4884,272.345a64.4512,56.1233 0 1,1 -128.9025,0 64.4512,56.1233 0 1,1 128.9025,0z" fill="#fcffff" filter="url(#filter5007)"/>
<path d="m62.5948,279.5072c-7.0556-3.5726-11.3349-7.1652-12.7643-10.7161-.4984-1.238-1.6593-3.2592-2.5799-4.4917-1.6159-2.1633-1.6738-2.7324-1.6738-16.4408 0-15.3264.175-16.24 4.05-21.1477 1.2579-1.5932 2.7956-3.899 3.417-5.1242 1.7459-3.442 10.3624-10.2464 16.9438-13.3805 1.6763-.7982 3.2259-1.7396 3.4436-2.0919s1.654-.8531 3.1916-1.1129 4.9778-1.5702 7.6447-2.912 5.8879-2.6472 7.1578-2.9009c3.7153-.7422 8.5266-3.3641 12.9078-7.0339 2.2448-1.8803 4.9328-3.8066 5.9735-4.2807s2.6796-2.2058 3.6421-3.8482c2.4245-4.1371 17.5675-18.534 21.474-20.416 4.9206-2.3706 12.0642-4.4892 17.9327-5.3185 2.9196-.4125 5.9652-1.1016 6.768-1.5312 2.3649-1.2657 22.6564-1.0762 24.6635.2303 .9027.5876 3.7562,1.3053 6.3412,1.595 2.585.2897 5.1276.8816 5.6503,1.3154s2.1383.9818 3.5902,1.2178c2.359.3835 1.1417.9115-11.4437,4.9642l-14.0835,4.5351-5.7934-.6552c-4.532-.5125-5.9601-.4483-6.5592.2947-.485.6016-1.14.7187-1.7861.3193-.5612-.3468-1.3571-.3549-1.7688-.0181s-3.1925,1.3576-6.1797,2.2682c-4.3127,1.3147-5.0734,1.7425-3.6936,2.0772l1.7377.4214-1.8458.841c-1.0152.4626-2.5304.662-3.367.4432-.8748-.2288-1.5212-.0542-1.5212.4108 0,.4447.4073.8185.9052.8307s.2961.3759-.4483.8084c-1.0251.5956-1.501.5478-1.9613-.197-.5115-.8277-.7559-.8267-1.5432.006-.7645.8089-.7631,1.0526.008,1.3344 .6997.2556.6061.6006-.3621,1.3348-1.5397,1.1676-2.6656,1.3406-2.0299.312 .2462-.3983-.0413-.7242-.6387-.7242-1.4675,0-2.2944,1.4787-1.2038,2.1527 .6442.3982.5726.6595-.2693.9826-.6309.242-1.147.113-1.147-.2868 0-1.467-2.8516.8235-5.926,4.76-1.7931,2.2958-3.6798,3.9783-4.4614,3.9783-.8957,0-1.2156.3615-.9447,1.0675 .2879.7502-1.357,2.1445-5.5348,4.6916-6.0666,3.6985-16.5454,11.0839-23.2456,16.3832-2.0526,1.6234-4.141,2.8153-4.6409,2.6487-1.2418-.4139-12.1721,5.1542-15.7251,8.0107-6.6461,5.3433-9.2669,9.2368-5.7908,8.6028 .9376-.171 1.1664.088.8367.9472-.9354,2.4377-7.1807,10.5538-9.2607,12.035-1.2379.8814-1.9977,1.9637-1.7789,2.5338 .21.5473-.421,1.8615-1.4024,2.9204-1.9816,2.1382-2.1147,3.0293-1.0341,6.9202 .6887,2.4798 7.4887,9.4366 20.975,21.4585l2.5346,2.2594-5.4313.008c-5.0184.007-5.9267-.243-11.9488-3.2923v-4e-005z"/>
<path d="m169.1045,57.6233a1.0169,1.6949 0 0,1 -1.8777.9027l.8607-.9027z" fill="#fff" stroke="#000" stroke-width=".3"/>
<path d="m266.3927,86.4368a3.8983,5.0847 0 1,1 -7.7966,0 3.8983,5.0847 0 1,1 7.7966,0z" fill="none" stroke="#000" stroke-width=".3"/>
<path d="m220.6299,69.6572a.339,.8475 0 1,1 -.678,0 .339,.8475 0 1,1 .678,0z" fill="none" stroke="#000" stroke-width=".3"/>
<path d="m145.0435,159.7226c-2.1323.8264-4.2561,1.5701-6.2952,2.6135-1.9002.9124-3.8161,1.8023-5.7896,2.5458l-.7527-.0917c1.9754-.7362 3.8904-1.6266 5.7907-2.5369 2.037-1.0449 4.1529-1.7974 6.2847-2.6219l.7621.0911z" stroke="#000" stroke-width=".3"/>
<path d="m122.4692,176.7791c-2.3635,1.0147-4.5892,2.3819-6.739,3.7917-1.5555.9982-3.0398,2.1129-4.4535,3.3037-1.2733,1.1707-2.5006,2.4003-3.6174,3.7232-1.6818,1.7434-3.4861,3.3584-5.3435,4.9106-1.4312.9255-2.3938,2.7609-4.1293,3.1714-.1455-.0902-.4555-.1004-.4364-.2705 .0107-.0951.9136-.5038 1.2145-.6504 1.2474-.6079 2.4788-1.2368 3.7041-1.8883 3.5995-1.658 7.0963-3.4244 10.9191-4.5144 2.1355-.5713 4.2668-1.1384 6.3088-1.9931l.7549.0889c-2.0442.8647-4.1822,1.4292-6.3235,2.0005-3.824,1.0789-7.317,2.8407-10.9138,4.4989-1.4498.7756-2.9533,1.4526-4.4006,2.2283-.1728.0926-.3081.2649-.4984.3122-.3543.088-.7281.0553-1.0922.083 1.7538-.3173 2.7164-2.2322 4.1409-3.1325 1.8547-1.5482 3.6547-3.1596 5.3349-4.898 1.1169-1.3279 2.3466-2.559 3.6192-3.736 1.4136-1.1964 2.9004-2.3137 4.4598-3.3123 2.1482-1.4146 4.3786-2.7717 6.7312-3.8125l.7602.0954z" stroke="#000" stroke-width=".3"/>
<path d="m156.5014,155.5774c-3.4978-.9012-7.015-1.7127-10.5734-2.3341-2.2187-.3767-4.4167-.7272-6.6311-.2349-1.8058.7419-3.4731,1.8002-5.1271,2.8326-1.9759,1.3533-3.7848,2.9184-5.1922,4.862-.9406,1.5892-1.8383,3.1395-3.0755,4.5203-1.4637,1.5108-3.0143,2.8124-4.7979,3.9222-2.0989,1.3729-3.9179,3.0821-5.6866,4.8454-1.4517,1.4016-2.738,2.9436-3.4479,4.8447-.5036,1.6113-.7504,3.3341-1.5634,4.8226-.9592,1.5986-2.1876,3.0084-3.3648,4.4459-1.1142,1.3032-2.0219,2.7725-3.1671,4.0485-1.2956,1.4599-2.9489,2.365-4.77,2.9968-1.3327.4926-.6752.2561-1.9721.7106l-.7539-.0936c1.2985-.4526.6403-.2161 1.9741-.7107 1.817-.6172 3.4666-1.5093 4.7604-2.9592 1.1535-1.268 2.0545-2.7432 3.1701-4.0445 1.1732-1.4354 2.4013-2.8395 3.3626-4.4321 .823-1.4778 1.0574-3.2062 1.5638-4.8112 .7055-1.9147 1.9934-3.468 3.4534-4.8772 1.771-1.7669 3.591-3.4802 5.6883-4.8626 1.7804-1.1054 3.3315-2.393 4.7916-3.9012 1.2401-1.377 2.1433-2.9199 3.0777-4.5121 1.4068-1.9535 3.2183-3.5266 5.1957-4.8911 1.657-1.0366 3.3266-2.0916 5.1263-2.8583 2.68-.6262 5.4439-.1773 8.1258.2331 3.5629.6272 7.082,1.4502 10.5908,2.3292l-.7574.109z" stroke="#000" stroke-width=".3"/>
<path d="m108.9613,183.1116c2.3138-1.4465 4.6444-2.8767 7.0593-4.1501 2.2571-1.083 4.6257-1.9163 7.046-2.5496 1.9494-.476 3.9502-.6267 5.9488-.6955l.7531.1167c-1.999.0648-4.0007.2087-5.952.6781-2.4208.6247-4.7866,1.4594-7.0462,2.5321-2.4155,1.2651-4.7445,2.694-7.0494,4.1484l-.7595-.0802z" stroke="#000" stroke-width=".3"/>
<path d="m146.0367,155.7442c-2.8997-.0641-5.8005-.0557-8.7007-.0436-12.1469.0262 16.1894-.0359 27.6821-.003 .4358.001-.87.0544-1.3047.0862-1.2735.0931-2.2579.285-3.4393.7571-1.6564.676-3.1088,1.7615-4.4794,2.897-1.2189,1.3055-2.5936,2.4488-3.8976,3.6698-1.1241,1.2296-2.4039,2.3087-3.5255,3.5359-.5755.3451-.8754.9773-1.3766,1.402-.5097.4318-.6872.2775-1.1883.8424-.7298.5012-1.1531,1.3147-1.7409,1.9533-1.7663,1.9191.9907-1.3762-1.0215,1.0802-.8821,1.437-1.8809,2.7392-3.0583,3.9431-1.0424.9141-1.6168,2.2723-2.7235,3.1072-1.0146,1.1169-2.4105,1.721-3.7718,2.3299-1.4393.5397-2.9843.7913-4.5165.6773-.9983.2211-2.081.1303-3.068.4034-.4852.1343-.9419.3568-1.4207.512-1.6208,1.03-3.3294,1.8359-5.096,2.5857-1.1806.6183-2.7412.6023-3.8175,1.4057-.6298.9445-.5545,2.2033-.5866,3.2987l-31.2484-.0936c.05-1.6339.1257-3.2756.5138-4.8713 .9062-2.2699 1.965-2.8814 4.2294-3.6149 .9946-.2447 1.8526-.634 2.8104-.9618 .2487-.0851.5321-.0569.7708-.1671 .4751-.2192.7663-.7488 1.3082-.8674 1.358-1.0749 2.9106-1.8338 4.63-2.0997 1.4229-.4842 2.9311-.1478 4.4178-.2789 .6572-.0601 1.3123-.1123 1.9194-.4013 .2154-.1025.3851-.3009.6142-.3675 2.1898-.636-.9714.7288 1.0204-.1861 1.0856-1.0448-.1238-.015.944-.5982 .6676-.3646 1.3741-1.5997 1.8654-2.1844 1.0721-1.1663 2.4295-2.0438 3.0838-3.5442 .3358-.5111.5784-1.0878.9713-1.5565 .1301-.1552.3494-.2118.4944-.3532 .4733-.4617.7615-1.107 1.1376-1.6395 .5003-.4214.6924-1.0989 1.267-1.4309 .8572-.4953.1117.3671.9263-.4029 .1784-.1686.3105-.3804.4657-.5705 1.245-.8528-.28.2523 1.0627-.9657 .8649-.7846 1.8468-1.4541 2.6092-2.3557 .838-.9058 1.6937-1.7931 2.6424-2.5805 .1979-.1642.4585-.2481.6413-.4289 .2384-.2358.4033-.5359.605-.8038 .6619-.6705 1.3238-1.419 2.093-1.9709 .2519-.1807.5547-.2839.8024-.4703 2.822-2.1238-1.2034.5537 1.8367-1.4106 1.1893-.6125 2.3717-1.4315 3.68-1.7707 .435-.1128.888-.1649 1.3374-.1698 20.3315-.2211 21.8052-.2139 33.3376-.1883 3.0839.0136 6.1681.014 9.2515-.0436l-30.9892,4.9082z" stroke="#000" stroke-width=".3"/>
<path d="m176.8508,156.8726c-2.4636-.0251-4.9275-.0184-7.3912-.0141l-7.307.003-6.6984-.001-6.2798.006-4.9832-.003 15.7564-2.4956 5.02-.003c2.0679.003 4.1357.008 6.2036.006l6.7115-.001c2.4236.004 4.8473.006 7.2709.003 2.5232.004 5.0465.0101 7.5696-.0141l-15.8725,2.514z" stroke="#000" stroke-width=".3"/>
<path d="m163.3129,154.3563c2.3951.0274 4.7905.019 7.1857.0142 7.0492.2662 14.8622-2.3442 21.1958,1.117 1.9372.8376 4.0615,1.0031 6.1424,1.1441 1.5959.5122 3.2944.5295 4.9.9566l-15.8554,2.1911c-1.6122-.2188-3.1882-.6248-4.805-.8054-2.1604-.2674-4.2972-.68-6.272-1.6406-5.3665-1.7751-11.3223-.4335 13.3536-.4671l-.9126-.002-2.0245-.004c-2.3353-.005-4.6708-.0143-7.0061.0142l-15.902-2.5186z" stroke="#000" stroke-width=".3"/>
<path d="m195.4601,148.864c1.9344,1.098 3.4596,2.7256 5.094,4.1965 1.6015.7826 2.9145,1.9856 4.3578,2.9956 .9394.7651 1.5911,1.5207 2.0339,2.6587l-16.0716.7195c-.4911-.7746-1.2347-1.3244-1.9409-1.8979-1.3801-1.1215-2.9149-2.0261-4.2741-3.1706-1.5618-1.5148-3.2434-2.896-5.2188-3.8454l16.0198-1.6565z" stroke="#000" stroke-width=".3"/>
<path d="m181.2422,164.5341c-2.0174.9785-3.9892,2.0508-5.9705,3.1006-1.6009.7935-3.299,1.3977-5.0165,1.886-1.5658.4147-3.1859.4737-4.7952.5239-1.4793.2058-2.9403.5048-4.4311.6231-1.2438.1589-2.3613.6743-3.5283,1.0842-1.2793.527-2.5686.9934-3.7979,1.6339-1.1855.7462-2.4243,1.3164-3.7205,1.84-1.5221.5142-3.0728.9473-4.5783,1.5111-1.7561.7708-3.5153,1.5317-5.2391,2.3732-1.8304,1.3239-3.8281,2.3538-5.847,3.3525-1.5993.6726-3.0719,1.5977-4.6391,2.3313-1.2792.6202-2.5285,1.2856-3.8064,1.9088-1.2537.6364-2.4972,1.2845-3.787,1.8522-1.6341.776-3.3352,1.3995-5.0101,2.084-1.671.6331-3.3325,1.299-4.933,2.0953-1.4635.8414-2.9816,1.595-4.5572,2.2024-1.5749.5845-2.7577,1.7857-4.1674,2.6559-1.6037.8787-3.3333,1.4902-4.9827,2.2686-1.3588.6485-2.7846,1.1306-4.1883,1.6675-1.8547.6978-3.5456,1.7433-5.3395,2.5857-1.3988.5794-2.7716,1.2167-4.1278,1.8891l-15.8559-1.709c1.3339-.7827 2.7587-1.3944 4.1745-2.016 .9757-.4008 2.0491-.7967 2.9695-1.3119 .7689-.4304 1.4023-1.1264 2.2718-1.3933 1.4027-.48 2.7757-1.0203 4.1604-1.5413 1.6649-.7337 3.3245-1.4715 5.0288-2.1145 .7599-.4001 1.5109-.7686 2.1693-1.33 .2817-.2402.9785-.9743 1.3011-1.1849 .1986-.1296.4348-.1895.6522-.2843 1.4721-.7921 3.1553-1.1782 4.5936-2.0667 1.5594-.9933 3.2714-1.6487 4.974-2.3532 1.6826-.5517 3.2526-1.374 4.9355-1.925 1.2461-.6775 2.6225-1.086 3.7791-1.92 1.3227-.5208 2.5447-1.2113 3.8102-1.8341 1.5656-.8242 3.1754-1.5516 4.7493-2.3653 2.0177-.8661 4.0904-1.7801 5.7946-3.1832 1.5725-1.1228 3.4497-1.7479 5.2062-2.5357 1.4064-.8062 3.004-1.2649 4.5645-1.6578 1.2863-.4272 2.6366-.7954 3.6955-1.679 1.2667-.5769 2.4183-1.3742 3.7882-1.705 1.1362-.5924 2.3467-1.0508 3.5753-1.3991 1.4382-.493 3.0298-.2818 4.4926-.751 1.566-.3487 3.1866-.1071 4.7725-.3753 1.7443-.2925 3.3874-.9143 5.0513-1.4941 1.9921-.9355 3.9412-1.9878 5.8283-3.1157l15.9806,1.7766z" stroke="#000" stroke-width=".3"/>
<path d="m176.6957,161.4093c-2.0752.8415-3.9959,2.0125-6.0255,2.9598-2.0497.9287-4.1549,1.7276-6.2108,2.6448-1.7153.7107-3.4573,1.3464-5.1614,2.084-1.966,1.0563-4.0961,1.6519-6.2261,2.2631-2.2079.592-4.4454,1.0546-6.6704,1.5742-2.0146.5515-3.8774,1.5356-5.8027,2.3314-1.8605.7469-3.6526,1.6531-5.5378,2.3356-1.9161.602-3.8476,1.1489-5.7686,1.7341-1.4918.4268-2.9666.9035-4.401,1.4941l-.6654.2389-15.9239-2.0799 .6521-.1285c.7161-.2136 1.33-.565 2.0237-.8177 .8027-.2923 1.6967-.3666 2.4597-.7874 1.9634-.4724 3.8796-1.1287 5.8204-1.684 1.941-.463 3.6495-1.4406 5.5039-2.1546 1.9546-.8832 3.9622-1.6415 5.8807-2.6122l6.6321-1.5148c2.0755-.5416 4.2037-.9833 6.1219-1.9786 1.6694-.8973 3.4535-1.5228 5.2356-2.1522 2.0738-.8506 4.101-1.81 6.2068-2.5848 1.9866-.9533 4.0585-1.7739 5.8522-3.0794l16.0045,1.9141z" stroke="#000" stroke-width=".3"/>
<path d="m186.4284,164.6162c-2.5976.2014-5.16.6597-7.7335,1.0435-2.1284.283-4.1734.8398-6.1289,1.7178-1.9241.749-3.7646,1.6934-5.6837,2.4512-1.8203.7087-3.6593,1.3606-5.5309,1.9214-1.8843.5846-3.7109,1.3294-5.5125,2.1293-2.2954.8679-4.4974,1.9409-6.6525,3.1082-2.0578,1.1209-4.331,1.7396-6.5687,2.3893-1.4802.4392-2.9444.9365-4.3889,1.4829-1.8214.7833-3.6805,1.4805-5.5462,2.151-1.9632.6357-3.8509,1.4784-5.754,2.271-1.7594.7833-3.4423,1.723-5.1343,2.6401-.9966.6375-.5363.2984-1.389,1.0061l-15.9402-1.2724c.8951-.9986.4066-.5311 1.4705-1.3974 1.6606-1.0261 3.4031-1.9218 5.145-2.7924 1.8686-.9325 3.86-1.6091 5.7695-2.4594 1.8644-.5309 3.6369-1.3025 5.4496-1.9719 1.439-.774 2.9897-1.1406 4.4936-1.7583 2.2351-.499 4.4524-1.1609 6.5921-1.9699 2.1425-1.2404 4.3335-2.3862 6.6389-3.2961 1.843-.7141 3.5785-1.7125 5.4925-2.2507 1.8291-.6644 3.7676-1.0415 5.5232-1.9098 1.9926-.5685 3.7603-1.6281 5.7218-2.2866 1.0336-.4785 2.056-1.1216 3.1428-1.4716 .9969-.3211 2.094-.3595 3.0869-.7063 2.5337-.2974 5.0247-.8469 7.5657-1.0809l15.8712,2.3118z" stroke="#000" stroke-width=".3"/>
<path d="m90.5237,201.0221c-2.0834.3093-4.1099.934-6.0408,1.7661-1.6119.6815-2.956,1.6975-4.1091,2.998-1.1896,1.0816-1.8015,2.4329-2.4239,3.8741-.5577,1.4972-1.6392,2.5745-2.7886,3.6273-1.0873.9015-2.1845,1.7757-3.3062,2.6321-1.0895.6381-1.7642,1.721-2.6967,2.5393-.91.7021-1.6237,1.5591-2.3017,2.4793-.6851,1.0052-1.677,1.756-2.3043,2.7975-.7401,1.1833-1.0308,2.4871-1.2029,3.8526-.1474,1.5357-.1416,3.0805-.1441,4.6216 .049,1.595.1207,3.1099-.637,4.5517-6.0726,7.7378-16.2633,4.9421-18.1206-1.7911-.3375-1.5568-.3525-3.1568-.3726-4.7425 .0267-1.7792.0207-3.5587.0183-5.3381-.1096-1.121.177-2.1466.5603-3.1822l16.0397.5998c-.3574.856-.7233,1.6222-.5946,2.5872-.0131,1.7703-.0411,3.5412.0034,5.3113 .0207,1.4154.0101,2.8613.4086,4.2319 .1481.3283.3368.9241.8248.8837 .1324-.011.4999-.1573.3671-.1551-16.3834.278-20.6391-.5993-15.1984.4863 1.1804-.5917.5521-2.3785.6733-3.4463 .0041-1.603.0044-3.2089.1463-4.807 .1662-1.4928.352-3.0886 1.1649-4.3839 .5022-1.249 1.3274-2.1829 2.3214-3.0726 .6835-.991 1.3056-2.1181 2.3209-2.7926 1.422-1.4319-.4582.3971.9312-.7681 .694-.582 1.0211-1.5118 1.7932-2.0294 1.2062-.7105 2.2705-1.5834 3.3245-2.4993 1.1189-.769 2.1109-1.6216 2.7446-2.8394 .6517-1.5478 1.167-3.2189 2.4905-4.3373 1.1666-1.4889 2.4358-2.9043 4.2219-3.6557 1.8745-1.0487 3.8993-1.6522 5.9477-2.2546l15.9389,2.2553z" stroke="#000" stroke-width=".3"/>
<path d="m174.5834,124.856a42.6357,39.9225 0 1,1 -85.2713,0 42.6357,39.9225 0 1,1 85.2713,0z" fill="#06f" stroke="#000" stroke-width=".3"/>
<path d="m139.6747,84.8235a40.5854,41.5852 50.341 1,1 -16.229,80.747 40.5854,41.5852 50.341 1,1 16.229-80.747z" fill="url(#radialGradient3604)"/>
<path d="m170.7075,125.3831a42.6357,39.9225 0 1,1 -85.2713,0 42.6357,39.9225 0 1,1 85.2713,0z" fill="#06f" filter="url(#filter5077)" opacity=".792" stroke="#000" stroke-width=".3"/>
<path d="m632.0579,276.5459a64.4512,56.1233 0 0,1 -128.9025,0 64.4512,56.1233 0 1,1 128.9025,0z" fill="#fcffff"/>
<path d="m251.4681,67.6311a1.6909,1.3033 0 0,1 -3.3817,0 1.6909,1.3033 0 1,1 3.3817,0z" fill="#fcffff" stroke="#fff" stroke-width=".019"/>
<path d="m277.9177,327.6932a1.6909,1.3033 0 0,1 -3.3817,0 1.6909,1.3033 0 1,1 3.3817,0z" fill="#fcffff" stroke="#fff" stroke-width=".019"/>
<path d="m418.91,96.918a1.6909,1.3033 0 0,1 -3.3817,0 1.6909,1.3033 0 1,1 3.3817,0z" fill="#fcffff" stroke="#fff" stroke-width=".019"/>
<path d="m81.1735,354.3909a1.6909,1.3033 0 0,1 -3.3817,0 1.6909,1.3033 0 1,1 3.3817,0z" fill="#fcffff" stroke="#fff" stroke-width=".019"/>
<path d="m356.8945,96.4219a1.6909,1.3033 0 0,1 -3.3817,0 1.6909,1.3033 0 1,1 3.3817,0z" fill="#fcffff" stroke="#fff" stroke-width=".019"/>
<path d="m473.9642,308.794a1.6909,1.3033 0 0,1 -3.3817,0 1.6909,1.3033 0 1,1 3.3817,0z" fill="#fcffff" stroke="#fff" stroke-width=".019"/>
<path d="m292.5534,347.073a1.6909,1.3033 0 0,1 -3.3817,0 1.6909,1.3033 0 1,1 3.3817,0z" fill="#fcffff" stroke="#fff" stroke-width=".019"/>
<path d="m537.5146,177.1661a1.6909,1.3033 0 0,1 -3.3817,0 1.6909,1.3033 0 1,1 3.3817,0z" fill="#fcffff" stroke="#fff" stroke-width=".019"/>
<path d="m570.848,172.3909a1.6909,1.3033 0 0,1 -3.3817,0 1.6909,1.3033 0 1,1 3.3817,0z" fill="#fcffff" stroke="#fff" stroke-width=".019"/>
<path d="m589.0805,110.6699a1.6909,1.3033 0 0,1 -3.3817,0 1.6909,1.3033 0 1,1 3.3817,0z" fill="#fcffff" stroke="#fff" stroke-width=".019"/>
<path d="m75.5301,165.6932a1.6909,1.3033 0 0,1 -3.3817,0 1.6909,1.3033 0 1,1 3.3817,0z" fill="#fcffff" stroke="#fff" stroke-width=".019"/>
<path d="m231.3131,409.8792a1.6909,1.3033 0 0,1 -3.3817,0 1.6909,1.3033 0 1,1 3.3817,0z" fill="#fcffff" stroke="#fff" stroke-width=".019"/>
<path d="m404.1813,67.9129a1.6909,.5909 0 1,0 -3.3817,0 1.6909,.5909 0 0,0 3.3817,0z" fill="#fcffff" stroke="#fff" stroke-width=".0128"/>
</g>
</svg>
