<?xml version="1.0" encoding="UTF-8" standalone="no"?>
<svg viewBox="0 0 426.72858 746.25781" xmlns="http://www.w3.org/2000/svg">
<g transform="translate(579.31235,268.72321)">
<path d="m-367.54018-263.72321c-30.79051,24.50568-267.45712,229.89585-88.1875,623.21875h178.59375 .65625c179.26878-393.32105-57.39622-598.68073-88.1875-623.1875l-2.875-.03125z" fill="#ececec" fill-rule="evenodd" stroke="#000" stroke-width="10"/>
<path d="m-360.11794-9.07503c-37.29332,0-67.62499,30.36294-67.625,67.65625s30.33168,67.62501 67.625,67.625 67.65624-30.33168 67.65625-67.625-30.36293-67.65625-67.65625-67.65625zm0,8c32.96481,0 59.65625,26.69144 59.65625,59.65625s-26.69144,59.625-59.65625,59.625-59.625-26.66019-59.625-59.625 26.66019-59.65625 59.625-59.65625z" fill="#ccc"/>
<path d="m-486.89353-102.24218 43.43656-79.80205 60.60916-68.69037 17.17259-13.13198 64.64976,67.68022 50.50763,81.82235 4.04061,17.1726-241.42646-1.01015" fill="#f00" fill-rule="evenodd" stroke="#000"/>
<path d="m-511.13719,201.81368c0,0-107.07617-1.3336-42.4264,270.72095 0,0 6.06092-227.15998 62.62946-199.15436" fill="#f00" fill-rule="evenodd" stroke="#000" stroke-width="10"/>
<path d="m-220.75895,201.81368c0,0 107.07617-1.3336 42.4264,270.72095 0,0-6.06092-227.15998-62.62946-199.15436" fill="#f00" fill-rule="evenodd" stroke="#000" stroke-width="10"/>
<path d="m-481.84276,303.83915 26.26396,55.55839 179.80716-1.01016 21.2132-54.54823h-227.28432z" fill="#b3b3b3" fill-rule="evenodd" stroke="#000"/>
<path d="m-195.96959,229.08786-20.20305,50.50763-12.12184-10.10153-14.14213,6.06092 19.1929-75.76145 34.34518,17.1726c0,0 59.59901,41.41625 13.13199,247.48737 27.27412-213.14219-21.21321-235.36554-20.20305-235.36554z" fill="#d20000" fill-rule="evenodd"/>
<path d="m-556.59405,469.50416c0,0-10.06091-220.36876 58.58885-221.2234 7.57556-.09431 7.07106,24.24366 7.07106,24.24366l-27.27412,6.06091-21.2132,66.67007-17.17259,124.24876z" fill="#d20000" fill-rule="evenodd"/>
<path d="m-320.4375,303.84375c4.05292,12.21022 6.44802,29.24768 5.28125,53.53125 .8622.30381 1.77545.73001 2.71875,1.21875l36.65625-.21875 17.09375-43.9375c-.68954-3.75421-1.48627-7.10475-2.25-10.59375h-59.5z" fill="#999" fill-rule="evenodd"/>
<path d="m-346.46717,197.19765c-6.81853-.50507-11.125.5625-11.125.5625l-5.0625,77.78125c0,0 24.33536-4.80543 35.8125,28.3125h59.625c-19.36577-90.30874-59.66683-105.20565-79.25-106.65625z" fill="#ccc" fill-rule="evenodd"/>
<path d="m-479,308.36218 20,50 28,2-8-57-40,5z" fill="#ccc" fill-rule="evenodd"/>
<path d="m-367.54018-263.72321c-30.79051,24.50568-267.45712,229.89585-88.1875,623.21875h178.59375 .65625c179.26878-393.32105-57.39622-598.68073-88.1875-623.1875l-2.875-.03125z" fill="none" stroke="#000" stroke-width="10"/>
<path d="m-486.89353-100.22187h237.38585" fill="none" stroke="#000" stroke-width="10"/>
<path d="m-233.34525,70.49391a63.63961,63.63961 0 1,1 -127.27922,0 63.63961,63.63961 0 1,1 127.27922,0z" fill="#b3b3b3" stroke="#000" stroke-linecap="round" stroke-width="8" transform="translate(-69.11794,-17.91878)"/>
<path d="m-233.34525,70.49391a63.63961,63.63961 0 1,1 -127.27922,0 63.63961,63.63961 0 1,1 127.27922,0z" fill="#80e5ff" stroke="#000" stroke-linecap="round" stroke-width="12.29268" transform="matrix(.65079,0,0,.65079,-172.82694,6.69814)"/>
<path d="m-478.81231,304.8493h224.25387" fill="none" stroke="#000" stroke-width="10"/>
<path d="m-375.19417,199.79343h18.18275v272.74117h-18.18275v-272.74117z" fill="#f00" stroke="#000" stroke-linecap="round" stroke-width="10"/>
<path d="m-264.65997,291.71732c0,0 80.8122-185.86807 16.16244-364.66507 3.03046,317.1879-83.84266,364.66507-83.84266,364.66507h67.68022z" fill="#ccc" fill-rule="evenodd"/>
<path d="m-240.60968,254.63054h34.47028v83.71353h-34.47028z" fill="#fff" transform="matrix(.70389,.7103,-.70389,.7103,0,0)"/>
<path d="m-233.34525,70.49391a63.63961,63.63961 0 1,1 -127.27922,0 63.63961,63.63961 0 1,1 127.27922,0z" fill="none" stroke="#000" stroke-linecap="round" stroke-width="12.29268" transform="matrix(.65079,0,0,.65079,-172.82694,6.69814)"/>
<path d="m-273.75134-115.37416c0,0-31.31473-81.82237-90.91373-125.25892 54.54824,105.05587 26.26397,125.25893 26.26397,125.25893l64.64976-1e-005z" fill="#d20000" fill-rule="evenodd"/>
<path d="m-220.75895,201.81368c0,0 107.07617-1.3336 42.4264,270.72095 0,0-6.06092-227.15998-62.62946-199.15436" fill="none" stroke="#000" stroke-width="10"/>
<path d="m-511.13719,201.81368c0,0-107.07617-1.3336-42.4264,270.72095 0,0 6.06092-227.15998 62.62946-199.15436" fill="none" stroke="#000" stroke-width="10"/>
<path d="m-472.75139-118.40461c0,0 53.53808-104.04571 97.98479-131.31983s-96.97464,133.34013-97.98479,131.31983z" fill="#fff" fill-rule="evenodd"/>
<path d="m-504.28571,158.07647c-3.16384-1.7567-22.7241-145.96082 25.71428-235.71429 29.86695-24.03918 70.50234-11.39679 68.57143-1.42857-16.72675,86.35074-75.46947,247.59042-94.28571,237.14286z" fill="#fff" fill-rule="evenodd"/>
</g>
</svg>
