<?xml version="1.0" encoding="UTF-8" standalone="no"?>
<svg viewBox="0 0 1170 291.57761" xmlns="http://www.w3.org/2000/svg" xmlns:xlink="http://www.w3.org/1999/xlink">
<defs>
<linearGradient id="linearGradient3700">
<stop offset="0" stop-color="#fff"/>
<stop offset="1" stop-color="#fff" stop-opacity="0"/>
</linearGradient>
<linearGradient gradientTransform="matrix(.71272,-.70145,-.70145,-.71272,532.50709,1299.096)" gradientUnits="userSpaceOnUse" id="linearGradient3710" x1="475.47598" x2="499.70206" y1="360.04141" y2="433.81763">
<stop offset="0" stop-color="#2e3436"/>
<stop offset="1" stop-color="#fff" stop-opacity="0"/>
</linearGradient>
<linearGradient gradientTransform="matrix(.99443,-.1054,.1054,.99443,-56.69947,58.0947)" gradientUnits="userSpaceOnUse" id="linearGradient3706" x1="421.44366" x2="493" xlink:href="#linearGradient3700" y1="401.73602" y2="561.36218"/>
<linearGradient gradientTransform="matrix(.96156,-.10192,.10192,.96156,-35.24979,75.42559)" gradientUnits="userSpaceOnUse" id="linearGradient3687" x1="421.44366" x2="493" xlink:href="#linearGradient3700" y1="401.73602" y2="561.36218"/>
</defs>
<g transform="translate(-24,-93.26543)">
<path d="m24,92.36218h1170v296h-1170z" opacity=".8"/>
<path d="m1029.1503,515.97554-13.8051-31.30237-38.95856.83928 31.30236-13.80503-.8393-38.95859 13.8051,31.30236 38.9586-.83927-31.3024,13.80502 .8393,38.9586z" fill="#fff" transform="matrix(.83178,0,0,.83178,-453.8509,-262.03535)"/>
<path d="m1029.1503,515.97554-13.8051-31.30237-38.95856.83928 31.30236-13.80503-.8393-38.95859 13.8051,31.30236 38.9586-.83927-31.3024,13.80502 .8393,38.9586z" fill="#fff" opacity=".87739" transform="matrix(.50737,0,0,.50737,545.1482,-110.86774)"/>
<path d="m1029.1503,515.97554-13.8051-31.30237-38.95856.83928 31.30236-13.80503-.8393-38.95859 13.8051,31.30236 38.9586-.83927-31.3024,13.80502 .8393,38.9586z" fill="#fff" opacity=".78927" transform="matrix(.36319,0,0,.36319,146.1682,55.7411)"/>
<path d="m1029.1503,515.97554-13.8051-31.30237-38.95856.83928 31.30236-13.80503-.8393-38.95859 13.8051,31.30236 38.9586-.83927-31.3024,13.80502 .8393,38.9586z" fill="#fff" transform="matrix(.78372,0,0,.78372,-640.52661,-151.34196)"/>
<path d="m1029.1503,515.97554-13.8051-31.30237-38.95856.83928 31.30236-13.80503-.8393-38.95859 13.8051,31.30236 38.9586-.83927-31.3024,13.80502 .8393,38.9586z" fill="#fff" opacity=".87739" transform="matrix(.50737,0,0,.50737,474.13095,63.37289)"/>
<path d="m1029.1503,515.97554-13.8051-31.30237-38.95856.83928 31.30236-13.80503-.8393-38.95859 13.8051,31.30236 38.9586-.83927-31.3024,13.80502 .8393,38.9586z" fill="#fff" opacity=".78927" transform="matrix(.36319,0,0,.36319,682.8922,148.2427)"/>
<path d="m1029.1503,515.97554-13.8051-31.30237-38.95856.83928 31.30236-13.80503-.8393-38.95859 13.8051,31.30236 38.9586-.83927-31.3024,13.80502 .8393,38.9586z" fill="#fff" opacity=".87739" transform="matrix(.50737,0,0,.50737,623.37534,76.63743)"/>
<path d="m1029.1503,515.97554-13.8051-31.30237-38.95856.83928 31.30236-13.80503-.8393-38.95859 13.8051,31.30236 38.9586-.83927-31.3024,13.80502 .8393,38.9586z" fill="#fff" opacity=".78927" transform="matrix(.36319,0,0,.36319,-221.54046,145.60906)"/>
<path d="m1029.1503,515.97554-13.8051-31.30237-38.95856.83928 31.30236-13.80503-.8393-38.95859 13.8051,31.30236 38.9586-.83927-31.3024,13.80502 .8393,38.9586z" fill="#fff" transform="matrix(.78372,0,0,.78372,317.96032,-213.75579)"/>
<path d="m1029.1503,515.97554-13.8051-31.30237-38.95856.83928 31.30236-13.80503-.8393-38.95859 13.8051,31.30236 38.9586-.83927-31.3024,13.80502 .8393,38.9586z" fill="#fff" opacity=".87739" transform="matrix(.50737,0,0,.50737,-225.23108,-109.11284)"/>
<path d="m1029.1503,515.97554-13.8051-31.30237-38.95856.83928 31.30236-13.80503-.8393-38.95859 13.8051,31.30236 38.9586-.83927-31.3024,13.80502 .8393,38.9586z" fill="#fff" opacity=".78927" transform="matrix(.36319,0,0,.36319,574.57628,134.40769)"/>
<g transform="translate(104,-308)">
<path d="m488.57143,370.93362c0,79.68681-64.59892,144.28573-144.28572,144.28573s-144.28573-64.59892-144.28573-144.28573 64.59892-144.28572 144.28573-144.28572 144.28572,64.59892 144.28572,144.28572z" fill="#8f5902" fill-rule="evenodd" transform="matrix(.99443,-.1054,.1054,.99443,143.01774,214.58644)"/>
<path d="m636.73696,454.4908c-81.42265,50.47966-161.69399,70.03288-255.67649,72.32038-1.35219,10.80967-1.50752,21.94816-.30971,33.2491 130.78863.57724 193.27924-21.68972 276.88976-70.23216-5.30184-12.87021-12.36837-24.73369-20.90356-35.33732z" fill="#e9b96e" opacity=".80843"/>
<path d="m667.73972,567.13545c-28.44863,9.66362-57.75117,16.94469-87.0531,23.36823-59.75967,11.09433-121.20625,23.84103-182.32705,24.32184 5.96571,10.9181 13.28133,20.9583 21.70766,29.8784 11.16586,2.4494 22.58397,3.71563 34.20329,3.3825 68.99471-1.03898 132.71237-30.86344 197.17887-52.01023 3.36633-1.12298 6.71386-2.33259 10.08478-3.58292 2.80947-8.17467 4.9028-16.65021 6.20555-25.35782z" fill="#c17d11"/>
<path d="m448.79231,668.1506c26.35517,16.43308 58.16337,24.5374 91.44261,21.01006 29.89206-3.16833 56.69517-15.24026 78.01687-33.31495-86.4627,34.42949-121.45365,13.39125-169.45948,12.30489z" fill="#623d01"/>
<path d="m509.81989,402.20554c-39.62146,4.19957-73.79664,24.0517-97.00968,52.76894 42.52094,7.69396 86.37777,13.38603 127.05517-3.81938 18.561-8.55346 37.94624-17.30994 50.56106-34.113-24.03466-12.24587-51.7828-17.89166-80.60655-14.83656z" fill="#e9b96e" opacity=".8046"/>
<path d="m457.91844,417.72569c-70.61256,36.93037-97.91548,124.10512-60.98511,194.71768l.13035.24922 255.70278-133.73258-.13034-.24923c-36.93037-70.61255-124.10512-97.91547-194.71768-60.98509z" fill="url(#linearGradient3706)" fill-rule="evenodd"/>
<path d="m581.32132,673.17006c-73.36074,31.11573-158.04978-3.12827-189.16551-76.489l-.1098-.25893 265.65452-112.6765 .1098.25893c31.11572,73.36073-3.12827,158.04979-76.48901,189.1655z" fill="url(#linearGradient3710)" fill-rule="evenodd"/>
<path d="m462.35867,423.16985c-68.27863,35.70973-94.67912,120.00312-58.96939,188.28176l.12604.24098 247.25114-129.31237-.12603-.24099c-35.70973-68.27863-120.00313-94.67912-188.28176-58.96938z" fill="url(#linearGradient3687)" fill-rule="evenodd"/>
<g transform="translate(10,-374)">
<path d="m708.53125,820.125c-27.02787.18611-56.92994,2.28657-88.78125,6.28125 2.34949,2.48394 4.60054,5.08459 6.78125,7.75 22.29734-2.37483 43.37715-3.6211 62.78125-3.78125 70.08555-.5784 118.49182,13.1241 125,40.0625 11.2574,46.5961-107.14521,115.15525-264.4375,153.1563s-293.93011,31.0648-305.1875-15.5313c-7.65429-31.68227 44.64453-73.54178 128.34375-109.03125 .74351-3.95458 1.65175-7.88242 2.71875-11.75-110.01699,42.2529-181.23252,95.06735-171.78125,134.18755 12.7555,52.797 167.58804,60.6519 345.8125,17.5937s312.34926-120.73415 299.59375-173.53125c-7.17497-29.6983-59.29152-45.19385-135.25-45.40625-1.84621-.005-3.71965-.0129-5.59375,0z" fill="#a87b35" fill-rule="evenodd" opacity=".8"/>
<path d="m696.75,828.125c-21.97964.15135-45.99387,1.65964-71.46875,4.5 2.05045,2.43694 4.00861,4.94212 5.90625,7.53125 16.76063-1.51525 32.6723-2.34586 47.5625-2.46875 65.54045-.54089 110.82013,12.27733 116.90625,37.46875 10.52735,43.57431-100.18949,107.68219-247.28125,143.21875s-274.87891,29.0743-285.40625-14.5c-6.80932-28.18487 37.13461-64.97446 108.8125-97.0625 .49912-3.7835 1.1436-7.53188 1.9375-11.25-96.12526,38.68345-157.30791,85.68002-148.8125,120.8437 11.92829,49.3732 156.70853,56.7033 323.375,16.4376s292.08456-112.90813 280.15625-162.2813c-6.70966-27.77234-55.43624-42.23888-126.46875-42.4375-1.72648-.005-3.46619-.0121-5.21875,0z" fill="#a87b35" fill-rule="evenodd" opacity=".8"/>
<path d="m688.0625,837.25c-17.61181-.0493-36.73399.87274-56.96875,2.75 1.74022,2.36802 3.39547,4.82018 5,7.3125 10.62985-.72498 20.86165-1.13843 30.59375-1.21875 60.34159-.49798 102.02165,11.30684 107.625,34.5 9.69229,40.11787-92.23225,99.12603-227.65625,131.84375s-253.05772,26.7428-262.75-13.375c-5.84109-24.17719 28.858-55.22702 87-83.25 .24559-3.59728.61295-7.16678 1.125-10.71875-80.47936,34.4437-130.59368,74.87601-123.1875,105.53125 10.98211,45.4567 144.27276,52.1968 297.71875,15.125s268.91962-103.94951 257.9375-149.40625c-6.17743-25.56936-51.0395-38.91088-116.4375-39.09375z" fill="#dd8c34" fill-rule="evenodd" opacity=".8"/>
<path d="m673.5625,843.375c-12.27714.10104-25.28268.68923-38.875,1.75 .32073.47883.62202.95398.9375,1.4375 .45181.6962.90358,1.38691 1.34375,2.09375 .75053,1.19472 1.50039,2.40287 2.21875,3.625 6.68064-.33565 13.19429-.54196 19.46875-.59375 56.87568-.46937 96.156,10.63901 101.4375,32.5 9.13558,37.81358-86.94826,93.44274-214.59375,124.2813s-238.52067,25.2198-247.65625-12.5938c-5.18824-21.47495 23.55695-48.7029 72.75-73.875 .009-.35426.0201-.70836.0312-1.0625 .0321-.9855.0727-1.98572.125-2.96875 .0472-.93668.12199-1.87837.1875-2.8125 .0815-1.16143.16892-2.31293.28125-3.46875 .005-.0516-.005-.10463 0-.15625-70.16156,31.50105-113.1164,67.57384-106.4375,95.21875 10.35132,42.8457 136.02392,49.2238 280.65625,14.2812s253.47633-97.96666 243.125-140.81245c-5.82261-24.1007-48.13959-36.67138-109.78125-36.84375-1.72363-.005-3.46487-.0144-5.21875,0z" fill="#dd8c34" fill-rule="evenodd" opacity=".8"/>
</g>
</g>
<path d="m1029.1503,515.97554-13.8051-31.30237-38.95856.83928 31.30236-13.80503-.8393-38.95859 13.8051,31.30236 38.9586-.83927-31.3024,13.80502 .8393,38.9586z" fill="#fff" opacity=".87739" transform="matrix(.43035,0,0,.43035,-272.79169,-59.29731)"/>
<path d="m1029.1503,515.97554-13.8051-31.30237-38.95856.83928 31.30236-13.80503-.8393-38.95859 13.8051,31.30236 38.9586-.83927-31.3024,13.80502 .8393,38.9586z" fill="#fff" opacity=".78927" transform="matrix(.30805,0,0,.30805,-199.72044,32.68925)"/>
<path d="m1029.1503,515.97554-13.8051-31.30237-38.95856.83928 31.30236-13.80503-.8393-38.95859 13.8051,31.30236 38.9586-.83927-31.3024,13.80502 .8393,38.9586z" fill="#fff" opacity=".78927" transform="matrix(.30805,0,0,.30805,-187.59398,.95439)"/>
<path d="m1029.1503,515.97554-13.8051-31.30237-38.95856.83928 31.30236-13.80503-.8393-38.95859 13.8051,31.30236 38.9586-.83927-31.3024,13.80502 .8393,38.9586z" fill="#fff" opacity=".78927" transform="matrix(.28402,0,0,.1879,-198.13068,50.95078)"/>
<path d="m1029.1503,515.97554-13.8051-31.30237-38.95856.83928 31.30236-13.80503-.8393-38.95859 13.8051,31.30236 38.9586-.83927-31.3024,13.80502 .8393,38.9586z" fill="#fff" opacity=".78927" transform="matrix(.28402,0,0,.1879,41.86932,28.95078)"/>
<path d="m1029.1503,515.97554-13.8051-31.30237-38.95856.83928 31.30236-13.80503-.8393-38.95859 13.8051,31.30236 38.9586-.83927-31.3024,13.80502 .8393,38.9586z" fill="#fff" opacity=".78927" transform="matrix(.1879,0,0,.1879,173.72252,70.95078)"/>
<path d="m1029.1503,515.97554-13.8051-31.30237-38.95856.83928 31.30236-13.80503-.8393-38.95859 13.8051,31.30236 38.9586-.83927-31.3024,13.80502 .8393,38.9586z" fill="#fff" opacity=".78927" transform="matrix(.1879,0,0,.1879,53.72252,190.95078)"/>
<path d="m1029.1503,515.97554-13.8051-31.30237-38.95856.83928 31.30236-13.80503-.8393-38.95859 13.8051,31.30236 38.9586-.83927-31.3024,13.80502 .8393,38.9586z" fill="#fff" opacity=".78927" transform="matrix(.1879,0,0,.1879,953.72252,186.95078)"/>
<path d="m1029.1503,515.97554-13.8051-31.30237-38.95856.83928 31.30236-13.80503-.8393-38.95859 13.8051,31.30236 38.9586-.83927-31.3024,13.80502 .8393,38.9586z" fill="#fff" opacity=".78927" transform="matrix(.1879,0,0,.1879,975.72252,42.95078)"/>
<path d="m1029.1503,515.97554-13.8051-31.30237-38.95856.83928 31.30236-13.80503-.8393-38.95859 13.8051,31.30236 38.9586-.83927-31.3024,13.80502 .8393,38.9586z" fill="#fff" opacity=".78927" transform="matrix(.1879,0,0,.1879,819.72252,56.95078)"/>
</g>
</svg>
